<?xml version="1.0" encoding="UTF-8" standalone="no"?>
<svg
   xmlns:dc="http://purl.org/dc/elements/1.1/"
   xmlns:cc="http://creativecommons.org/ns#"
   xmlns:rdf="http://www.w3.org/1999/02/22-rdf-syntax-ns#"
   xmlns:svg="http://www.w3.org/2000/svg"
   xmlns="http://www.w3.org/2000/svg"
   xmlns:sodipodi="http://sodipodi.sourceforge.net/DTD/sodipodi-0.dtd"
   xmlns:inkscape="http://www.inkscape.org/namespaces/inkscape"
   viewBox="0 0 131.586 104.63285"
   height="104.63285"
   width="131.586"
   xml:space="preserve"
   version="1.1"
   id="svg4501"
   inkscape:version="0.91 r13725"
   sodipodi:docname="box.svg"
   inkscape:export-filename="/home/ladislas/Downloads/box.svg.png"
   inkscape:export-xdpi="90"
   inkscape:export-ydpi="90"><sodipodi:namedview
     pagecolor="#ffffff"
     bordercolor="#666666"
     borderopacity="1"
     objecttolerance="10"
     gridtolerance="10"
     guidetolerance="10"
     inkscape:pageopacity="0"
     inkscape:pageshadow="2"
     inkscape:window-width="1855"
     inkscape:window-height="1056"
     id="namedview12"
     showgrid="false"
     fit-margin-top="0"
     fit-margin-left="0"
     fit-margin-right="0"
     fit-margin-bottom="0"
     inkscape:zoom="3.6613517"
     inkscape:cx="107.5712"
     inkscape:cy="65.086673"
     inkscape:window-x="65"
     inkscape:window-y="24"
     inkscape:window-maximized="1"
     inkscape:current-layer="svg4501" /><metadata
     id="metadata4507"><rdf:RDF><cc:Work
         rdf:about=""><dc:format>image/svg+xml</dc:format><dc:type
           rdf:resource="http://purl.org/dc/dcmitype/StillImage" /><dc:title /></cc:Work></rdf:RDF></metadata><defs
     id="defs4505"><filter
       inkscape:collect="always"
       style="color-interpolation-filters:sRGB"
       id="filter4352"
       x="-0.010771002"
       width="1.021542"
       y="-0.013545585"
       height="1.0270912"><feGaussianBlur
         inkscape:collect="always"
         stdDeviation="0.47243771"
         id="feGaussianBlur4354" /></filter></defs><g
     transform="matrix(1.25,0,0,-1.25,-8.3845689,131.57052)"
     id="g4509"
     style="opacity:0.1;filter:url(#filter4352)"><path
       d="m 101.91396,51.297009 -18.744803,-11.2246 0,44.2399 18.477803,8.1933 0.267,-41.2086 z m -61.323003,36.2438 14.4114,5.982 39.3506,0 -13.7791,-5.982 -39.9829,0 z m -6.3515,-48.925 0,45.0293 44.8351,0 0.2696,-45.0293 -45.1047,0 z m 71.183503,58.7437 -51.072603,-0.0242 -23.923,-10.0285 0,-52.5035 51.359,0 23.612603,14.1363 0.342,0.2031 -0.318,48.2168"
       style="fill:#231f20;fill-opacity:1;fill-rule:nonzero;stroke:none"
       id="path4513"
       inkscape:connector-curvature="0" /><path
       d="m 24.302757,31.295509 0,45.7211 28.4601,0 -0.0152,-45.7211 -28.4449,0 z m -1.8602,47.5808 0,-49.4398 32.1649,0 0.0152,49.4398 -32.1801,0"
       style="fill:#231f20;fill-opacity:1;fill-rule:nonzero;stroke:none"
       id="path4515"
       inkscape:connector-curvature="0" /><path
       d="m 18.642157,24.642709 0,47.2254 47.1891,0 -0.0246,-47.2254 -47.1645,0 z m -2.325,49.661 0,-52.09808 51.8125,0 0.0281,52.09808 -51.8406,0"
       style="fill:#231f20;fill-opacity:1;fill-rule:nonzero;stroke:none"
       id="path4517"
       inkscape:connector-curvature="0" /><path
       d="m 79.922657,97.369709 -40.7664,0 15.964,6.729301 41.3147,0.0199 -16.5123,-6.749201 z m -25.0746,8.516401 -24.5262,-10.304301 49.9531,0 25.262003,10.330101 -50.688903,-0.0258"
       style="fill:#231f20;fill-opacity:1;fill-rule:nonzero;stroke:none"
       id="path4519"
       inkscape:connector-curvature="0" /><path
       d="m 90.558957,80.943109 0,-48.2176 19.776003,11.8856 0,44.9359 -19.776003,-8.6039 z m -1.86,-51.5066 0,52.7254 23.496003,10.2222 0,-48.8246 -0.225,-0.1344 -23.271003,-13.9886"
       style="fill:#231f20;fill-opacity:1;fill-rule:nonzero;stroke:none"
       id="path4521"
       inkscape:connector-curvature="0" /><path
       d="m 73.139057,31.760709 -63.8453,0 0.0039,29.6512 63.8711,0 -0.0297,-29.6512 z m -66.2109,31.9762 -0.002,-34.3004 68.5785,0 0.0352,34.3004 -68.6117,0"
       style="fill:#231f20;fill-opacity:1;fill-rule:nonzero;stroke:none"
       id="path4523"
       inkscape:connector-curvature="0" /></g></svg>