<?xml version="1.0" encoding="UTF-8" standalone="no"?>
<svg
   id="Ebene_1"
   data-name="Ebene 1"
   viewBox="0 0 140.173 48.942347"
   version="1.1"
   sodipodi:docname="keeper-5yrs.svg"
   inkscape:version="1.1.2 (0a00cf5339, 2022-02-04)"
   width="140.173"
   height="48.942348"
   xmlns:inkscape="http://www.inkscape.org/namespaces/inkscape"
   xmlns:sodipodi="http://sodipodi.sourceforge.net/DTD/sodipodi-0.dtd"
   xmlns="http://www.w3.org/2000/svg"
   xmlns:svg="http://www.w3.org/2000/svg">
  <sodipodi:namedview
     id="namedview53"
     pagecolor="#ffffff"
     bordercolor="#666666"
     borderopacity="1.0"
     inkscape:pageshadow="2"
     inkscape:pageopacity="0.0"
     inkscape:pagecheckerboard="0"
     showgrid="false"
     inkscape:zoom="8.2984047"
     inkscape:cx="55.552846"
     inkscape:cy="8.7968715"
     inkscape:window-width="2544"
     inkscape:window-height="1389"
     inkscape:window-x="6"
     inkscape:window-y="24"
     inkscape:window-maximized="1"
     inkscape:current-layer="Ebene_1" />
  <defs
     id="defs4">
    <style
       id="style2">
      .cls-1 {
        fill: #b8144c;
      }

      .cls-2 {
        fill: none;
        stroke: #1d3054;
        stroke-linecap: round;
        stroke-linejoin: round;
        stroke-width: 4px;
      }

      .cls-3 {
        fill: #706f6f;
      }
    </style>
  </defs>
  <path
     style="color:#000000;fill:#1d3054;stroke-width:0.999998;stroke-linecap:round;stroke-linejoin:round;-inkscape-stroke:none"
     d="m 18.052948,2.7080508 a 0.74192653,0.74192653 0 0 0 -0.318765,0.071722 l -8.4871097,4.04324 a 0.74192653,0.74192653 0 0 0 -0.051437,0.08114 0.74185234,0.74185234 0 0 0 -0.3680285,0.5795722 0.74192653,0.74192653 0 0 0 -0.00364,0.0058 v 0.00289 l -0.084757,18.02397 A 0.74192653,0.74192653 0 0 0 9.4810632,26.26186 H 26.7697 v 17.288637 a 0.74185234,0.74185234 0 0 0 0.741852,0.741853 0.74185234,0.74185234 0 0 0 0.741853,-0.741853 V 25.52001 A 0.74192653,0.74192653 0 0 0 27.511552,24.778158 H 10.226538 l 0.07752,-16.5438867 h 17.207496 a 0.74192653,0.74192653 0 0 0 0.316592,-0.070273 L 36.400028,4.1207579 A 0.74192653,0.74192653 0 0 0 36.083437,2.7080508 Z m 0.167351,1.4837046 h 14.550883 l -5.42552,2.5588112 H 12.84839 Z"
     id="polyline6" />
  <g
     id="g20"
     transform="scale(0.37092617)"
     style="stroke-width:2.69595">
    <path
       class="cls-3"
       d="m 129.5,56.9 h -5.52 V 8.58 h 5.52 z M 148.32,8.57 h 6.41 l -17.17,24.13 18.75,24.2 h -7.03 L 131.29,32.98 V 32.7 Z"
       id="path8"
       style="stroke-width:2.69595" />
    <path
       class="cls-3"
       d="M 170.73,56.9 V 8.58 h 25.65 v 4.89 h -20.13 v 16.48 h 17.72 v 4.9 h -17.72 v 17.17 h 21.1 v 4.89 h -26.61 z"
       id="path10"
       style="stroke-width:2.69595" />
    <path
       class="cls-3"
       d="M 213.96,56.9 V 8.58 h 25.65 v 4.89 h -20.13 v 16.48 h 17.72 v 4.9 h -17.72 v 17.17 h 21.1 v 4.89 h -26.61 z"
       id="path12"
       style="stroke-width:2.69595" />
    <path
       class="cls-3"
       d="m 286.69,22.43 c 0,9.65 -5.58,15.37 -16.68,15.37 h -7.38 v 19.1 h -5.51 V 8.58 h 13.93 c 9.58,0 15.65,4.14 15.65,13.86 z m -24.06,-8.96 v 19.51 h 7.38 c 8,0 10.96,-3.52 10.96,-9.93 0,-6.89 -3.86,-9.58 -11.17,-9.58 z"
       id="path14"
       style="stroke-width:2.69595" />
    <path
       class="cls-3"
       d="M 302.62,56.9 V 8.58 h 25.65 v 4.89 h -20.13 v 16.48 h 17.72 v 4.9 h -17.72 v 17.17 h 21.1 v 4.89 h -26.61 z"
       id="path16"
       style="stroke-width:2.69595" />
    <path
       class="cls-3"
       d="m 357.91,8.58 c 10.07,0 16.13,3.93 16.13,13.58 0,7.93 -5.1,12.55 -10.89,13.17 v 0.28 c 1.93,0.9 3.65,2.48 5.86,6.21 l 8.89,15.1 h -6.55 L 362.6,41.48 c -1.86,-3.17 -4,-4.62 -7.51,-4.62 h -3.79 v 20.06 h -5.51 V 8.58 h 12.13 z m -6.62,23.51 h 6.21 c 6.69,0 10.89,-2.62 10.89,-9.31 0,-6.69 -3.93,-9.31 -11.24,-9.31 h -5.86 v 18.61 z"
       id="path18"
       style="stroke-width:2.69595" />
  </g>
  <path
     style="color:#000000;fill:#1d3054;stroke-width:0.999998;stroke-linecap:round;stroke-linejoin:round;-inkscape-stroke:none"
     d="m 18.239135,19.753267 a 0.74185234,0.74185234 0 0 0 -0.562909,0.07897 l -8.5718721,5.048074 a 0.74185234,0.74185234 0 0 0 -0.2629811,1.0157 0.74185234,0.74185234 0 0 0 1.0157005,0.26298 L 18.42967,21.110915 a 0.74185234,0.74185234 0 0 0 0.262256,-1.0157 0.74185234,0.74185234 0 0 0 -0.452791,-0.341948 z"
     id="line22" />
  <path
     style="color:#000000;fill:#1d3054;stroke-width:0.999998;stroke-linecap:round;stroke-linejoin:round;-inkscape-stroke:none"
     d="m 36.229055,19.753267 a 0.74185234,0.74185234 0 0 0 -0.56291,0.07897 l -8.571872,5.048074 a 0.74185234,0.74185234 0 0 0 -0.262981,1.0157 0.74185234,0.74185234 0 0 0 1.015701,0.26298 l 8.572596,-5.048073 a 0.74185234,0.74185234 0 0 0 0.262256,-1.0157 0.74185234,0.74185234 0 0 0 -0.45279,-0.341948 z"
     id="line24" />
  <polyline
     class="cls-2"
     points="48.67 55.19 97.28 55.19 97.28 100.41 74.17 117.41 27.31 117.41 50.42 100.41 74.17 100.41"
     id="polyline26"
     transform="scale(0.37092617)" />
  <path
     style="color:#000000;fill:#1d3054;stroke-width:0.999998;stroke-linecap:round;stroke-linejoin:round;-inkscape-stroke:none"
     d="M 18.052948,2.7080508 A 0.74185234,0.74185234 0 0 0 17.311095,3.4499032 V 20.471212 a 0.74185234,0.74185234 0 0 0 0.741853,0.741853 0.74185234,0.74185234 0 0 0 0.741852,-0.741853 V 3.4499032 A 0.74185234,0.74185234 0 0 0 18.052948,2.7080508 Z"
     id="line28" />
  <path
     class="cls-1"
     d="m 5.7567742,17.459495 v 18.33859 H 17.68576 l 0.0074,-18.33859 z M 6.4466968,35.108162 V 18.149417 H 17.003256 l -0.0074,16.958745 z"
     id="path30"
     style="stroke-width:0.999998" />
  <path
     class="cls-1"
     d="M 3.4829967,19.154627 V 38.479881 H 22.700682 l 0.01113,-19.325254 z M 4.3435455,37.574821 V 20.059687 H 21.847551 l -0.0074,17.518843 H 4.3472547 Z"
     id="path32"
     style="stroke-width:0.999998" />
  <path
     class="cls-1"
     d="M 17.774782,0.01112779 8.6796724,3.8316673 H 27.207435 L 36.57703,0 Z M 27.073901,3.1714188 H 11.95495 l 5.919982,-2.50004243 15.32296,-0.007419 -6.123991,2.50375163 z"
     id="path34"
     style="stroke-width:0.999998" />
  <path
     class="cls-1"
     d="M 30.330633,46.847975 V 27.289038 l 8.716765,-3.790865 v 18.108615 l -0.08531,0.04822 -8.631452,5.189257 z m 0.689923,-19.106407 v 17.88606 l 7.336919,-4.410312 V 24.547894 l -7.336919,3.189965 z"
     id="path36"
     style="stroke-width:0.999998" />
  <path
     class="cls-1"
     d="m 0,23.075317 v 12.722768 c 0,0 25.438117,0 25.438117,0 l 0.01484,-12.722768 z M 24.559022,34.937536 H 0.87909502 V 23.939575 H 24.573859 l -0.01113,10.997961 z"
     id="path38"
     style="stroke-width:0.999998" />
  <g
     id="g50"
     transform="scale(0.37092617)"
     style="stroke-width:2.69595">
    <path
       class="cls-1"
       d="M 136.15,96.19 123.98,68.31 h 5.64 l 10,23.73 20.06,-23.73 h 4.76 l -23.87,27.75 -4.49,21.35 h -4.42 z"
       id="path40"
       style="stroke-width:2.69595" />
    <path
       class="cls-1"
       d="m 161.52,117.41 10.4,-49.1 h 29.17 l -0.88,4.08 H 175.46 L 171.72,90 h 23.8 l -0.88,4.08 h -23.8 l -4.08,19.24 h 25.77 l -0.82,4.08 h -30.19 z"
       id="path42"
       style="stroke-width:2.69595" />
    <path
       class="cls-1"
       d="m 196.74,117.41 29.85,-49.1 h 5.17 l 9.18,49.1 h -4.83 l -2.45,-13.26 h -24.41 l -7.96,13.26 h -4.56 z m 36.24,-17.34 -4.76,-27.68 -16.66,27.68 z"
       id="path44"
       style="stroke-width:2.69595" />
    <path
       class="cls-1"
       d="m 252.91,117.41 h -4.42 l 10.4,-49.1 h 16.05 c 2.18,0 4.15,0.14 5.92,0.41 1.77,0.27 3.47,1 5.1,2.18 1.5,1.04 2.47,2.43 2.92,4.15 0.45,1.72 0.43,3.76 -0.07,6.12 -0.59,2.67 -1.94,4.92 -4.05,6.73 -2.11,1.81 -4.66,3.08 -7.65,3.81 l -0.07,0.14 c 1.5,0.27 2.67,0.73 3.54,1.36 0.87,0.63 1.5,1.43 1.9,2.38 0.4,0.95 0.62,2.04 0.65,3.26 0.02,1.22 -0.03,2.54 -0.17,3.94 -0.23,2 -0.43,3.74 -0.61,5.24 -0.18,1.5 -0.33,2.81 -0.44,3.94 -0.11,1.13 -0.14,2.14 -0.07,3.03 0.07,0.88 0.28,1.69 0.65,2.41 h -5.1 c -0.23,-1.63 -0.27,-3.31 -0.14,-5.03 0.14,-1.72 0.32,-3.44 0.54,-5.17 0.32,-2.81 0.52,-5.08 0.61,-6.8 0.09,-1.72 -0.11,-3.06 -0.61,-4.01 -0.5,-0.95 -1.36,-1.59 -2.58,-1.9 -1.22,-0.32 -2.95,-0.48 -5.17,-0.48 h -12.17 z m 15.23,-27.47 c 1.54,0 3.16,-0.07 4.86,-0.2 1.7,-0.14 3.3,-0.49 4.79,-1.05 1.5,-0.57 2.8,-1.44 3.91,-2.62 1.11,-1.18 1.89,-2.81 2.35,-4.9 0.32,-1.59 0.36,-2.9 0.14,-3.94 -0.23,-1.04 -0.65,-1.89 -1.26,-2.55 -0.61,-0.66 -1.36,-1.14 -2.24,-1.46 -0.88,-0.32 -1.81,-0.53 -2.79,-0.65 -0.98,-0.11 -1.95,-0.17 -2.92,-0.17 h -12.55 l -3.74,17.54 z"
       id="path46"
       style="stroke-width:2.69595" />
    <path
       class="cls-1"
       d="m 325.87,104.29 c -0.54,2.45 -1.47,4.56 -2.79,6.32 -1.31,1.77 -2.9,3.23 -4.76,4.39 -1.86,1.16 -3.91,2.02 -6.15,2.58 -2.24,0.57 -4.55,0.85 -6.9,0.85 -2.18,0 -4.17,-0.26 -5.98,-0.78 -1.81,-0.52 -3.33,-1.35 -4.56,-2.48 -1.22,-1.13 -2.09,-2.57 -2.58,-4.32 -0.5,-1.75 -0.52,-3.82 -0.07,-6.22 h 4.76 c -0.36,1.9 -0.34,3.48 0.07,4.73 0.41,1.25 1.09,2.24 2.04,2.99 0.95,0.75 2.14,1.27 3.57,1.56 1.43,0.29 2.96,0.44 4.59,0.44 1.36,0 2.79,-0.18 4.28,-0.54 1.49,-0.36 2.89,-0.93 4.18,-1.7 1.29,-0.77 2.42,-1.77 3.4,-2.99 0.97,-1.22 1.64,-2.7 2.01,-4.42 0.32,-1.5 0.31,-2.74 -0.03,-3.74 -0.34,-1 -0.96,-1.87 -1.87,-2.62 -0.91,-0.75 -2.06,-1.4 -3.47,-1.97 -1.41,-0.57 -2.99,-1.14 -4.76,-1.73 -2.18,-0.72 -4.14,-1.48 -5.88,-2.28 -1.75,-0.79 -3.17,-1.72 -4.28,-2.79 -1.11,-1.06 -1.88,-2.32 -2.31,-3.77 -0.43,-1.45 -0.42,-3.2 0.03,-5.24 0.45,-2.13 1.3,-4.02 2.55,-5.68 1.25,-1.65 2.72,-3.04 4.42,-4.15 1.7,-1.11 3.55,-1.96 5.54,-2.55 2,-0.59 3.97,-0.88 5.92,-0.88 1.95,0 3.74,0.17 5.51,0.51 1.77,0.34 3.31,0.94 4.62,1.8 1.31,0.86 2.29,2.05 2.92,3.57 0.63,1.52 0.79,3.46 0.48,5.81 h -4.76 c 0.27,-1.5 0.19,-2.74 -0.24,-3.74 -0.43,-1 -1.1,-1.78 -2.01,-2.35 -0.91,-0.57 -1.96,-0.96 -3.16,-1.19 -1.2,-0.23 -2.44,-0.34 -3.71,-0.34 -1.27,0 -2.62,0.17 -4.05,0.51 -1.43,0.34 -2.77,0.85 -4.01,1.53 -1.25,0.68 -2.34,1.56 -3.26,2.65 -0.93,1.09 -1.55,2.38 -1.87,3.88 -0.36,1.68 -0.33,3.06 0.1,4.15 0.43,1.09 1.12,2.02 2.07,2.79 0.95,0.77 2.1,1.42 3.43,1.94 1.34,0.52 2.75,1.03 4.25,1.53 1.72,0.64 3.45,1.28 5.17,1.94 1.72,0.66 3.22,1.5 4.49,2.52 1.27,1.02 2.21,2.28 2.82,3.77 0.61,1.5 0.69,3.4 0.24,5.71 z"
       id="path48"
       style="stroke-width:2.69595" />
  </g>
</svg>
