<?xml version="1.0" encoding="UTF-8" standalone="no"?>
<svg
   xmlns:dc="http://purl.org/dc/elements/1.1/"
   xmlns:cc="http://creativecommons.org/ns#"
   xmlns:rdf="http://www.w3.org/1999/02/22-rdf-syntax-ns#"
   xmlns:svg="http://www.w3.org/2000/svg"
   xmlns="http://www.w3.org/2000/svg"
   xmlns:sodipodi="http://sodipodi.sourceforge.net/DTD/sodipodi-0.dtd"
   xmlns:inkscape="http://www.inkscape.org/namespaces/inkscape"
   viewBox="0 0 140 39.999999"
   height="40"
   width="140"
   xml:space="preserve"
   version="1.1"
   id="svg2"
   inkscape:version="0.91 r13725"
   sodipodi:docname="KeeperLogo.svg"><sodipodi:namedview
     pagecolor="#ffffff"
     bordercolor="#666666"
     borderopacity="1"
     objecttolerance="10"
     gridtolerance="10"
     guidetolerance="10"
     inkscape:pageopacity="0"
     inkscape:pageshadow="2"
     inkscape:window-width="1916"
     inkscape:window-height="1037"
     id="namedview4210"
     showgrid="false"
     showguides="true"
     inkscape:guide-bbox="true"
     inkscape:zoom="3.3073706"
     inkscape:cx="133.64161"
     inkscape:cy="110.6612"
     inkscape:window-x="0"
     inkscape:window-y="20"
     inkscape:window-maximized="0"
     inkscape:current-layer="g10"><sodipodi:guide
       position="496.11655,47.676789"
       orientation="1,0"
       id="guide4850" /><sodipodi:guide
       position="112.02977,26.083266"
       orientation="0,1"
       id="guide4852" /><sodipodi:guide
       position="402.04576,38.376608"
       orientation="1,0"
       id="guide4854" /></sodipodi:namedview><metadata
     id="metadata8"><rdf:RDF><cc:Work
         rdf:about=""><dc:format>image/svg+xml</dc:format><dc:type
           rdf:resource="http://purl.org/dc/dcmitype/StillImage" /><dc:title></dc:title></cc:Work></rdf:RDF></metadata><defs
     id="defs6" /><g
     transform="matrix(1.25,0,0,-1.25,0,40.000002)"
     id="g10"><g
       id="g4224"
       transform="matrix(0.29636937,0,0,0.29636937,-5.6556777,2.3266561)"><path
         id="path14"
         style="fill:#1d3155;fill-opacity:1;fill-rule:nonzero;stroke:none"
         d="m 114.071,37.6574 -18.7448,-11.2246 0,44.2399 18.4778,8.1933 0.267,-41.2086 z m -61.323,36.2438 14.4114,5.982 39.3506,0 -13.7791,-5.982 -39.9829,0 z m -6.3515,-48.925 0,45.0293 44.8351,0 0.2696,-45.0293 -45.1047,0 z M 117.58,83.7199 66.5074,83.6957 42.5844,73.6672 l 0,-52.5035 51.359,0 23.6126,14.1363 0.342,0.2031 -0.318,48.2168"
         inkscape:connector-curvature="0" /><path
         id="path16"
         style="fill:#b61352;fill-opacity:1;fill-rule:nonzero;stroke:none"
         d="m 36.4598,17.6559 0,45.7211 28.4601,0 -0.0152,-45.7211 -28.4449,0 z m -1.8602,47.5808 0,-49.4398 32.1649,0 0.0152,49.4398 -32.1801,0"
         inkscape:connector-curvature="0" /><path
         id="path18"
         style="fill:#b61352;fill-opacity:1;fill-rule:nonzero;stroke:none"
         d="m 30.7992,11.0031 0,47.2254 47.1891,0 -0.0246,-47.2254 -47.1645,0 z m -2.325,49.661 0,-52.09808 51.8125,0 0.0281,52.09808 -51.8406,0"
         inkscape:connector-curvature="0" /><path
         id="path20"
         style="fill:#b61352;fill-opacity:1;fill-rule:nonzero;stroke:none"
         d="m 92.0797,83.7301 -40.7664,0 15.964,6.7293 41.3147,0.0199 -16.5123,-6.7492 z m -25.0746,8.5164 -24.5262,-10.3043 49.9531,0 25.262,10.3301 -50.6889,-0.0258"
         inkscape:connector-curvature="0" /><path
         id="path22"
         style="fill:#b61352;fill-opacity:1;fill-rule:nonzero;stroke:none"
         d="m 102.716,67.3035 0,-48.2176 19.776,11.8856 0,44.9359 -19.776,-8.6039 z m -1.86,-51.5066 0,52.7254 23.496,10.2222 0,-48.8246 -0.225,-0.1344 -23.271,-13.9886"
         inkscape:connector-curvature="0" /><path
         id="path24"
         style="fill:#b61352;fill-opacity:1;fill-rule:nonzero;stroke:none"
         d="m 85.2961,18.1211 -63.8453,0 0.0039,29.6512 63.8711,0 -0.0297,-29.6512 z m -66.2109,31.9762 -0.002,-34.3004 68.5785,0 0.0352,34.3004 -68.6117,0"
         inkscape:connector-curvature="0" /><path
         id="path26"
         style="fill:#656263;fill-opacity:1;fill-rule:nonzero;stroke:none"
         d="m 167.401,83.6969 6.411,0 -17.166,-24.1285 18.752,-24.1981 -7.032,0 -17.993,23.9223 0,0.2758 17.028,24.1285 z m -18.82,-48.3266 -5.516,0 0,48.3266 5.516,0 0,-48.3266"
         inkscape:connector-curvature="0" /><path
         id="path28"
         style="fill:#656263;fill-opacity:1;fill-rule:nonzero;stroke:none"
         d="m 189.811,35.3703 0,48.3266 25.645,0 0,-4.8946 -20.13,0 0,-16.4765 17.717,0 0,-4.8949 -17.717,0 0,-17.1661 21.095,0 0,-4.8945 -26.61,0"
         inkscape:connector-curvature="0" /><path
         id="path30"
         style="fill:#656263;fill-opacity:1;fill-rule:nonzero;stroke:none"
         d="m 233.04,35.3703 0,48.3266 25.646,0 0,-4.8946 -20.131,0 0,-16.4765 17.717,0 0,-4.8949 -17.717,0 0,-17.1661 21.095,0 0,-4.8945 -26.61,0"
         inkscape:connector-curvature="0" /><path
         id="path32"
         style="fill:#656263;fill-opacity:1;fill-rule:nonzero;stroke:none"
         d="m 281.715,78.8023 0,-19.5097 7.377,0 c 7.997,0 10.961,3.5164 10.961,9.9273 0,6.8942 -3.861,9.5824 -11.168,9.5824 l -7.17,0 z m 24.06,-8.9617 c 0,-9.6515 -5.585,-15.3734 -16.683,-15.3734 l -7.377,0 0,-19.0969 -5.515,0 0,48.3266 13.926,0 c 9.582,0 15.649,-4.1364 15.649,-13.8563"
         inkscape:connector-curvature="0" /><path
         id="path34"
         style="fill:#656263;fill-opacity:1;fill-rule:nonzero;stroke:none"
         d="m 321.705,35.3703 0,48.3266 25.646,0 0,-4.8946 -20.131,0 0,-16.4765 17.717,0 0,-4.8949 -17.717,0 0,-17.1661 21.095,0 0,-4.8945 -26.61,0"
         inkscape:connector-curvature="0" /><path
         id="path36"
         style="fill:#656263;fill-opacity:1;fill-rule:nonzero;stroke:none"
         d="m 370.38,60.1891 6.205,0 c 6.686,0 10.893,2.6199 10.893,9.3066 0,6.7559 -3.93,9.3066 -11.238,9.3066 l -5.86,0 0,-18.6132 z m 6.618,23.5078 c 10.065,0 16.132,-3.9293 16.132,-13.5809 0,-7.9277 -5.102,-12.5476 -10.893,-13.1676 l 0,-0.2754 c 1.931,-0.8964 3.655,-2.4824 5.861,-6.205 l 8.892,-15.0977 -6.549,0 -8.755,15.4426 c -1.861,3.1715 -3.999,4.6187 -7.514,4.6187 l -3.792,0 0,-20.0613 -5.515,0 0,48.3266 12.133,0"
         inkscape:connector-curvature="0" /></g><g
       transform="matrix(1.0206686,0,0,-1.0206686,-199.40781,131.48588)"
       style="font-style:normal;font-variant:normal;font-weight:normal;font-stretch:normal;font-size:11.25px;line-height:94.99999881%;font-family:Arial;-inkscape-font-specification:'Arial, Normal';text-align:start;letter-spacing:0px;word-spacing:0px;writing-mode:lr-tb;text-anchor:start;fill:#b61352;fill-opacity:1;stroke:none;stroke-width:1px;stroke-linecap:butt;stroke-linejoin:miter;stroke-opacity:1"
       id="flowRoot4842"><path
         d="m 283.22437,126.4119 0,-8.05298 3.02124,0 q 0.92285,0 1.47766,0.24719 0.5603,0.2417 0.87341,0.75257 0.3186,0.50537 0.3186,1.06018 0,0.51636 -0.28015,0.97229 -0.28015,0.45593 -0.84595,0.73608 0.7306,0.21424 1.12061,0.73059 0.39551,0.51636 0.39551,1.21949 0,0.56579 -0.2417,1.05468 -0.23621,0.4834 -0.58777,0.74707 -0.35156,0.26368 -0.8844,0.401 -0.52734,0.13184 -1.29639,0.13184 l -3.07067,0 z m 1.06567,-4.66919 1.74133,0 q 0.70862,0 1.01624,-0.0934 0.40649,-0.12085 0.60974,-0.401 0.20874,-0.28016 0.20874,-0.70313 0,-0.401 -0.19226,-0.70312 -0.19226,-0.30762 -0.54932,-0.41748 -0.35705,-0.11536 -1.22497,-0.11536 l -1.6095,0 0,2.43347 z m 0,3.71887 2.005,0 q 0.51636,0 0.7251,-0.0384 0.36804,-0.0659 0.61524,-0.21973 0.24719,-0.1538 0.40649,-0.44494 0.1593,-0.29663 0.1593,-0.68115 0,-0.45044 -0.23071,-0.78003 -0.23071,-0.33509 -0.6427,-0.46692 -0.4065,-0.13733 -1.17554,-0.13733 l -1.86218,0 0,2.76855 z"
         style=""
         id="path4973" /><path
         d="m 294.65015,124.53324 1.02172,0.12634 q -0.24169,0.89539 -0.89538,1.38977 -0.65369,0.49439 -1.66992,0.49439 -1.27991,0 -2.03247,-0.78553 -0.74707,-0.79101 -0.74707,-2.21374 0,-1.47217 0.75805,-2.28516 0.75806,-0.81299 1.96656,-0.81299 1.17004,0 1.91162,0.79651 0.74157,0.79651 0.74157,2.24121 0,0.0879 -0.005,0.26368 l -4.35059,0 q 0.0549,0.9613 0.54383,1.47216 0.48889,0.51087 1.21948,0.51087 0.54382,0 0.92835,-0.28565 0.38452,-0.28564 0.60974,-0.91186 z m -3.24646,-1.59851 3.25744,0 q -0.0659,-0.73609 -0.37353,-1.10413 -0.47241,-0.57129 -1.22498,-0.57129 -0.68115,0 -1.14807,0.45593 -0.46143,0.45594 -0.51086,1.21949 z"
         style=""
         id="path4975" /><path
         d="m 299.07764,125.5275 0.14282,0.87341 q -0.41748,0.0879 -0.74707,0.0879 -0.53833,0 -0.83496,-0.17028 -0.29663,-0.17029 -0.41748,-0.44495 -0.12085,-0.28015 -0.12085,-1.17004 l 0,-3.35633 -0.7251,0 0,-0.76904 0.7251,0 0,-1.4447 0.98327,-0.59326 0,2.03796 0.99427,0 0,0.76904 -0.99427,0 0,3.41126 q 0,0.42297 0.0494,0.54382 0.0549,0.12085 0.17029,0.19226 0.12085,0.0714 0.34058,0.0714 0.16479,0 0.43396,-0.0384 z"
         style=""
         id="path4977" /><path
         d="m 303.8457,125.6923 q -0.54931,0.46691 -1.06018,0.65918 -0.50537,0.19226 -1.08764,0.19226 -0.96131,0 -1.47767,-0.46692 -0.51635,-0.47241 -0.51635,-1.20301 0,-0.42846 0.19226,-0.78002 0.19775,-0.35706 0.51086,-0.57129 0.31861,-0.21424 0.71411,-0.3241 0.29114,-0.0769 0.87891,-0.14832 1.19751,-0.14282 1.76331,-0.34057 0.005,-0.20325 0.005,-0.25818 0,-0.60425 -0.28015,-0.85144 -0.37903,-0.33508 -1.1261,-0.33508 -0.69763,0 -1.03272,0.24719 -0.32959,0.2417 -0.48889,0.86242 l -0.96679,-0.13183 q 0.13183,-0.62073 0.43396,-0.99976 0.30212,-0.38452 0.87341,-0.58777 0.57129,-0.20874 1.32385,-0.20874 0.74707,0 1.21399,0.17579 0.46692,0.17578 0.68665,0.44494 0.21972,0.26367 0.30761,0.67017 0.0494,0.25268 0.0494,0.91186 l 0,1.31836 q 0,1.37879 0.0604,1.74683 0.0659,0.36255 0.25268,0.69763 l -1.03271,0 q -0.15381,-0.30762 -0.19776,-0.7196 z m -0.0824,-2.20826 q -0.53833,0.21973 -1.61499,0.37354 -0.60975,0.0879 -0.86243,0.19775 -0.25269,0.10987 -0.39002,0.3241 -0.13733,0.20874 -0.13733,0.46692 0,0.39551 0.29664,0.65918 0.30212,0.26367 0.8789,0.26367 0.57129,0 1.01624,-0.24719 0.44494,-0.25269 0.65368,-0.68665 0.15931,-0.33508 0.15931,-0.98877 l 0,-0.36255 z"
         style=""
         id="path4979" /></g></g></svg>