<?xml version="1.0" encoding="UTF-8" standalone="no"?>
<svg
   xmlns:dc="http://purl.org/dc/elements/1.1/"
   xmlns:cc="http://creativecommons.org/ns#"
   xmlns:rdf="http://www.w3.org/1999/02/22-rdf-syntax-ns#"
   xmlns:svg="http://www.w3.org/2000/svg"
   xmlns="http://www.w3.org/2000/svg"
   xmlns:sodipodi="http://sodipodi.sourceforge.net/DTD/sodipodi-0.dtd"
   xmlns:inkscape="http://www.inkscape.org/namespaces/inkscape"
   viewBox="0 0 140 39.999999"
   height="40"
   width="140"
   xml:space="preserve"
   version="1.1"
   id="svg2"
   inkscape:version="0.91 r"
   sodipodi:docname="KeeperLogo-QA.svg"><sodipodi:namedview
     pagecolor="#ffffff"
     bordercolor="#666666"
     borderopacity="1"
     objecttolerance="10"
     gridtolerance="10"
     guidetolerance="10"
     inkscape:pageopacity="0"
     inkscape:pageshadow="2"
     inkscape:window-width="1916"
     inkscape:window-height="1060"
     id="namedview4210"
     showgrid="false"
     showguides="true"
     inkscape:guide-bbox="true"
     inkscape:zoom="5.0757221"
     inkscape:cx="31.109484"
     inkscape:cy="43.411676"
     inkscape:window-x="1920"
     inkscape:window-y="18"
     inkscape:window-maximized="0"
     inkscape:current-layer="g10"
     inkscape:snap-text-baseline="false"><sodipodi:guide
       position="496.11655,47.676789"
       orientation="1,0"
       id="guide4850" /><sodipodi:guide
       position="112.02977,26.083266"
       orientation="0,1"
       id="guide4852" /><sodipodi:guide
       position="402.04576,38.376608"
       orientation="1,0"
       id="guide4854" /><sodipodi:guide
       position="76.393075,6.1016832"
       orientation="0,1"
       id="guide4193" /><sodipodi:guide
       position="128.01332,57.111754"
       orientation="1,0"
       id="guide4195" /></sodipodi:namedview><metadata
     id="metadata8"><rdf:RDF><cc:Work
         rdf:about=""><dc:format>image/svg+xml</dc:format><dc:type
           rdf:resource="http://purl.org/dc/dcmitype/StillImage" /><dc:title></dc:title></cc:Work></rdf:RDF></metadata><defs
     id="defs6" /><g
     transform="matrix(1.25,0,0,-1.25,0,40.000002)"
     id="g10"><path
       inkscape:connector-curvature="0"
       d="m 28.151473,13.487156 -5.555385,-3.326628 0,13.111352 5.476254,2.428243 0.07913,-12.212967 z m -18.1742592,10.741552 4.2710972,1.772882 11.662313,0 -4.083703,-1.772882 -11.8497072,0 z m -1.88239,-14.4998712 0,13.3453052 13.2877502,0 0.0799,-13.3453052 -13.3676512,0 z M 29.191433,27.13867 l -15.136354,-0.0072 -7.0900449,-2.97214 0,-15.5604295 15.2212349,0 6.998051,4.1895665 0.101358,0.06019 -0.09425,14.289983"
       style="fill:#1d3155;fill-opacity:1;fill-rule:nonzero;stroke:none"
       id="path14" /><path
       inkscape:connector-curvature="0"
       d="m 5.1498903,7.5593241 0,13.5503339 8.4347017,0 -0.0045,-13.5503339 -8.4301967,0 z M 4.598584,21.660816 l 0,-14.6524426 9.532691,0 0.0045,14.6524426 -9.537196,0"
       style="fill:#b61352;fill-opacity:1;fill-rule:nonzero;stroke:none"
       id="path16" /><path
       inkscape:connector-curvature="0"
       d="m 3.4722618,5.5876379 0,13.9961621 13.9854042,0 -0.0073,-13.9961621 -13.9781132,0 z M 2.783203,20.305637 l 0,-15.4402749 15.355638,0 0.0083,15.4402749 -15.363966,0"
       style="fill:#b61352;fill-opacity:1;fill-rule:nonzero;stroke:none"
       id="path18" /><path
       inkscape:connector-curvature="0"
       d="m 21.633925,27.141693 -12.0819123,0 4.7312403,1.994358 12.244412,0.0059 -4.89374,-2.000256 z m -7.431343,2.524 -7.2688149,-3.053879 14.8045689,0 7.486883,3.061526 -15.022637,-0.0076"
       style="fill:#b61352;fill-opacity:1;fill-rule:nonzero;stroke:none"
       id="path20" /><path
       inkscape:connector-curvature="0"
       d="m 24.786199,22.273352 0,-14.2902197 5.861,3.5225277 0,13.317624 -5.861,-2.549932 z m -0.551248,-15.2649786 0,15.6261936 6.963495,3.029547 0,-14.470116 -0.06668,-0.03983 -6.896812,-4.1457926"
       style="fill:#b61352;fill-opacity:1;fill-rule:nonzero;stroke:none"
       id="path22" /><path
       inkscape:connector-curvature="0"
       d="m 19.623474,7.6971951 -18.92179162,0 0.001156,8.7877079 18.92943778,0 -0.0088,-8.7877079 z M 5.9100032e-4,17.173961 -1.738416e-6,7.0083734 l 20.324566738416,0 0.01043,10.1655876 -20.33440599968,0"
       style="fill:#b61352;fill-opacity:1;fill-rule:nonzero;stroke:none"
       id="path24" /><path
       inkscape:connector-curvature="0"
       d="m 43.956851,27.131854 1.900024,0 -5.087476,-7.150949 5.557518,-7.171575 -2.084069,0 -5.332574,7.089837 0,0.08174 5.046577,7.150949 z M 38.37918,12.80933 l -1.634774,0 0,14.322524 1.634774,0 0,-14.322524"
       style="fill:#656263;fill-opacity:1;fill-rule:nonzero;stroke:none"
       id="path26" /><path
       inkscape:connector-curvature="0"
       d="m 50.598489,12.80933 0,14.322524 7.600392,0 0,-1.45061 -5.965915,0 0,-4.88313 5.250776,0 0,-1.450698 -5.250776,0 0,-5.087506 6.251912,0 0,-1.45058 -7.886389,0"
       style="fill:#656263;fill-opacity:1;fill-rule:nonzero;stroke:none"
       id="path28" /><path
       inkscape:connector-curvature="0"
       d="m 63.41024,12.80933 0,14.322524 7.600689,0 0,-1.45061 -5.966212,0 0,-4.88313 5.250776,0 0,-1.450698 -5.250776,0 0,-5.087506 6.251912,0 0,-1.45058 -7.886389,0"
       style="fill:#656263;fill-opacity:1;fill-rule:nonzero;stroke:none"
       id="path30" /><path
       inkscape:connector-curvature="0"
       d="m 77.836019,25.681244 0,-5.782077 2.186317,0 c 2.370066,0 3.248505,1.042153 3.248505,2.942147 0,2.04323 -1.144282,2.83993 -3.309853,2.83993 l -2.124969,0 z m 7.130647,-2.655973 c 0,-2.860409 -1.655223,-4.556205 -4.94433,-4.556205 l -2.186317,0 0,-5.659736 -1.634477,0 0,14.322524 4.12724,0 c 2.839811,0 4.637884,-1.225903 4.637884,-4.106583"
       style="fill:#656263;fill-opacity:1;fill-rule:nonzero;stroke:none"
       id="path32" /><path
       inkscape:connector-curvature="0"
       d="m 89.68783,12.80933 0,14.322524 7.600689,0 0,-1.45061 -5.966211,0 0,-4.88313 5.250776,0 0,-1.450698 -5.250776,0 0,-5.087506 6.251911,0 0,-1.45058 -7.886389,0"
       style="fill:#656263;fill-opacity:1;fill-rule:nonzero;stroke:none"
       id="path34" /><path
       inkscape:connector-curvature="0"
       d="m 104.11361,20.164862 1.83897,0 c 1.98153,0 3.22835,0.776458 3.22835,2.758191 0,2.002242 -1.16473,2.758191 -3.3306,2.758191 l -1.73672,0 0,-5.516382 z m 1.96137,6.966992 c 2.98296,0 4.78103,-1.164525 4.78103,-4.024963 0,-2.349528 -1.51207,-3.718724 -3.22835,-3.902473 l 0,-0.08162 c 0.57229,-0.265665 1.08323,-0.735707 1.73702,-1.838972 L 112,12.80933 l -1.94092,0 -2.59472,4.576713 c -0.55154,0.939936 -1.18518,1.368841 -2.22692,1.368841 l -1.12383,0 0,-5.945554 -1.63448,0 0,14.322524 3.59585,0"
       style="fill:#656263;fill-opacity:1;fill-rule:nonzero;stroke:none"
       id="path36" /><text
       xml:space="preserve"
       style="font-style:normal;font-variant:normal;font-weight:500;font-stretch:normal;font-size:9px;line-height:94.99999881%;font-family:'Century Schoolbook L';-inkscape-font-specification:'Century Schoolbook L, Medium';text-align:start;letter-spacing:0px;word-spacing:0px;writing-mode:lr-tb;text-anchor:start;fill:#000000;fill-opacity:1;stroke:none;stroke-width:1px;stroke-linecap:butt;stroke-linejoin:miter;stroke-opacity:1"
       x="79.042404"
       y="-39.555721"
       id="text4185"
       sodipodi:linespacing="94.999999%"
       transform="scale(1,-1)"><tspan
         sodipodi:role="line"
         id="tspan4187"
         x="79.042404"
         y="-39.555721" /></text>
<path
       inkscape:connector-curvature="0"
       id="path4182"
       style="font-style:normal;font-variant:normal;font-weight:normal;font-stretch:normal;font-size:8.51294422px;line-height:94.99999881%;font-family:'Kabel Bk BT';-inkscape-font-specification:'Kabel Bk BT, Normal';text-align:start;letter-spacing:0px;word-spacing:0px;writing-mode:lr-tb;text-anchor:start;fill:#b61352;fill-opacity:1;stroke:none;stroke-width:1px;stroke-linecap:butt;stroke-linejoin:miter;stroke-opacity:1"
       d="m 71.28642,4.8113348 0,5.4037242 -1.616961,0 0.128858,0.502962 3.495794,0 0,-0.502962 -1.488102,0 0,-5.3289034 -0.519589,-0.074821 z" /><path
       inkscape:connector-curvature="0"
       id="path4184"
       style="font-style:normal;font-variant:normal;font-weight:normal;font-stretch:normal;font-size:8.51294422px;line-height:94.99999881%;font-family:'Kabel Bk BT';-inkscape-font-specification:'Kabel Bk BT, Normal';text-align:start;letter-spacing:0px;word-spacing:0px;writing-mode:lr-tb;text-anchor:start;fill:#b61352;fill-opacity:1;stroke:none;stroke-width:1px;stroke-linecap:butt;stroke-linejoin:miter;stroke-opacity:1"
       d="m 73.896835,4.8861556 0,5.8318654 3.12169,0 0.120544,-0.486335 -2.730959,0 0,-2.128236 2.315288,0 0,-0.4780218 -2.315288,0 0,-2.244624 2.851504,0 -0.112231,-0.4946486 -3.250548,0 z" /><path
       inkscape:connector-curvature="0"
       id="path4186"
       style="font-style:normal;font-variant:normal;font-weight:normal;font-stretch:normal;font-size:8.51294422px;line-height:94.99999881%;font-family:'Kabel Bk BT';-inkscape-font-specification:'Kabel Bk BT, Normal';text-align:start;letter-spacing:0px;word-spacing:0px;writing-mode:lr-tb;text-anchor:start;fill:#b61352;fill-opacity:1;stroke:none;stroke-width:1px;stroke-linecap:butt;stroke-linejoin:miter;stroke-opacity:1"
       d="m 78.016135,6.1123854 q 0.261873,-0.4198279 0.611037,-0.6318201 0.35332,-0.2119923 0.793931,-0.2119923 0.565313,0 0.931104,0.3242235 0.369947,0.3242234 0.369947,0.8188721 0,0.8230287 -1.396655,1.2428566 -0.145485,0.041567 -0.220306,0.066507 -0.714954,0.216149 -1.047491,0.5860963 -0.332537,0.374104 -0.332537,0.9560435 0,0.6609171 0.494649,1.118156 0.498805,0.457238 1.25117,0.457238 0.461395,0 0.831342,-0.162112 0.369947,-0.162112 0.744051,-0.527902 l -0.34085,-0.3948881 q -0.336693,0.3200671 -0.63182,0.4530821 -0.29097,0.137171 -0.635977,0.137171 -0.490492,0 -0.835499,-0.320067 -0.34085,-0.3159099 -0.34085,-0.7689914 0,-0.2826563 0.133015,-0.4946486 0.133015,-0.2119923 0.403201,-0.3574772 0.203679,-0.1122311 0.731581,-0.2660295 0.29097,-0.083134 0.444768,-0.1330147 0.64429,-0.2203057 0.968514,-0.6068798 0.324223,-0.3865742 0.324223,-0.93526 0,-0.7232677 -0.523745,-1.2096029 -0.523746,-0.4863352 -1.330148,-0.4863352 -0.556999,0 -1.030864,0.2701862 -0.469709,0.2701862 -0.785619,0.7689915 l 0.419828,0.3075967 z" /><path
       inkscape:connector-curvature="0"
       id="path4188"
       style="font-style:normal;font-variant:normal;font-weight:normal;font-stretch:normal;font-size:8.51294422px;line-height:94.99999881%;font-family:'Kabel Bk BT';-inkscape-font-specification:'Kabel Bk BT, Normal';text-align:start;letter-spacing:0px;word-spacing:0px;writing-mode:lr-tb;text-anchor:start;fill:#b61352;fill-opacity:1;stroke:none;stroke-width:1px;stroke-linecap:butt;stroke-linejoin:miter;stroke-opacity:1"
       d="m 83.14136,4.8113348 0,5.4037242 -1.61696,0 0.128858,0.502962 3.495794,0 0,-0.502962 -1.488103,0 0,-5.3289034 -0.519589,-0.074821 z" /><path
       inkscape:connector-curvature="0"
       id="path4190"
       style="font-style:normal;font-variant:normal;font-weight:normal;font-stretch:normal;font-size:8.51294422px;line-height:94.99999881%;font-family:'Kabel Bk BT';-inkscape-font-specification:'Kabel Bk BT, Normal';text-align:start;letter-spacing:0px;word-spacing:0px;writing-mode:lr-tb;text-anchor:start;fill:#b61352;fill-opacity:1;stroke:none;stroke-width:1px;stroke-linecap:butt;stroke-linejoin:miter;stroke-opacity:1"
       d="m 88.20839,6.1123854 q 0.261873,-0.4198279 0.611037,-0.6318201 0.35332,-0.2119923 0.793931,-0.2119923 0.565313,0 0.931104,0.3242235 0.369947,0.3242234 0.369947,0.8188721 0,0.8230287 -1.396655,1.2428566 -0.145485,0.041567 -0.220306,0.066507 -0.714954,0.216149 -1.047491,0.5860963 -0.332537,0.374104 -0.332537,0.9560435 0,0.6609171 0.494649,1.118156 0.498805,0.457238 1.25117,0.457238 0.461395,0 0.831342,-0.162112 0.369947,-0.162112 0.744051,-0.527902 l -0.34085,-0.3948881 q -0.336693,0.3200671 -0.63182,0.4530821 -0.29097,0.137171 -0.635977,0.137171 -0.490492,0 -0.835499,-0.320067 -0.34085,-0.3159099 -0.34085,-0.7689914 0,-0.2826563 0.133015,-0.4946486 0.133015,-0.2119923 0.403201,-0.3574772 0.203679,-0.1122311 0.731581,-0.2660295 0.29097,-0.083134 0.444768,-0.1330147 0.64429,-0.2203057 0.968514,-0.6068798 0.324223,-0.3865742 0.324223,-0.93526 0,-0.7232677 -0.523745,-1.2096029 -0.523746,-0.4863352 -1.330148,-0.4863352 -0.556999,0 -1.030864,0.2701862 -0.469709,0.2701862 -0.785619,0.7689915 l 0.419828,0.3075967 z" /><path
       inkscape:connector-curvature="0"
       id="path4192"
       style="font-style:normal;font-variant:normal;font-weight:normal;font-stretch:normal;font-size:8.51294422px;line-height:94.99999881%;font-family:'Kabel Bk BT';-inkscape-font-specification:'Kabel Bk BT, Normal';text-align:start;letter-spacing:0px;word-spacing:0px;writing-mode:lr-tb;text-anchor:start;fill:#b61352;fill-opacity:1;stroke:none;stroke-width:1px;stroke-linecap:butt;stroke-linejoin:miter;stroke-opacity:1"
       d="m 92.25287,4.8861556 0,5.8318654 3.12169,0 0.120545,-0.486335 -2.730959,0 0,-2.128236 2.315288,0 0,-0.4780218 -2.315288,0 0,-2.244624 2.851504,0 -0.112231,-0.4946486 -3.250549,0 z" /><path
       inkscape:connector-curvature="0"
       id="path4194"
       style="font-style:normal;font-variant:normal;font-weight:normal;font-stretch:normal;font-size:8.51294422px;line-height:94.99999881%;font-family:'Kabel Bk BT';-inkscape-font-specification:'Kabel Bk BT, Normal';text-align:start;letter-spacing:0px;word-spacing:0px;writing-mode:lr-tb;text-anchor:start;fill:#b61352;fill-opacity:1;stroke:none;stroke-width:1px;stroke-linecap:butt;stroke-linejoin:miter;stroke-opacity:1"
       d="m 96.176805,4.7822378 0,5.9357832 0.9602,0 q 0.843813,0 1.350931,-0.469708 0.507119,-0.4697085 0.507119,-1.2511702 0,-0.6650737 -0.378261,-1.1181552 -0.37826,-0.4530815 -1.01008,-0.5486859 l 1.795699,-2.2321538 -0.469709,-0.2951265 -2.244624,2.9429514 0.407358,-0.00831 q 0.635977,0 0.989297,0.3283802 0.357477,0.3283801 0.357477,0.9144764 0,0.5860962 -0.357477,0.9144764 -0.35332,0.3283802 -0.989297,0.3283802 l -0.407358,0 0,-5.337217 -0.511275,-0.1039178 z" /><path
       inkscape:connector-curvature="0"
       id="path4196"
       style="font-style:normal;font-variant:normal;font-weight:normal;font-stretch:normal;font-size:8.51294422px;line-height:94.99999881%;font-family:'Kabel Bk BT';-inkscape-font-specification:'Kabel Bk BT, Normal';text-align:start;letter-spacing:0px;word-spacing:0px;writing-mode:lr-tb;text-anchor:start;fill:#b61352;fill-opacity:1;stroke:none;stroke-width:1px;stroke-linecap:butt;stroke-linejoin:miter;stroke-opacity:1"
       d="m 104.66065,10.693081 -2.79331,-5.9357834 -2.71433,5.9607234 0.511276,0.09976 2.211374,-4.8841352 2.29034,4.8841352 0.49465,-0.124701 z" /><path
       inkscape:connector-curvature="0"
       id="path4198"
       style="font-style:normal;font-variant:normal;font-weight:normal;font-stretch:normal;font-size:8.51294422px;line-height:94.99999881%;font-family:'Kabel Bk BT';-inkscape-font-specification:'Kabel Bk BT, Normal';text-align:start;letter-spacing:0px;word-spacing:0px;writing-mode:lr-tb;text-anchor:start;fill:#b61352;fill-opacity:1;stroke:none;stroke-width:1px;stroke-linecap:butt;stroke-linejoin:miter;stroke-opacity:1"
       d="m 104.98903,4.8861556 0,5.8318654 3.12169,0 0.12055,-0.486335 -2.73096,0 0,-2.128236 2.31529,0 0,-0.4780218 -2.31529,0 0,-2.244624 2.8515,0 -0.11223,-0.4946486 -3.25055,0 z" /><path
       inkscape:connector-curvature="0"
       id="path4200"
       style="font-style:normal;font-variant:normal;font-weight:normal;font-stretch:normal;font-size:8.51294422px;line-height:94.99999881%;font-family:'Kabel Bk BT';-inkscape-font-specification:'Kabel Bk BT, Normal';text-align:start;letter-spacing:0px;word-spacing:0px;writing-mode:lr-tb;text-anchor:start;fill:#b61352;fill-opacity:1;stroke:none;stroke-width:1px;stroke-linecap:butt;stroke-linejoin:miter;stroke-opacity:1"
       d="m 108.91297,4.7822378 0,5.9357832 0.9602,0 q 0.84381,0 1.35093,-0.469708 0.50712,-0.4697085 0.50712,-1.2511702 0,-0.6650737 -0.37826,-1.1181552 -0.37826,-0.4530815 -1.01008,-0.5486859 l 1.79569,-2.2321538 -0.4697,-0.2951265 -2.24463,2.9429514 0.40736,-0.00831 q 0.63598,0 0.9893,0.3283802 0.35747,0.3283801 0.35747,0.9144764 0,0.5860962 -0.35747,0.9144764 -0.35332,0.3283802 -0.9893,0.3283802 l -0.40736,0 0,-5.337217 -0.51127,-0.1039178 z" /></g></svg>