<?xml version="1.0" encoding="UTF-8" standalone="no"?>
<!-- Created with Inkscape (http://www.inkscape.org/) -->

<svg
   width="140"
   height="40"
   viewBox="0 0 37.041667 10.583333"
   version="1.1"
   id="svg1"
   inkscape:version="1.4.2 (ebf0e940, 2025-05-08)"
   sodipodi:docname="keeper-logo.svg"
   xmlns:inkscape="http://www.inkscape.org/namespaces/inkscape"
   xmlns:sodipodi="http://sodipodi.sourceforge.net/DTD/sodipodi-0.dtd"
   xmlns="http://www.w3.org/2000/svg"
   xmlns:svg="http://www.w3.org/2000/svg">
  <sodipodi:namedview
     id="namedview1"
     pagecolor="#ffffff"
     bordercolor="#000000"
     borderopacity="0.25"
     inkscape:showpageshadow="2"
     inkscape:pageopacity="0.0"
     inkscape:pagecheckerboard="0"
     inkscape:deskcolor="#d1d1d1"
     inkscape:document-units="mm"
     inkscape:zoom="16.554968"
     inkscape:cx="83.751296"
     inkscape:cy="29.14533"
     inkscape:window-width="2544"
     inkscape:window-height="1380"
     inkscape:window-x="0"
     inkscape:window-y="31"
     inkscape:window-maximized="0"
     inkscape:current-layer="layer1"
     showgrid="true"
     showguides="true">
    <inkscape:grid
       id="grid1"
       units="mm"
       originx="0"
       originy="0"
       spacingx="1"
       spacingy="0.99999997"
       empcolor="#0099e5"
       empopacity="0.30196078"
       color="#0099e5"
       opacity="0.14901961"
       empspacing="5"
       enabled="true"
       visible="true" />
    <sodipodi:guide
       position="34.462986,0.80583755"
       orientation="1,0"
       id="guide1"
       inkscape:locked="false" />
    <sodipodi:guide
       position="34.6443,0.54394034"
       orientation="0,-1"
       id="guide2"
       inkscape:locked="false" />
    <sodipodi:guide
       position="32.958757,2.6256873"
       orientation="0,-1"
       id="guide3"
       inkscape:locked="false" />
  </sodipodi:namedview>
  <defs
     id="defs1" />
  <g
     inkscape:label="Layer 1"
     inkscape:groupmode="layer"
     id="layer1">
    <path
       d="M 12.00763,7.2930311 V 3.0605719 h 0.885596 V 4.998262 l 1.539525,-1.9376901 h 0.978845 l -1.282938,1.6389636 1.43777,2.5932306 H 14.637142 L 13.518419,5.3229991 12.893226,6.0781883 V 7.2927661 H 12.00763 Z"
       fill="#235b70"
       id="path118"
       style="stroke-width:0.293243" />
    <path
       d="M 16.197194,7.2930311 V 3.0605719 h 2.901348 l -0.003,0.7199402 h -2.042467 v 1.0273771 h 1.773535 v 0.7054829 h -1.779071 v 1.0507787 l 2.079972,0.00285 v 0.7260113 z"
       fill="#235b70"
       id="path119"
       style="stroke-width:0.293243" />
    <path
       d="M 19.922259,7.2930311 V 3.0605719 h 2.901053 l -0.003,0.7199402 H 20.778168 V 4.8078892 H 22.5517 v 0.7054829 h -1.779391 v 1.0507787 l 2.080265,0.00285 v 0.7260113 h -2.930671 z"
       fill="#235b70"
       id="path120"
       style="stroke-width:0.293243" />
    <path
       d="M 23.647325,7.2930311 V 3.0605719 h 1.554187 c 0.307905,0 0.583262,0.053111 0.826947,0.1596115 0.243684,0.1064766 0.435759,0.2629512 0.576808,0.4698932 0.141341,0.206941 0.212013,0.459628 0.212013,0.7580908 0,0.2810733 -0.06247,0.5208884 -0.187087,0.7199703 C 26.50556,5.3671914 26.330791,5.5194428 26.105874,5.6246 25.880955,5.7300466 25.616744,5.782658 25.312652,5.782658 h -0.806418 v 1.5103731 z m 0.850112,-2.1717244 h 0.791755 c 0.214361,0 0.38972,-0.068882 0.526078,-0.2064135 0.136358,-0.1375302 0.204391,-0.3076408 0.204391,-0.5106527 0,-0.2029833 -0.07214,-0.3781077 -0.216121,-0.5019739 C 25.659264,3.77843 25.484199,3.7163504 25.277463,3.7163504 h -0.780026 z"
       fill="#235b70"
       id="path121"
       style="stroke-width:0.293243" />
    <path
       d="M 27.460069,7.2930311 V 3.0605719 h 2.901051 l -0.003,0.7199402 h -2.042368 v 1.0273771 h 1.77353 V 5.5133721 H 28.31018 v 1.0507787 l 2.079971,0.00285 v 0.7260325 h -2.930356 z"
       fill="#235b70"
       id="path122"
       style="stroke-width:0.293243" />
    <path
       d="M 31.184845,7.2930311 V 3.0605719 h 1.782323 c 0.336943,0 0.612592,0.053631 0.826653,0.1609014 0.214361,0.1072961 0.372129,0.2561183 0.473299,0.4462287 0.101403,0.1904026 0.151896,0.4094256 0.151896,0.6571281 0,0.2224545 -0.03458,0.4102169 -0.103525,0.5635243 -0.06949,0.1532786 -0.15982,0.2805456 -0.271837,0.3820671 -0.112018,0.1014868 -0.234014,0.184332 -0.366556,0.2487573 l 0.785889,1.7735873 h -0.885288 l -0.68678,-1.6302788 h -0.855976 v 1.6302788 h -0.850111 z m 0.850108,-2.2889915 h 0.780322 c 0.227561,0 0.408191,-0.061523 0.541913,-0.1843333 0.133419,-0.1227805 0.200287,-0.2811023 0.200287,-0.4740849 0,-0.1930131 -0.06451,-0.349224 -0.192962,-0.462533 C 33.235782,3.7700137 33.073326,3.7132127 32.876565,3.7132127 h -0.841612 z"
       fill="#235b70"
       id="path123"
       style="stroke-width:0.293243" />
    <path
       d="m 6.8506601,4.7884172 c -0.010904,0 -0.021706,-0.00265 -0.03138,-0.00786 L 2.9393858,2.7032154 c -0.021985,-0.011817 -0.035184,-0.033903 -0.035184,-0.058886 0,-0.024983 0.013199,-0.04707 0.035184,-0.058907 L 6.8195767,0.50756169 c 0.00963,-0.005206 0.020526,-0.007877 0.031379,-0.007877 0.011157,0 0.021707,0.002661 0.031658,0.007877 L 10.762514,2.5854229 c 0.02198,0.011842 0.03518,0.033926 0.03518,0.058907 0,0.024983 -0.0132,0.04707 -0.03518,0.058886 L 6.8826157,4.780548 c -0.01001,0.00522 -0.020526,0.00786 -0.031658,0.00786 z"
       fill="#235b70"
       id="path124"
       style="stroke-width:0.293243" />
    <path
       d="m 7.1397968,9.3966675 c -0.031963,0 -0.066868,-0.025491 -0.066868,-0.067052 V 5.2257126 c 0,-0.024714 0.013491,-0.047324 0.035183,-0.058886 L 11.024372,3.0702861 c 0.01003,-0.00522 0.02023,-0.0082 0.03109,-0.0082 0.03196,0 0.06687,0.025515 0.06687,0.067065 l -2.76e-4,4.1052184 c 0,0.02472 -0.01378,0.047327 -0.03518,0.058848 L 7.1708954,9.3887036 c -0.01001,0.0056 -0.020526,0.00771 -0.031088,0.00771 z"
       fill="#beb7de"
       id="path125"
       style="stroke-width:0.293243" />
    <path
       d="m 5.9111087,9.1450128 c 0,-0.039682 0.042234,-0.065173 0.077112,-0.046219 l 0.5401534,0.2889824 c 0.01001,0.0056 0.020526,0.00781 0.031379,0.00781 0.031963,0 0.066565,-0.025491 0.066565,-0.067053 l 6.011e-4,-4.1039054 c 0,-0.024696 -0.013491,-0.047325 -0.035183,-0.058886 L 2.6772194,3.0704714 c -0.01001,-0.00522 -0.020528,-0.0082 -0.031379,-0.0082 -0.031963,0 -0.066564,0.025516 -0.066564,0.067065 l -6.01e-4,4.1039033 c 0,0.02472 0.013491,0.047327 0.035183,0.058848 l 2.1497639,1.1504144 c 0.026385,0.014181 0.048965,0.035247 0.064801,0.061065 l 0.9591972,1.5482679 c 0.017016,0.0276 0.041929,0.03181 0.055432,0.03181 0.033143,0 0.068034,-0.02339 0.068034,-0.06705 V 9.1443613 Z"
       fill="#e42f6e"
       id="path126"
       style="stroke-width:0.293243" />
    <g
       id="g3"
       style="fill:#ffffff;fill-opacity:1">
      <path
         inkscape:connector-curvature="0"
         id="path4182"
         style="font-style:normal;font-variant:normal;font-weight:normal;font-stretch:normal;font-size:8.51294px;line-height:95%;font-family:'Kabel Bk BT';-inkscape-font-specification:'Kabel Bk BT, Normal';text-align:start;letter-spacing:0px;word-spacing:0px;writing-mode:lr-tb;text-anchor:start;fill:#ffffff;fill-opacity:1;stroke:none;stroke-width:0.355876px;stroke-linecap:butt;stroke-linejoin:miter;stroke-opacity:1"
         d="M 19.942379,10.066691 V 8.1436378 h -0.575438 l 0.04586,-0.1789918 h 1.244068 v 0.1789918 h -0.529581 v 1.8964272 z" />
      <path
         inkscape:connector-curvature="0"
         id="path4184"
         style="font-style:normal;font-variant:normal;font-weight:normal;font-stretch:normal;font-size:8.51294px;line-height:95%;font-family:'Kabel Bk BT';-inkscape-font-specification:'Kabel Bk BT, Normal';text-align:start;letter-spacing:0px;word-spacing:0px;writing-mode:lr-tb;text-anchor:start;fill:#ffffff;fill-opacity:1;stroke:none;stroke-width:0.355876px;stroke-linecap:butt;stroke-linejoin:miter;stroke-opacity:1"
         d="M 20.871362,10.040065 V 7.964646 h 1.110933 l 0.0429,0.1730746 h -0.971886 v 0.7573878 h 0.823956 v 0.1701155 h -0.823956 v 0.7988075 h 1.014782 l -0.03994,0.1760336 z" />
      <path
         inkscape:connector-curvature="0"
         id="path4186"
         style="font-style:normal;font-variant:normal;font-weight:normal;font-stretch:normal;font-size:8.51294px;line-height:95%;font-family:'Kabel Bk BT';-inkscape-font-specification:'Kabel Bk BT, Normal';text-align:start;letter-spacing:0px;word-spacing:0px;writing-mode:lr-tb;text-anchor:start;fill:#ffffff;fill-opacity:1;stroke:none;stroke-width:0.355876px;stroke-linecap:butt;stroke-linejoin:miter;stroke-opacity:1"
         d="m 22.337321,9.6036797 q 0.0932,0.1494062 0.217452,0.224849 0.125739,0.075441 0.282541,0.075441 0.201181,0 0.331358,-0.1153831 0.131655,-0.1153831 0.131655,-0.2914168 0,-0.2928953 -0.497036,-0.4423025 -0.05178,-0.014795 -0.0784,-0.023673 -0.254435,-0.076926 -0.372777,-0.2085772 -0.118342,-0.1331344 -0.118342,-0.3402321 0,-0.2352048 0.176034,-0.3979248 0.177513,-0.1627199 0.445261,-0.1627199 0.164199,0 0.295855,0.057697 0.131654,0.057686 0.264789,0.1878679 l -0.121301,0.140532 q -0.119821,-0.1139046 -0.224849,-0.1612414 -0.103547,-0.04882 -0.226329,-0.04882 -0.174555,0 -0.297334,0.1139036 -0.1213,0.112425 -0.1213,0.2736654 0,0.1005876 0.04734,0.1760337 0.04733,0.075441 0.143489,0.1272173 0.07248,0.039942 0.260351,0.09467 0.103547,0.029591 0.158283,0.047335 0.229286,0.0784 0.34467,0.2159739 0.115384,0.137572 0.115384,0.3328355 0,0.2573936 -0.186389,0.4304683 -0.186388,0.1730755 -0.473367,0.1730755 -0.198223,0 -0.36686,-0.096155 -0.167158,-0.096154 -0.279583,-0.273665 z" />
      <path
         inkscape:connector-curvature="0"
         id="path4188"
         style="font-style:normal;font-variant:normal;font-weight:normal;font-stretch:normal;font-size:8.51294px;line-height:95%;font-family:'Kabel Bk BT';-inkscape-font-specification:'Kabel Bk BT, Normal';text-align:start;letter-spacing:0px;word-spacing:0px;writing-mode:lr-tb;text-anchor:start;fill:#ffffff;fill-opacity:1;stroke:none;stroke-width:0.355876px;stroke-linecap:butt;stroke-linejoin:miter;stroke-opacity:1"
         d="M 24.161263,10.066691 V 8.1436378 h -0.575437 l 0.04586,-0.1789918 h 1.244068 v 0.1789918 h -0.52958 v 1.8964272 z" />
      <path
         inkscape:connector-curvature="0"
         id="path4190"
         style="font-style:normal;font-variant:normal;font-weight:normal;font-stretch:normal;font-size:8.51294px;line-height:95%;font-family:'Kabel Bk BT';-inkscape-font-specification:'Kabel Bk BT, Normal';text-align:start;letter-spacing:0px;word-spacing:0px;writing-mode:lr-tb;text-anchor:start;fill:#ffffff;fill-opacity:1;stroke:none;stroke-width:0.355876px;stroke-linecap:butt;stroke-linejoin:miter;stroke-opacity:1"
         d="m 25.964496,9.6036797 q 0.0932,0.1494062 0.217453,0.224849 0.125739,0.075441 0.282542,0.075441 0.20118,0 0.331357,-0.1153831 0.131654,-0.1153831 0.131654,-0.2914168 0,-0.2928953 -0.497036,-0.4423025 -0.05178,-0.014795 -0.0784,-0.023673 Q 26.097632,8.9542687 25.97929,8.8226171 25.860948,8.6894827 25.860948,8.482385 q 0,-0.2352048 0.176033,-0.3979248 0.177514,-0.1627199 0.445262,-0.1627199 0.164198,0 0.295854,0.057697 0.131655,0.057686 0.26479,0.1878679 l -0.121301,0.1405311 q -0.11982,-0.1139046 -0.224849,-0.1612415 -0.103546,-0.04882 -0.226328,-0.04882 -0.174554,0 -0.297334,0.1139036 -0.1213,0.112425 -0.1213,0.2736654 0,0.1005877 0.04733,0.1760338 0.04734,0.075441 0.143489,0.1272172 0.07248,0.039942 0.260352,0.094669 0.103547,0.029591 0.158282,0.047335 0.229287,0.0784 0.344671,0.2159739 0.115383,0.137572 0.115383,0.3328355 0,0.2573937 -0.186388,0.4304683 -0.186388,0.1730755 -0.473368,0.1730755 -0.198222,0 -0.366859,-0.096154 -0.167158,-0.096154 -0.279583,-0.2736649 z" />
      <path
         inkscape:connector-curvature="0"
         id="path4192"
         style="font-style:normal;font-variant:normal;font-weight:normal;font-stretch:normal;font-size:8.51294px;line-height:95%;font-family:'Kabel Bk BT';-inkscape-font-specification:'Kabel Bk BT, Normal';text-align:start;letter-spacing:0px;word-spacing:0px;writing-mode:lr-tb;text-anchor:start;fill:#ffffff;fill-opacity:1;stroke:none;stroke-width:0.355876px;stroke-linecap:butt;stroke-linejoin:miter;stroke-opacity:1"
         d="M 27.403828,10.040065 V 7.964646 h 1.110934 l 0.0429,0.1730746 H 27.58578 v 0.7573878 h 0.823954 V 9.0652239 H 27.58578 v 0.7988075 h 1.014781 l -0.03994,0.1760336 z" />
      <path
         inkscape:connector-curvature="0"
         id="path4194"
         style="font-style:normal;font-variant:normal;font-weight:normal;font-stretch:normal;font-size:8.51294px;line-height:95%;font-family:'Kabel Bk BT';-inkscape-font-specification:'Kabel Bk BT, Normal';text-align:start;letter-spacing:0px;word-spacing:0px;writing-mode:lr-tb;text-anchor:start;fill:#ffffff;fill-opacity:1;stroke:none;stroke-width:0.355876px;stroke-linecap:butt;stroke-linejoin:miter;stroke-opacity:1"
         d="m 28.800261,10.077046 v -2.1124 h 0.341712 q 0.300293,0 0.480763,0.1671575 0.180471,0.1671575 0.180471,0.4452606 0,0.2366843 -0.134614,0.3979247 -0.134612,0.1612404 -0.359461,0.1952635 l 0.639045,0.7943699 -0.167158,0.1050318 -0.798808,-1.0473241 0.14497,0.00291 q 0.226328,0 0.352066,-0.1168627 0.127217,-0.1168626 0.127217,-0.3254399 0,-0.2085772 -0.127217,-0.3254398 -0.125738,-0.1168627 -0.352066,-0.1168627 h -0.14497 v 1.8993862 l -0.18195,0.03698 z" />
      <path
         inkscape:connector-curvature="0"
         id="path4196"
         style="font-style:normal;font-variant:normal;font-weight:normal;font-stretch:normal;font-size:8.51294px;line-height:95%;font-family:'Kabel Bk BT';-inkscape-font-specification:'Kabel Bk BT, Normal';text-align:start;letter-spacing:0px;word-spacing:0px;writing-mode:lr-tb;text-anchor:start;fill:#ffffff;fill-opacity:1;stroke:none;stroke-width:0.355876px;stroke-linecap:butt;stroke-linejoin:miter;stroke-opacity:1"
         d="M 31.819455,7.9735212 30.825384,10.085922 29.85942,7.964646 30.041371,7.929148 30.828345,9.667293 31.643422,7.929148 Z" />
      <path
         inkscape:connector-curvature="0"
         id="path4198"
         style="font-style:normal;font-variant:normal;font-weight:normal;font-stretch:normal;font-size:8.51294px;line-height:95%;font-family:'Kabel Bk BT';-inkscape-font-specification:'Kabel Bk BT, Normal';text-align:start;letter-spacing:0px;word-spacing:0px;writing-mode:lr-tb;text-anchor:start;fill:#ffffff;fill-opacity:1;stroke:none;stroke-width:0.355876px;stroke-linecap:butt;stroke-linejoin:miter;stroke-opacity:1"
         d="M 31.936318,10.040065 V 7.964646 h 1.110934 l 0.0429,0.1730746 H 32.11827 v 0.7573878 h 0.823955 V 9.0652239 H 32.11827 v 0.7988075 h 1.014779 l -0.03994,0.1760336 z" />
      <path
         inkscape:connector-curvature="0"
         id="path4200"
         style="font-style:normal;font-variant:normal;font-weight:normal;font-stretch:normal;font-size:8.51294px;line-height:95%;font-family:'Kabel Bk BT';-inkscape-font-specification:'Kabel Bk BT, Normal';text-align:start;letter-spacing:0px;word-spacing:0px;writing-mode:lr-tb;text-anchor:start;fill:#ffffff;fill-opacity:1;stroke:none;stroke-width:0.355876px;stroke-linecap:butt;stroke-linejoin:miter;stroke-opacity:1"
         d="m 33.332752,10.077046 v -2.1124 h 0.341712 q 0.300292,0 0.480763,0.1671575 0.180473,0.1671575 0.180473,0.4452606 0,0.2366843 -0.134614,0.3979247 -0.134614,0.1612404 -0.359463,0.1952635 l 0.639042,0.7943699 -0.167154,0.1050318 -0.79881,-1.0473241 0.14497,0.00291 q 0.226329,0 0.352067,-0.1168627 0.127215,-0.1168626 0.127215,-0.3254399 0,-0.2085772 -0.127215,-0.3254398 Q 33.886,8.1406301 33.659671,8.1406301 h -0.14497 v 1.8993859 l -0.181949,0.03698 z" />
    </g>
  </g>
</svg>
