<?xml version="1.0" encoding="UTF-8" standalone="no"?>
<svg
   xmlns:dc="http://purl.org/dc/elements/1.1/"
   xmlns:cc="http://creativecommons.org/ns#"
   xmlns:rdf="http://www.w3.org/1999/02/22-rdf-syntax-ns#"
   xmlns:svg="http://www.w3.org/2000/svg"
   xmlns="http://www.w3.org/2000/svg"
   xmlns:sodipodi="http://sodipodi.sourceforge.net/DTD/sodipodi-0.dtd"
   xmlns:inkscape="http://www.inkscape.org/namespaces/inkscape"
   viewBox="0 0 2400.0001 1600"
   height="1600"
   width="2400"
   xml:space="preserve"
   id="svg2"
   version="1.1"
   sodipodi:docname="keeper-login-page-bakground_1600px.svg"
   inkscape:version="0.92.3 (unknown)"><sodipodi:namedview
     pagecolor="#ffffff"
     bordercolor="#666666"
     borderopacity="1"
     objecttolerance="10"
     gridtolerance="10"
     guidetolerance="10"
     inkscape:pageopacity="0"
     inkscape:pageshadow="2"
     inkscape:window-width="2556"
     inkscape:window-height="1420"
     id="namedview9524"
     showgrid="false"
     showguides="true"
     inkscape:guide-bbox="true"
     inkscape:zoom="0.27842329"
     inkscape:cx="3224.3474"
     inkscape:cy="562.16032"
     inkscape:window-x="2560"
     inkscape:window-y="18"
     inkscape:window-maximized="0"
     inkscape:current-layer="svg2"><sodipodi:guide
       position="-630.58514,1945.3088"
       orientation="0,1"
       id="guide10502"
       inkscape:locked="false" /><sodipodi:guide
       position="7.0349434e-08,1129.9008"
       orientation="1,0"
       id="guide10514"
       inkscape:locked="false" /><sodipodi:guide
       position="3158.8602,2076.3008"
       orientation="1,0"
       id="guide10522"
       inkscape:locked="false" /><sodipodi:guide
       position="2400,1752.7269"
       orientation="1,0"
       id="guide10537"
       inkscape:locked="false"
       inkscape:label=""
       inkscape:color="rgb(0,0,255)" /></sodipodi:namedview><metadata
     id="metadata8"><rdf:RDF><cc:Work
         rdf:about=""><dc:format>image/svg+xml</dc:format><dc:type
           rdf:resource="http://purl.org/dc/dcmitype/StillImage" /><dc:title></dc:title></cc:Work></rdf:RDF></metadata><defs
     id="defs6"><clipPath
       id="clipPath20"
       clipPathUnits="userSpaceOnUse"><path
         id="path18"
         d="M 0,1600 H 2400 V 0 H 0 Z"
         inkscape:connector-curvature="0" /></clipPath><clipPath
       id="clipPath28"
       clipPathUnits="userSpaceOnUse"><path
         id="path26"
         d="M -5,1616.26 H 2410.94 V -7.23828 H -5 Z"
         inkscape:connector-curvature="0" /></clipPath><clipPath
       id="clipPath132"
       clipPathUnits="userSpaceOnUse"><path
         id="path130"
         d="M 0,812.729 V 662.216 L 754.65,0 h 547.264 l 470.435,536.099 -1138.451,999.008 z"
         inkscape:connector-curvature="0" /></clipPath><clipPath
       id="clipPath156"
       clipPathUnits="userSpaceOnUse"><path
         id="path154"
         d="M 0,1600 H 2400 V 0 H 0 Z"
         inkscape:connector-curvature="0" /></clipPath></defs><path
     style="fill:#518794;fill-opacity:1;fill-rule:nonzero;stroke:none;stroke-width:1.06127477"
     d="M 0,0 V 1600 H 2400 V 0 Z"
     id="path12"
     inkscape:connector-curvature="0" /><path
     style="fill:#4b7c88;fill-opacity:1;fill-rule:nonzero;stroke:none;stroke-width:1.06060541"
     d="M 138.35547,0 0,662.93945 V 1057.1758 L 346.81641,0 Z M 540.00977,0 0,1199.2305 v 112.5859 L 737.81836,0 Z M 939.05078,0 0,1406.3887 v 48.2383 L 1134.7617,0 Z M 1332.002,0 0,1479.5664 v 31.8965 L 1539.7012,0 Z M 1758.4746,0 0,1543.1504 v 20.3086 L 1989.002,0 Z M 2237.916,0 0,1580.4004 v 18.5879 H 0.37890625 L 2400,69.21875 V 0 Z M 2400,237.59766 24.527344,1598.9883 H 53.236328 L 2400,394.08398 Z m 0,305.24218 L 98.568359,1598.9883 H 143.63086 L 2400,684.33594 Z m 0,275.7793 -2222.21094,780.36916 h 67.98633 L 2400,952 Z m 0,270.72856 -2018.43164,509.6406 H 542.1875 L 2400,1224.3594 Z m 0,266.6972 -1658.62695,242.9434 H 1310.2344 L 2400,1498.2305 Z"
     id="path70"
     inkscape:connector-curvature="0" /><g
     aria-label="d"
     transform="matrix(1.0257356,-0.26972282,0.26972282,1.0257356,431.94288,815.5394)"
     style="font-variant:normal;font-weight:300;font-stretch:normal;font-size:132.00177002px;font-family:'Univers Com 45 Light';-inkscape-font-specification:UniversCom-45Light;writing-mode:lr-tb;fill:#b61c53;fill-opacity:1;fill-rule:nonzero;stroke:none"
     id="text80"><path
       inkscape:connector-curvature="0"
       d="m 62.907094,-55.688247 v -44.602163 h 5.800859 V 0 h -5.800859 v -16.371313 q -4.060602,9.4102822 -8.830197,12.8907976 -7.283301,5.3496811 -13.7287,5.3496811 -12.826344,0 -21.33427,-10.4415463 Q 10.506,-19.013927 10.506,-36.02978 q 0,-17.015853 8.507927,-27.457399 8.507926,-10.441547 21.33427,-10.441547 6.445399,0 13.7287,5.349681 4.769595,3.480516 8.830197,12.890798 z M 24.2347,-61.166836 q -7.476663,7.541117 -7.476663,25.137056 0,17.595939 7.476663,25.137056 7.412209,7.5411166 15.662319,7.5411166 8.056749,0 15.533412,-7.5411166 7.412209,-7.541117 7.412209,-25.137056 0,-17.595939 -7.412209,-25.137056 -7.476663,-7.541117 -15.533412,-7.541117 -8.25011,0 -15.662319,7.541117 z"
       id="path4771" /></g><g
     aria-label="a"
     transform="matrix(1.0257354,-0.26972359,0.26972359,1.0257354,507.22264,795.7441)"
     style="font-variant:normal;font-weight:300;font-stretch:normal;font-size:142.10713196px;font-family:'Univers Com 45 Light';-inkscape-font-specification:UniversCom-45Light;writing-mode:lr-tb;fill:#b61c53;fill-opacity:1;fill-rule:nonzero;stroke:none"
     id="text84"><path
       inkscape:connector-curvature="0"
       d="m 47.184009,-43.853373 q -15.404191,0 -22.20424,5.481672 -6.800048,5.481671 -6.800048,16.028685 0,10.269461 5.620448,14.5715322 5.620448,4.3020714 13.322544,4.3020714 14.571532,0 20.955251,-12.3511086 6.453107,-12.351108 6.453107,-23.245063 v -4.787789 z M 70.984178,-44.33909 V 0 h -6.314331 v -21.094027 q -5.342895,15.4735789 -14.155202,19.706262 -7.008213,3.4000242 -13.947038,3.4000242 -11.587838,0 -18.24911,-6.1755541 -6.661271,-6.2449421 -6.661271,-18.3184971 0,-12.073556 8.673531,-19.289933 8.673531,-7.285766 28.379793,-7.285766 h 15.820521 v -1.248989 q 0,-10.338849 -5.898001,-17.000121 -5.828613,-6.661271 -19.289933,-6.661271 -6.661272,0 -13.600097,2.497977 -4.440848,1.595929 -11.518449,6.453107 v -6.869437 q 6.175554,-3.816354 11.518449,-5.412283 7.771484,-2.289812 14.918473,-2.289812 13.738873,0 22.620569,8.326589 7.702096,7.14699 7.702096,26.922641 z"
       id="path4768" /></g><g
     aria-label="t"
     transform="matrix(1.0257354,-0.26972359,0.26972359,1.0257354,580.10448,776.5784)"
     style="font-variant:normal;font-weight:300;font-stretch:normal;font-size:157.89685059px;font-family:'Univers Com 45 Light';-inkscape-font-specification:UniversCom-45Light;writing-mode:lr-tb;fill:#b61c53;fill-opacity:1;fill-rule:nonzero;stroke:none"
     id="text88"><path
       inkscape:connector-curvature="0"
       d="m 25.365266,-110.86703 v 24.51719 h 29.220169 v 6.013649 H 25.365266 v 51.887003 q 0,9.868553 2.544236,13.800554 5.242669,8.6349844 15.265418,8.6349844 H 54.585435 V 0 H 43.56041 Q 32.997975,0 25.59656,-6.1678457 18.195145,-12.335691 18.195145,-28.449188 V -80.336191 H 7.8640033 V -86.34984 H 18.195145 v -24.51719 z"
       id="path4765" /></g><g
     aria-label="a"
     transform="matrix(1.0257355,-0.2697233,0.2697233,1.0257355,634.0354,762.398)"
     style="font-variant:normal;font-weight:300;font-stretch:normal;font-size:227.37149048px;font-family:'Univers Com 45 Light';-inkscape-font-specification:UniversCom-45Light;writing-mode:lr-tb;fill:#b61c53;fill-opacity:1;fill-rule:nonzero;stroke:none"
     id="text92"><path
       inkscape:connector-curvature="0"
       d="m 75.49444,-70.165421 q -24.646714,0 -35.526795,8.770678 -10.880081,8.770677 -10.880081,25.645905 0,16.431143 8.99272,23.31446 8.99272,6.8833162 21.316077,6.8833162 23.31446,0 33.528413,-19.7617802 10.324976,-19.76178 10.324976,-37.192114 v -7.660465 z m 38.08028,-0.777149 V 0 H 103.47179 V -33.750456 Q 94.923156,-8.9927201 80.82346,-2.2204247 69.610315,3.2196158 58.508191,3.2196158 q -18.540546,0 -29.198585,-9.8808899 -10.658038,-9.9919109 -10.658038,-29.3096059 0,-19.317695 13.877654,-30.863904 13.877654,-11.65723 45.407685,-11.65723 h 25.312843 v -1.998382 q 0,-16.542164 -9.436806,-27.200204 -9.325784,-10.65804 -30.863903,-10.65804 -10.658039,0 -21.760163,3.99677 -7.105359,2.55349 -18.429525,10.32497 v -10.9911 q 9.88089,-6.10617 18.429525,-8.65966 12.434379,-3.6637 23.869566,-3.6637 21.982205,0 36.192926,13.32255 12.32335,11.43519 12.32335,43.07624 z"
       id="path4762" /></g><g
     aria-label="!"
     transform="matrix(1.0257355,-0.26972346,0.26972346,1.0257355,750.64877,731.7339)"
     style="font-variant:normal;font-weight:300;font-stretch:normal;font-size:246.31904602px;font-family:'Univers Com 45 Light';-inkscape-font-specification:UniversCom-45Light;writing-mode:lr-tb;fill:#b61c53;fill-opacity:1;fill-rule:nonzero;stroke:none"
     id="text96"><path
       inkscape:connector-curvature="0"
       d="M 43.538816,-15.39494 H 55.205294 V 0 H 43.538816 Z m 0,-164.17261 h 11.666478 v 78.7788 l -2.405459,42.937451 h -6.735287 l -2.525732,-42.937451 z"
       id="path4759" /></g><g
     aria-label="K"
     transform="matrix(0.88714485,-0.5812555,0.5812555,0.88714485,403.66755,704.8748)"
     style="font-variant:normal;font-weight:300;font-stretch:normal;font-size:53.68501282px;font-family:'Univers Com 45 Light';-inkscape-font-specification:UniversCom-45Light;writing-mode:lr-tb;fill:#b61c53;fill-opacity:1;fill-rule:nonzero;stroke:none"
     id="text100"><path
       inkscape:connector-curvature="0"
       d="m 9.2795383,-39.136584 h 2.5951247 v 16.855207 l 17.929956,-16.855207 h 3.48638 L 13.840667,-20.813428 34.575455,0 H 31.141502 L 11.874663,-19.319265 V 0 H 9.2795383 Z"
       id="path4756" /></g><g
     aria-label="e"
     transform="matrix(0.88714518,-0.58125506,0.58125506,0.88714518,432.76718,685.8125)"
     style="font-variant:normal;font-weight:300;font-stretch:normal;font-size:78.94850159px;font-family:'Univers Com 45 Light';-inkscape-font-specification:UniversCom-45Light;writing-mode:lr-tb;fill:#b61c53;fill-opacity:1;fill-rule:nonzero;stroke:none"
     id="text104"><path
       inkscape:connector-curvature="0"
       d="m 42.596726,-23.360738 v 2.235846 H 9.8300136 q 0,10.40825 4.0476524,14.5715496 4.471693,4.6258887 13.29943,4.6258887 2.312945,0 6.129303,-1.0022759 3.854907,-1.0022759 7.632717,-3.0068276 v 3.73926 q -3.816359,1.6190611 -7.825462,2.46714071 -4.009104,0.84807959 -6.360597,0.84807959 -9.98421,0 -15.034139,-5.3968702 -5.4739682,-5.7438119 -5.4739682,-16.8459449 0,-11.526173 5.0113792,-17.192887 5.127027,-5.898008 14.263157,-5.898008 8.480796,0 12.798293,5.589616 4.278947,5.859459 4.278947,15.265433 z m -3.585064,-0.770982 q 0,-9.097581 -4.086202,-13.260881 -3.430867,-3.700711 -9.328876,-3.700711 -6.437695,0 -10.79374,3.854907 -4.009104,3.585064 -4.8186341,13.106685 z"
       id="path4753" /></g><g
     aria-label="e"
     transform="matrix(0.88714518,-0.58125499,0.58125499,0.88714518,471.70954,660.2938)"
     style="font-variant:normal;font-weight:300;font-stretch:normal;font-size:85.26446533px;font-family:'Univers Com 45 Light';-inkscape-font-specification:UniversCom-45Light;writing-mode:lr-tb;fill:#b61c53;fill-opacity:1;fill-rule:nonzero;stroke:none"
     id="text108"><path
       inkscape:connector-curvature="0"
       d="m 46.004509,-25.229622 v 2.414716 H 10.616425 q 0,11.240921 4.371469,15.7372892 4.829433,4.9959648 14.363399,4.9959648 2.497982,0 6.619653,-1.082459 4.163304,-1.0824591 8.243342,-3.2473771 v 4.0384048 q -4.121671,1.7485877 -8.451507,2.66451458 -4.329836,0.91592692 -6.869451,0.91592692 -10.782958,0 -16.236886,-5.8286256 -5.9118916,-6.2033226 -5.9118916,-18.1936386 0,-12.448279 5.4122956,-18.568335 5.537194,-6.369856 15.404224,-6.369856 9.159269,0 13.822169,6.036791 4.621268,6.328222 4.621268,16.486684 z m -3.871873,-0.832661 q 0,-9.825397 -4.413102,-14.321766 -3.705341,-3.996771 -10.075196,-3.996771 -6.952717,0 -11.657251,4.163304 -4.329836,3.871872 -5.20413,14.155233 z"
       id="path4750" /></g><g
     aria-label="p"
     transform="matrix(0.8871451,-0.58125513,0.58125513,0.8871451,513.76477,632.7393)"
     style="font-variant:normal;font-weight:300;font-stretch:normal;font-size:97.89616394px;font-family:'Univers Com 45 Light';-inkscape-font-specification:UniversCom-45Light;writing-mode:lr-tb;fill:#b61c53;fill-opacity:1;fill-rule:nonzero;stroke:none"
     id="text112"><path
       inkscape:connector-curvature="0"
       d="m 15.487479,-12.141419 v 32.504586 h -4.302077 v -73.900132 h 4.302077 v 12.237021 q 3.011454,-6.978926 6.548718,-9.560172 5.401497,-3.967472 10.181584,-3.967472 9.512371,0 15.822085,7.74374 6.309713,7.743739 6.309713,20.363167 0,12.619427 -6.309713,20.3631664 -6.309714,7.7437396 -15.822085,7.7437396 -4.780087,0 -10.181584,-3.9674715 -3.537264,-2.5812465 -6.548718,-9.5601725 z m 28.680517,4.0630734 q 5.5449,-5.5927004 5.5449,-18.6423354 0,-13.049636 -5.5449,-18.642336 -5.497099,-5.592701 -11.615609,-5.592701 -5.975108,0 -11.520008,5.592701 -5.497099,5.5927 -5.497099,18.642336 0,13.049635 5.497099,18.6423354 5.5449,5.5927008 11.520008,5.5927008 6.11851,0 11.615609,-5.5927008 z"
       id="path4747" /></g><g
     aria-label="e"
     transform="matrix(0.88714493,-0.58125545,0.58125545,0.88714493,562.05276,601.1012)"
     style="font-variant:normal;font-weight:300;font-stretch:normal;font-size:116.21225739px;font-family:'Univers Com 45 Light';-inkscape-font-specification:UniversCom-45Light;writing-mode:lr-tb;fill:#d08594;fill-opacity:1;fill-rule:nonzero;stroke:none"
     id="text116"><path
       inkscape:connector-curvature="0"
       d="m 62.702414,-34.387025 v 3.291167 H 14.469788 q 0,15.320952 5.958148,21.4493327 6.582335,6.809312 19.576772,6.809312 3.404656,0 9.022338,-1.4753509 5.674427,-1.475351 11.235365,-4.4260528 v 5.5041938 q -5.617683,2.38325921 -11.519086,3.63163306 -5.901404,1.24837384 -9.362804,1.24837384 -14.696765,0 -22.130264,-7.9441973 -8.0576859,-8.4548954 -8.0576859,-24.7972444 0,-16.966536 7.3767549,-25.307943 7.546987,-8.681872 20.995378,-8.681872 12.483739,0 18.839097,8.227918 6.298613,8.625129 6.298613,22.47073 z m -5.277217,-1.134886 q 0,-13.391647 -6.014892,-19.520027 -5.050239,-5.44745 -13.732112,-5.44745 -9.476293,0 -15.888395,5.674427 -5.901403,5.277217 -7.093033,19.29305 z"
       id="path4744" /></g><g
     aria-label="r"
     transform="matrix(0.8871451,-0.58125515,0.58125515,0.8871451,619.37371,563.5545)"
     style="font-variant:normal;font-weight:300;font-stretch:normal;font-size:125.68605804px;font-family:'Univers Com 45 Light';-inkscape-font-specification:UniversCom-45Light;writing-mode:lr-tb;fill:#d08594;fill-opacity:1;fill-rule:nonzero;stroke:none"
     id="text120"><path
       inkscape:connector-curvature="0"
       d="m 51.550922,-63.886321 q -1.350143,-0.675072 -3.682208,-1.166033 -2.086585,-0.368221 -5.277833,-0.368221 -10.432925,0 -17.306381,7.732638 -5.400573,6.259755 -5.400573,21.479551 V 0 h -5.523313 v -68.734563 h 5.523313 v 12.887731 q 2.761657,-5.523314 7.732638,-9.328263 6.873457,-5.216462 16.201719,-5.216462 2.393436,0 4.17317,0.184111 1.841104,0 3.559468,0.429591 z"
       id="path4741" /></g><g
     aria-label="y"
     transform="matrix(0.8871451,-0.5812551,0.5812551,0.8871451,687.49979,518.9185)"
     style="font-variant:normal;font-weight:300;font-stretch:normal;font-size:132.00202942px;font-family:'Univers Com 45 Light';-inkscape-font-specification:UniversCom-45Light;writing-mode:lr-tb;fill:#b61c53;fill-opacity:1;fill-rule:nonzero;stroke:none"
     id="text124"><path
       inkscape:connector-curvature="0"
       d="M 39.317011,6.7032281 Q 35.449764,16.306891 31.00243,19.980776 25.008197,24.943743 19.271781,24.943743 h -8.830214 v -5.027421 h 7.541131 q 4.705151,0 8.250127,-3.029344 4.576242,-3.931701 7.541132,-11.5372864 L 35.900943,0 7.0899528,-72.18861 H 13.406456 L 39.059194,-7.8634021 64.776387,-72.18861 h 6.252049 z"
       id="path4738" /></g><g
     id="g126"
     transform="matrix(1.0606055,0,0,-1.0606055,1.4284978,1599.9994)"><g
       id="g128"
       clip-path="url(#clipPath132)"><g
         id="g134"
         transform="translate(319.2524,899.46)"><path
           inkscape:connector-curvature="0"
           d="m 0,0 c 16.484,-28.398 48.524,-95.405 66.29,-210.729 2.183,-14.176 -0.94,-24.505 -5.761,-19.189 C 43.305,-210.92 7.668,-155.721 -7.552,-14.512 -9.16,0.403 -4.953,8.533 0,0"
           style="fill:#f5e5c3;fill-opacity:1;fill-rule:nonzero;stroke:none"
           id="path136" /></g><g
         id="g138"
         transform="translate(618.9849,784.918)"><path
           inkscape:connector-curvature="0"
           d="M 0,0 -9.474,-18.435 -159.87,-78.084 Z"
           style="fill:#332717;fill-opacity:1;fill-rule:nonzero;stroke:none"
           id="path140" /></g><g
         id="g142"
         transform="translate(635.9849,668.499)"><path
           inkscape:connector-curvature="0"
           d="M 0,0 -20.274,17.312 -221.487,30.146 Z"
           style="fill:#332717;fill-opacity:1;fill-rule:nonzero;stroke:none"
           id="path144" /></g><g
         id="g146"
         transform="translate(592.3462,700.4814)"><path
           inkscape:connector-curvature="0"
           d="M 0,0 -16.675,10.321 -163.609,-2.743 Z"
           style="fill:#332717;fill-opacity:1;fill-rule:nonzero;stroke:none"
           id="path148" /></g></g></g><g
     id="g150"
     transform="matrix(1.0606055,0,0,-1.0606055,1.4284978,1599.9994)"><g
       id="g152"
       clip-path="url(#clipPath156)"><g
         id="g158"
         transform="translate(885.9736,923.1558)"><path
           inkscape:connector-curvature="0"
           d="M 0,0 C -0.003,0.004 -0.013,0.015 -0.013,0.021 -0.013,0.015 -0.003,0.004 0,0 m 0.235,-1.506 c -0.003,-0.025 -0.006,-0.055 -0.009,-0.06 0.003,0.005 0.006,0.035 0.009,0.06 m 73.313,-147.441 v 0 c -14.747,0 -29.48,-0.557 -44.186,-0.397 -7.354,0.05 -14.695,-0.538 -22.01,-0.585 -7.316,-0.045 -14.625,-0.098 -21.836,-0.503 -3.605,-0.206 -7.187,-0.474 -10.702,-0.869 -3.5,-0.411 -6.969,-0.97 -10.126,-1.862 -1.56,-0.457 -3.058,-0.992 -4.283,-1.632 -1.231,-0.626 -2.131,-1.405 -2.422,-1.858 -0.15,-0.228 -0.191,-0.333 -0.238,-0.48 -0.026,-0.155 -0.076,-0.389 -0.029,-0.82 0.063,-0.849 0.452,-2.253 1.114,-3.707 1.318,-2.952 3.379,-6.107 5.579,-9.14 2.216,-3.052 4.622,-6.05 7.104,-9.021 2.455,-2.998 5.036,-5.886 7.593,-8.846 l 7.75,-8.824 11.038,-12.524 -14.297,5.571 c -4.35,0 -8.671,1.182 -12.972,1.753 -4.304,0.526 -8.593,0.712 -12.84,0.905 -4.243,0.186 -8.453,0.139 -12.548,-0.289 -4.092,-0.417 -8.061,-1.237 -11.737,-2.569 -0.939,-0.287 -1.796,-0.734 -2.701,-1.088 -0.843,-0.45 -1.737,-0.816 -2.535,-1.336 -1.659,-0.927 -3.157,-2.073 -4.561,-3.314 -2.772,-2.527 -5.017,-5.653 -6.617,-9.379 -1.629,-3.704 -2.612,-7.959 -3.189,-12.394 -0.527,-4.474 -0.601,-9.135 -0.401,-13.853 0.452,-9.474 2.114,-19.109 4.277,-28.627 2.137,-9.556 4.922,-18.988 7.918,-28.373 3.018,-9.38 6.365,-18.655 9.859,-27.887 3.523,-9.222 7.207,-18.363 10.974,-27.514 l 7.415,-17.925 -12.959,12.811 h -0.004 c -6.188,4.52 -12.309,10.666 -18.398,16.137 -6.092,5.469 -12.162,10.871 -18.17,16.445 l -36.001,33.347 c -6.012,5.49 -12.061,10.885 -18.203,16.007 -3.072,2.546 -6.173,5.018 -9.313,7.294 -3.14,2.27 -6.341,4.376 -9.507,5.912 -1.565,0.757 -3.141,1.378 -4.544,1.677 -1.414,0.309 -2.596,0.272 -3.278,-0.018 -0.677,-0.275 -1.191,-0.733 -1.832,-1.888 -0.61,-1.131 -1.126,-2.791 -1.474,-4.598 -0.718,-3.647 -0.944,-7.835 -1.002,-12.042 -0.046,-4.215 0.054,-8.53 0.207,-12.864 l 0.361,-12.864 -7.064,9.566 v 0.011 c -3.93,2.905 -5.788,5.838 -8.843,8.519 -3.037,2.702 -5.917,5.222 -9.06,7.348 -1.567,1.087 -3.16,1.995 -4.734,2.861 -1.592,0.757 -3.172,1.535 -4.741,1.966 -3.139,1.016 -6.135,1.181 -8.965,0.519 -2.821,-0.715 -5.581,-2.275 -8.133,-4.698 -2.58,-2.36 -4.923,-5.464 -7.087,-8.81 -4.28,-6.801 -7.815,-14.688 -10.924,-22.836 -1.552,-4.095 -3.004,-8.26 -4.374,-12.49 -1.366,-4.221 -2.718,-8.477 -3.973,-12.781 -1.259,-4.297 -2.472,-8.627 -3.646,-12.988 l -3.456,-13.108 c -2.218,-8.775 -4.4,-17.603 -6.51,-26.45 l -6.385,-26.603 -3.978,-16.263 -3.466,16.08 v 0.02 c -3.931,9.154 -4.806,18.351 -7.2,27.553 l -6.881,27.603 c -2.357,9.189 -4.702,18.363 -7.116,27.49 -2.443,9.115 -4.949,18.184 -7.628,27.138 -2.684,8.936 -5.628,17.741 -8.934,26.196 -1.662,4.216 -3.436,8.338 -5.404,12.227 -1.971,3.883 -4.109,7.571 -6.512,10.704 -2.395,3.129 -5.024,5.68 -7.711,7.108 -2.692,1.42 -5.395,1.8 -8.511,1.084 -3.103,-0.716 -6.351,-2.486 -9.566,-4.78 -3.253,-2.284 -6.244,-5.109 -9.422,-8.02 l -7.413,-7.04 1.885,10.033 v 0.005 c 0,3.822 -1.102,7.606 -1.547,11.249 -0.434,3.628 -1.617,7.203 -2.6,10.067 -0.475,1.418 -1.078,2.61 -1.65,3.345 -0.598,0.731 -1.024,0.995 -1.673,1.192 -1.283,0.431 -4.054,-0.15 -6.756,-1.456 -2.742,-1.281 -5.559,-3.064 -8.33,-5.004 -2.787,-1.959 -5.533,-4.095 -8.267,-6.306 -5.466,-4.439 -10.871,-9.125 -16.253,-13.897 -10.765,-9.561 -21.486,-19.319 -32.402,-28.84 -10.897,-9.555 -21.907,-18.908 -33.212,-27.864 l -12.069,-9.631 6.829,14.858 v 0.006 l 3.857,13.122 c 1.299,4.35 2.37,8.679 3.461,12.992 1.081,4.314 2.018,8.614 2.563,12.769 0.561,4.111 0.675,8.196 0.007,11.132 -0.321,1.473 -0.805,2.548 -1.411,3.372 -0.619,0.806 -1.432,1.481 -2.624,2.046 -2.379,1.13 -5.91,1.468 -9.515,1.272 -3.641,-0.189 -7.459,-0.831 -11.284,-1.696 -3.831,-0.875 -7.693,-1.934 -11.549,-3.131 -7.722,-2.382 -15.407,-5.33 -23.1,-8.302 -7.692,-3.008 -15.332,-6.3 -22.999,-9.54 -7.65,-3.278 -15.293,-6.665 -22.944,-10.029 l -22.98,-10.148 -17.955,-7.989 13.862,14.461 h 0.009 c 6.277,9.033 12.514,16.488 18.666,24.675 3.077,4.086 6.079,8.484 9.1,12.616 3.01,4.138 5.973,8.32 8.875,12.527 2.89,4.236 5.774,8.451 8.558,12.75 2.784,4.284 5.52,8.609 8.142,12.996 5.251,8.75 10.157,17.726 14.281,26.956 2.038,4.622 3.908,9.295 5.404,14.015 1.498,4.716 2.664,9.474 3.252,14.124 0.596,4.649 0.537,9.169 -0.28,13.219 -0.828,4.056 -2.441,7.645 -4.898,10.775 -2.439,3.141 -5.68,5.832 -9.374,8.024 -3.683,2.231 -7.795,3.973 -12.055,5.441 -4.269,1.452 -8.706,2.639 -13.229,3.61 -4.522,0.996 -9.122,1.807 -13.774,2.594 l -15.547,2.626 14.118,5.411 c 5.764,4.089 11.618,7.909 17.41,11.743 5.789,3.828 11.567,7.617 17.03,11.589 2.714,1.994 5.374,4.013 7.723,6.134 1.18,1.049 2.278,2.126 3.202,3.186 0.91,1.051 1.674,2.092 2.028,2.837 0.179,0.357 0.264,0.622 0.274,0.712 -0.008,0.03 -0.011,0.039 -0.034,0.094 -0.083,0.178 -0.261,0.486 -0.552,0.86 -0.568,0.748 -1.528,1.663 -2.626,2.528 -1.107,0.882 -2.364,1.743 -3.686,2.57 -2.664,1.638 -5.572,3.154 -8.548,4.605 -2.982,1.443 -6.047,2.797 -9.136,4.14 -6.2,2.652 -12.516,5.192 -18.858,7.703 l -19.079,7.58 c -6.368,2.549 -12.737,5.144 -19.071,7.892 l -11.232,4.868 11.608,3.324 c 7.854,2.256 15.674,4.498 23.352,7.014 7.647,2.562 15.229,5.36 22.119,9.03 3.425,1.833 6.683,3.92 9.303,6.317 2.637,2.408 4.419,5.076 4.87,7.606 0.262,1.281 0.262,2.641 -0.019,4.177 -0.271,1.527 -0.84,3.191 -1.605,4.86 -1.545,3.349 -3.831,6.721 -6.383,9.891 -5.129,6.375 -11.207,12.294 -17.475,17.884 -6.297,5.597 -12.817,11.058 -19.463,16.289 -6.618,5.289 -13.371,10.532 -20.123,15.667 l -20.354,15.583 -16.204,9.489 18.656,-2.258 c 7.801,-0.835 15.587,-1.767 23.36,-2.75 l 23.287,-2.964 c 7.754,-0.952 15.491,-1.94 23.21,-2.792 7.713,-0.843 15.417,-1.582 23.026,-1.981 3.801,-0.189 7.582,-0.274 11.278,-0.185 3.685,0.094 7.328,0.388 10.6,1.08 1.615,0.35 3.155,0.803 4.383,1.377 1.245,0.561 2.108,1.252 2.473,1.729 0.341,0.487 0.452,0.689 0.559,1.583 0.074,0.877 -0.071,2.3 -0.451,3.88 -0.796,3.21 -2.358,6.875 -4.128,10.454 -1.789,3.596 -3.815,7.208 -5.923,10.799 -2.108,3.603 -4.326,7.179 -6.541,10.795 -2.224,3.612 -4.481,7.226 -6.681,10.923 l -0.003,0.007 -10.736,11.825 14.8,-5.076 10.013,-3.434 9.986,-3.404 c 6.652,-2.231 13.301,-4.363 19.942,-6.281 6.638,-1.88 13.294,-3.577 19.84,-4.596 3.261,-0.514 6.507,-0.838 9.613,-0.856 3.105,-0.033 6.079,0.304 8.576,1.103 2.486,0.85 4.257,2.103 5.446,3.837 1.205,1.725 2.02,4.309 2.341,7.471 0.344,3.124 0.221,6.684 -0.113,10.28 -0.343,3.618 -0.965,7.318 -1.664,11.042 -1.435,7.448 -3.37,14.971 -5.408,22.478 -1.006,3.768 -2.127,7.527 -3.209,11.286 l -3.332,11.343 -6.243,13.481 12.104,-8.504 c 3.363,-2.392 6.676,-4.827 10.027,-7.137 3.348,-2.317 6.706,-4.578 10.09,-6.698 6.759,-4.196 13.678,-7.991 20.561,-10.189 3.423,-1.121 6.82,-1.699 9.96,-1.665 3.126,0.12 5.948,0.845 8.354,2.494 1.217,0.803 2.353,1.813 3.425,3.008 1.051,1.231 2.025,2.642 2.929,4.19 0.902,1.554 1.697,3.274 2.453,5.049 0.71,1.825 1.401,3.682 1.969,5.655 2.372,7.834 3.701,16.488 4.65,25.213 0.928,8.76 1.415,17.694 1.711,26.663 0.149,4.491 0.254,8.989 0.299,13.507 l 0.066,13.55 c -0.027,9.053 -0.132,18.136 -0.223,27.227 l -2.131,17.477 8.999,-15.069 12.968,-21.716 c 2.187,-3.587 4.355,-7.177 6.565,-10.715 2.191,-3.56 4.425,-7.067 6.683,-10.542 4.506,-6.953 9.163,-13.719 14.066,-20.036 2.461,-3.142 4.974,-6.178 7.589,-8.96 2.618,-2.758 5.305,-5.351 8.073,-7.389 2.76,-2.029 5.572,-3.581 8.16,-4.158 2.604,-0.592 4.869,-0.363 7.206,0.806 1.164,0.591 2.331,1.408 3.506,2.401 1.163,1.013 2.291,2.249 3.401,3.573 2.219,2.716 4.237,5.928 6.158,9.342 3.82,6.873 7.029,14.565 10.113,22.383 1.551,3.916 2.928,7.904 4.401,11.91 l 4.23,12.095 5.015,14.71 1.143,-14.904 v -0.006 l 4.261,-12.125 c 1.182,-4.028 3.089,-8.019 4.361,-11.98 2.558,-7.906 5.299,-15.686 8.523,-22.93 1.612,-3.608 3.347,-7.092 5.273,-10.218 1.925,-3.113 4.026,-5.92 6.274,-7.93 2.264,-1.994 4.523,-3.163 6.895,-3.414 2.379,-0.255 5.063,0.353 7.854,1.737 2.792,1.36 5.611,3.371 8.339,5.719 2.74,2.337 5.39,4.996 7.968,7.814 5.187,5.649 10.05,11.903 14.811,18.348 4.761,6.448 9.286,13.142 13.861,19.881 l 13.445,20.45 9.073,14.08 -3.174,-16.855 v -0.003 c 0,-4.553 0.283,-9.088 0.205,-13.609 -0.118,-4.517 0.389,-9.03 0.391,-13.511 0.019,-8.964 0.239,-17.896 1.231,-26.447 0.485,-4.265 1.211,-8.421 2.211,-12.275 1.037,-3.817 2.429,-7.315 4.208,-9.82 1.79,-2.522 3.804,-3.961 6.434,-4.578 2.627,-0.635 5.868,-0.399 9.207,0.519 3.355,0.883 6.811,2.307 10.217,4.05 3.422,1.721 6.834,3.715 10.19,5.866 6.729,4.293 13.329,9.211 19.827,14.285 3.236,2.572 6.539,5.153 9.748,7.807 3.21,2.646 6.506,5.361 9.704,8.059 6.37,5.427 12.929,10.971 19.301,16.476 l 14.237,11.894 -7.05,-16.886 v -0.009 c -3.93,-9.189 -6.261,-18.21 -8.767,-27.253 -2.548,-9.017 -5.899,-18.02 -7.842,-26.965 -0.962,-4.469 -1.805,-8.926 -2.436,-13.315 -0.6,-4.39 -1.055,-8.711 -1.084,-12.821 -0.051,-4.076 0.298,-7.951 1.19,-10.992 0.88,-3.08 2.138,-5.133 3.946,-6.712 1.811,-1.592 4.514,-2.73 7.747,-3.338 3.21,-0.662 6.883,-0.654 10.627,-0.468 3.752,0.23 7.63,0.812 11.541,1.543 3.911,0.769 7.86,1.685 11.814,2.739 3.964,1.02 7.922,2.212 11.909,3.429 3.972,1.216 7.952,2.519 11.947,3.845 7.974,2.652 15.969,5.496 24.075,8.155 l 17.357,5.688 -13.207,-12.449 -0.006,-0.01 L 1.61,150.308 c -5.205,-7.253 -10.404,-14.471 -15.423,-21.811 -5.033,-7.318 -9.913,-14.733 -14.462,-22.28 -4.504,-7.557 -8.738,-15.294 -11.905,-23.174 -1.575,-3.925 -2.834,-7.902 -3.551,-11.698 -0.702,-3.791 -0.745,-7.345 0.01,-10.141 0.732,-2.798 2.24,-5.121 4.684,-7.229 2.44,-2.084 5.649,-3.776 9.116,-5.072 3.484,-1.306 7.231,-2.3 11.061,-3.062 3.845,-0.77 7.779,-1.368 11.764,-1.809 7.961,-0.913 16.09,-1.386 24.274,-1.866 L 32.968,41.14 19.209,33.983 h -0.006 c -2.707,0 -5.468,-4.342 -8.21,-6.577 L 2.708,21.058 C -2.812,16.717 -8.344,12.45 -13.67,8.091 c -2.655,-2.173 -5.258,-4.383 -7.691,-6.617 -2.39,-2.233 -4.736,-4.584 -6.176,-6.688 -0.268,-0.372 -0.493,-0.743 -0.663,-1.058 0.333,-0.287 0.784,-0.634 1.294,-0.95 1.044,-0.672 2.341,-1.32 3.699,-1.933 2.744,-1.239 5.798,-2.29 8.899,-3.264 3.106,-1.001 6.298,-1.884 9.511,-2.762 6.429,-1.764 12.971,-3.356 19.512,-5.032 6.552,-1.653 13.122,-3.284 19.684,-5.054 6.567,-1.771 13.128,-3.486 19.656,-5.534 l 15.607,-4.647 -15.238,-2.842 h -0.006 l -10.996,-5.13 c -3.665,-1.521 -7.297,-3.618 -10.911,-5.199 -7.208,-3.235 -14.337,-6.62 -21.064,-10.48 -3.348,-1.932 -6.597,-4.001 -9.562,-6.26 -2.933,-2.263 -5.635,-4.765 -7.382,-7.362 -0.871,-1.279 -1.479,-2.539 -1.778,-3.683 -0.295,-1.147 -0.36,-2.184 -0.181,-3.387 0.337,-2.409 1.963,-5.466 4.181,-8.312 2.217,-2.875 4.967,-5.596 7.87,-8.192 2.91,-2.596 6.029,-5.033 9.217,-7.416 6.39,-4.737 13.088,-9.174 19.891,-13.462 l 10.271,-6.332 10.372,-6.163 20.868,-12.274 16.652,-9.584 z m 18.749,11.28 -11.515,6.841 -11.411,7.033 c -7.549,4.761 -14.986,9.693 -22.085,14.947 -3.538,2.648 -7.003,5.352 -10.232,8.235 -3.224,2.884 -6.278,5.906 -8.739,9.101 -2.463,3.157 -4.266,6.551 -4.642,9.224 -0.198,1.339 -0.123,2.489 0.2,3.763 0.336,1.27 1.009,2.671 1.976,4.091 1.94,2.881 4.941,5.66 8.197,8.175 3.288,2.505 6.897,4.804 10.617,6.949 7.468,4.288 15.385,8.045 23.389,11.641 4.014,1.752 8.044,4.077 12.116,5.77 l 12.207,5.695 h 0.01 l 16.917,3.155 -17.328,5.162 c -7.25,2.272 -14.536,4.177 -21.825,6.145 -7.286,1.966 -14.582,3.774 -21.858,5.612 -7.262,1.861 -14.526,3.628 -21.667,5.588 -3.568,0.974 -7.11,1.953 -10.56,3.066 -3.441,1.08 -6.835,2.248 -9.878,3.624 -1.513,0.68 -2.949,1.4 -4.108,2.147 -0.569,0.349 -1.069,0.735 -1.438,1.055 0.19,0.347 0.438,0.761 0.735,1.172 1.6,2.336 4.204,4.947 6.854,7.427 2.705,2.481 5.595,4.938 8.544,7.351 5.914,4.836 12.054,9.577 18.184,14.395 l 9.2,7.052 c 3.047,2.481 6.11,7.301 9.117,7.301 h 0.01 l 15.275,7.949 -17.531,1.136 c -9.089,0.533 -18.115,1.058 -26.956,2.073 -4.425,0.49 -8.795,1.155 -13.063,2.01 -4.255,0.845 -8.412,1.947 -12.279,3.398 -3.851,1.438 -7.413,3.319 -10.125,5.631 -2.712,2.342 -4.388,4.922 -5.201,8.028 -0.836,3.107 -0.791,7.05 -0.01,11.262 0.796,4.213 2.195,8.629 3.942,12.989 3.516,8.75 8.219,17.341 13.223,25.731 5.048,8.38 10.467,16.615 16.051,24.74 5.574,8.151 11.345,16.164 17.129,24.217 l 17.488,24.088 0.01,0.01 14.666,13.823 -19.275,-6.318 c -9.003,-2.949 -17.879,-6.109 -26.736,-9.052 -4.432,-1.474 -8.853,-2.92 -13.263,-4.27 -4.424,-1.352 -8.823,-2.675 -13.222,-3.807 -4.393,-1.168 -8.779,-2.188 -13.118,-3.042 -4.345,-0.811 -8.649,-1.458 -12.817,-1.713 -4.157,-0.207 -8.236,-0.217 -11.801,0.52 -3.59,0.674 -6.59,1.937 -8.6,3.706 -2.008,1.754 -3.405,4.031 -4.384,7.451 -0.99,3.378 -1.376,7.681 -1.321,12.207 0.035,4.564 0.539,9.363 1.205,14.238 0.701,4.874 1.638,9.821 2.704,14.783 2.158,9.933 5.878,19.931 8.71,29.942 2.781,10.041 5.37,20.059 9.734,30.262 v 0.009 l 7.826,18.751 -15.807,-13.207 c -7.074,-6.113 -14.359,-12.27 -21.431,-18.293 -3.55,-2.999 -7.211,-6.014 -10.776,-8.95 -3.562,-2.948 -7.231,-5.814 -10.824,-8.669 -7.216,-5.634 -14.542,-11.095 -22.017,-15.862 -3.724,-2.389 -7.514,-4.603 -11.313,-6.516 -3.782,-1.932 -7.621,-3.514 -11.345,-4.494 -3.709,-1.021 -7.306,-1.282 -10.223,-0.578 -2.922,0.685 -5.158,2.284 -7.142,5.083 -1.979,2.782 -3.523,6.668 -4.675,10.904 -1.112,4.28 -1.916,8.895 -2.454,13.631 -1.102,9.495 -1.347,19.412 -1.368,29.366 -0.005,4.976 -0.566,9.987 -0.436,15.002 0.088,5.02 -0.226,10.057 -0.226,15.112 v 0.005 l 3.523,18.715 -10.073,-15.635 -14.931,-22.707 c -5.079,-7.485 -10.103,-14.917 -15.39,-22.078 -5.286,-7.155 -10.686,-14.099 -16.446,-20.37 -2.863,-3.13 -5.805,-6.084 -8.847,-8.679 -3.028,-2.607 -6.16,-4.839 -9.26,-6.348 -3.098,-1.54 -6.079,-2.214 -8.722,-1.932 -2.633,0.281 -5.142,1.577 -7.655,3.792 -2.498,2.234 -4.83,5.349 -6.968,8.808 -2.136,3.468 -4.064,7.337 -5.855,11.343 -3.579,8.044 -6.623,16.683 -9.462,25.462 -1.415,4.399 -3.53,8.83 -4.843,13.302 l -4.732,13.465 v 0.006 l -1.269,16.55 -5.568,-16.336 -4.697,-13.43 c -1.637,-4.446 -3.166,-8.876 -4.888,-13.225 -3.424,-8.679 -6.987,-17.221 -11.228,-24.853 -2.133,-3.791 -4.374,-7.357 -6.839,-10.374 -1.231,-1.469 -2.484,-2.842 -3.776,-3.967 -1.303,-1.103 -2.601,-2.009 -3.893,-2.666 -2.595,-1.296 -5.11,-1.552 -8.001,-0.894 -2.872,0.64 -5.995,2.364 -9.061,4.616 -3.073,2.264 -6.058,5.143 -8.965,8.206 -2.902,3.09 -5.694,6.459 -8.427,9.949 -5.443,7.014 -10.614,14.528 -15.618,22.247 -2.506,3.859 -4.988,7.753 -7.422,11.705 -2.452,3.93 -4.86,7.916 -7.288,11.898 l -14.399,24.114 -9.992,16.732 2.366,-19.407 c 0.101,-10.094 0.216,-20.179 0.247,-30.231 l -0.072,-15.047 c -0.051,-5.015 -0.166,-10.011 -0.334,-14.997 -0.328,-9.959 -0.868,-19.878 -1.9,-29.607 -1.053,-9.688 -2.529,-19.298 -5.163,-27.996 -0.63,-2.189 -1.398,-4.252 -2.185,-6.28 -0.84,-1.97 -1.724,-3.878 -2.725,-5.605 -1.002,-1.717 -2.084,-3.285 -3.252,-4.653 -1.19,-1.326 -2.451,-2.45 -3.803,-3.339 -2.672,-1.833 -5.806,-2.637 -9.277,-2.773 -3.485,-0.034 -7.258,0.608 -11.06,1.851 -7.643,2.441 -15.324,6.652 -22.83,11.315 -3.756,2.351 -7.486,4.865 -11.202,7.436 -3.723,2.567 -7.401,5.27 -11.136,7.926 l -13.439,9.442 6.932,-14.967 3.699,-12.598 c 1.202,-4.174 2.447,-8.349 3.564,-12.529 2.262,-8.338 4.411,-16.69 6.005,-24.963 0.776,-4.134 1.466,-8.242 1.846,-12.259 0.371,-3.993 0.508,-7.946 0.128,-11.414 -0.358,-3.512 -1.262,-6.382 -2.6,-8.299 -1.321,-1.925 -3.286,-3.314 -6.048,-4.259 -2.772,-0.887 -6.075,-1.259 -9.523,-1.223 -3.448,0.019 -7.051,0.379 -10.674,0.95 -7.269,1.13 -14.66,3.014 -22.029,5.103 -7.375,2.13 -14.759,4.497 -22.145,6.974 l -11.087,3.781 -11.118,3.812 -16.436,5.636 11.923,-13.132 0.002,-0.005 c 2.444,-4.104 4.95,-8.12 7.419,-12.131 2.459,-4.013 4.922,-7.984 7.264,-11.986 2.339,-3.987 4.591,-7.999 6.577,-11.99 1.965,-3.975 3.699,-8.043 4.582,-11.61 0.422,-1.754 0.584,-3.334 0.503,-4.304 -0.119,-0.997 -0.243,-1.221 -0.622,-1.76 -0.406,-0.53 -1.364,-1.297 -2.746,-1.921 -1.363,-0.634 -3.073,-1.139 -4.868,-1.527 -3.631,-0.768 -7.676,-1.098 -11.768,-1.201 -4.105,-0.097 -8.304,-0.005 -12.524,0.207 -8.449,0.441 -17.004,1.263 -25.569,2.199 -8.571,0.946 -17.16,2.042 -25.771,3.1 l -25.856,3.292 c -8.633,1.092 -17.278,2.126 -25.94,3.051 l -20.715,2.509 17.993,-10.536 22.599,-17.306 c 7.499,-5.701 14.997,-11.521 22.345,-17.392 7.379,-5.81 14.621,-11.875 21.612,-18.089 6.961,-6.207 13.708,-12.779 19.403,-19.86 2.835,-3.52 5.372,-7.263 7.088,-10.983 0.85,-1.852 1.482,-3.699 1.783,-5.394 0.312,-1.704 0.312,-3.219 0.021,-4.638 -0.501,-2.81 -2.48,-5.771 -5.408,-8.446 -2.908,-2.664 -6.527,-4.98 -10.33,-7.014 -7.651,-4.077 -16.07,-7.184 -24.561,-10.026 -8.526,-2.795 -17.207,-5.285 -25.93,-7.789 l -12.889,-3.692 12.472,-5.408 c 7.033,-3.046 14.104,-5.931 21.177,-8.758 l 21.186,-8.421 c 7.041,-2.786 14.052,-5.607 20.937,-8.553 3.431,-1.488 6.834,-2.995 10.146,-4.597 3.303,-1.611 6.534,-3.293 9.492,-5.115 1.467,-0.913 2.864,-1.871 4.093,-2.851 1.219,-0.961 2.283,-1.979 2.915,-2.809 0.324,-0.411 0.52,-0.757 0.613,-0.953 0.026,-0.059 0.029,-0.074 0.038,-0.101 -0.011,-0.105 -0.107,-0.398 -0.305,-0.798 -0.393,-0.826 -1.242,-1.982 -2.251,-3.148 -1.028,-1.175 -2.247,-2.37 -3.555,-3.533 -2.609,-2.359 -5.564,-4.599 -8.577,-6.816 -6.065,-4.41 -12.481,-8.615 -18.909,-12.866 -6.432,-4.257 -12.934,-8.498 -19.331,-13.041 l -15.679,-6.009 17.265,-2.916 c 5.166,-0.872 10.272,-1.77 15.294,-2.878 5.022,-1.081 9.95,-2.396 14.689,-4.01 4.731,-1.629 9.297,-3.563 13.386,-6.041 4.104,-2.433 7.702,-5.421 10.409,-8.91 2.728,-3.474 4.519,-7.458 5.437,-11.961 0.908,-4.501 0.972,-9.516 0.314,-14.681 -0.655,-5.163 -1.949,-10.445 -3.612,-15.682 -1.662,-5.241 -3.738,-10.429 -6.002,-15.564 -4.579,-10.252 -10.026,-20.216 -15.856,-29.933 -2.911,-4.871 -5.951,-9.673 -9.041,-14.43 -3.09,-4.77 -6.293,-9.454 -9.502,-14.156 -3.223,-4.675 -6.515,-9.318 -9.855,-13.914 -3.355,-4.583 -6.688,-9.47 -10.106,-14.003 -6.831,-9.095 -13.756,-17.374 -20.726,-27.402 h -0.01 l -15.392,-16.058 19.938,8.875 25.516,11.265 c 8.496,3.736 16.981,7.497 25.478,11.14 8.513,3.594 16.995,7.249 25.536,10.591 8.543,3.302 17.077,6.574 25.65,9.218 4.283,1.329 8.571,2.505 12.825,3.475 4.247,0.961 8.487,1.678 12.529,1.884 4.002,0.215 7.924,-0.158 10.566,-1.41 1.322,-0.631 2.225,-1.382 2.913,-2.277 0.673,-0.91 1.209,-2.105 1.568,-3.738 0.741,-3.263 0.614,-7.799 -0.008,-12.365 -0.606,-4.615 -1.647,-9.385 -2.848,-14.175 -1.211,-4.792 -2.4,-9.6 -3.842,-14.43 l -4.283,-14.569 v -0.01 l -7.583,-16.493 13.403,10.694 c 12.552,9.946 24.778,20.329 36.878,30.937 12.12,10.571 24.026,21.407 35.977,32.027 5.978,5.297 11.979,10.499 18.049,15.427 3.035,2.455 6.083,4.831 9.179,7.005 3.076,2.156 6.205,4.135 9.249,5.555 3.001,1.451 6.077,2.097 7.502,1.616 0.721,-0.215 1.193,-0.508 1.859,-1.322 0.634,-0.817 1.304,-2.138 1.832,-3.713 1.092,-3.183 2.404,-7.152 2.886,-11.179 0.494,-4.047 1.718,-8.249 1.718,-12.488 v -0.009 l -2.093,-11.14 8.231,7.815 c 3.53,3.237 6.849,6.368 10.46,8.906 3.572,2.547 7.179,4.516 10.623,5.309 3.46,0.794 6.462,0.373 9.451,-1.205 2.984,-1.583 5.902,-4.417 8.563,-7.892 2.668,-3.479 5.043,-7.575 7.23,-11.888 2.186,-4.317 4.156,-8.89 6.002,-13.575 3.67,-9.386 6.939,-19.161 9.919,-29.083 2.974,-9.948 5.758,-20.015 8.47,-30.138 2.681,-10.135 5.285,-20.325 7.903,-30.527 l 7.637,-30.649 c 2.661,-10.219 3.632,-20.427 7.997,-30.594 v -0.022 l 3.851,-17.854 4.416,18.059 7.088,29.54 c 2.344,9.822 4.766,19.623 7.228,29.367 l 3.838,14.557 c 1.303,4.839 2.653,9.647 4.05,14.421 1.393,4.782 2.895,9.504 4.411,14.194 1.521,4.696 3.134,9.32 4.855,13.865 3.454,9.051 7.379,17.805 12.132,25.36 2.404,3.712 5.005,7.161 7.869,9.781 2.834,2.69 5.898,4.424 9.032,5.218 3.141,0.734 6.469,0.55 9.953,-0.577 1.744,-0.481 3.497,-1.34 5.265,-2.185 1.748,-0.961 3.517,-1.971 5.257,-3.175 3.489,-2.358 6.687,-5.162 10.06,-8.16 3.392,-2.976 5.454,-6.231 9.821,-9.461 v -0.011 l 7.842,-10.62 -0.4,14.285 c -0.171,4.81 -0.282,9.601 -0.23,14.281 0.062,4.673 0.315,9.327 1.112,13.373 0.387,2.01 0.96,3.85 1.637,5.104 0.711,1.283 1.282,1.79 2.033,2.097 0.76,0.323 2.071,0.362 3.642,0.02 1.558,-0.334 3.306,-1.023 5.046,-1.861 3.514,-1.706 7.067,-4.047 10.556,-6.565 3.484,-2.529 6.928,-5.272 10.34,-8.103 6.82,-5.682 13.538,-11.675 20.212,-17.768 l 39.974,-37.031 c 6.672,-6.193 13.412,-12.188 20.176,-18.258 6.762,-6.075 13.56,-12.901 20.431,-17.92 h 0.004 l 14.39,-14.229 -8.233,19.907 c -4.183,10.16 -8.274,20.311 -12.186,30.55 -3.879,10.253 -7.596,20.55 -10.949,30.966 -3.323,10.42 -6.419,20.893 -8.79,31.505 -2.404,10.57 -4.249,21.268 -4.75,31.788 -0.223,5.242 -0.142,10.414 0.444,15.382 0.642,4.925 1.732,9.647 3.543,13.761 1.774,4.138 4.268,7.61 7.347,10.418 1.557,1.374 3.222,2.648 5.063,3.677 0.886,0.578 1.88,0.987 2.817,1.486 1.002,0.388 1.958,0.886 2.998,1.209 4.081,1.479 8.489,2.386 13.033,2.851 4.546,0.477 9.222,0.526 13.932,0.32 4.715,-0.215 9.477,-0.421 14.258,-1.006 4.778,-0.634 9.575,-1.946 14.405,-1.946 l 15.875,-6.186 -12.256,13.905 -8.609,9.798 c -2.838,3.289 -5.702,6.496 -8.429,9.824 -2.753,3.298 -5.428,6.629 -7.886,10.016 -2.443,3.367 -4.733,6.872 -6.199,10.151 -0.732,1.611 -1.162,3.174 -1.234,4.118 -0.053,0.48 0.002,0.738 0.032,0.907 0.052,0.164 0.098,0.28 0.264,0.536 0.324,0.503 1.323,1.364 2.688,2.062 1.362,0.71 3.024,1.305 4.759,1.813 3.504,0.991 7.354,1.611 11.244,2.068 3.903,0.437 7.881,0.735 11.884,0.963 8.008,0.452 16.12,0.507 24.244,0.555 8.123,0.056 16.274,0.706 24.439,0.65 16.328,-0.176 32.687,0.445 49.061,0.445 h 0.007 l 20.335,-2.868 -18.487,10.646 z"
           style="fill:#f7e5c3;fill-opacity:1;fill-rule:nonzero;stroke:none"
           id="path160" /></g><g
         id="g162"
         transform="translate(108.2046,565.0674)"><path
           inkscape:connector-curvature="0"
           d="m 0,0 -22.329,40.371 c 0,0 5.761,34.197 16.329,8.458 l 1.302,-15.117 z"
           style="fill:#f7e5c3;fill-opacity:1;fill-rule:nonzero;stroke:none"
           id="path164" /></g><g
         id="g166"
         transform="translate(172.7139,619.9297)"><path
           inkscape:connector-curvature="0"
           d="m 0,0 c 0.182,-2.702 -4.877,-6.2 -11.673,-6.664 l -68.033,-4.621 c -6.796,-0.46 -12.282,2.319 -12.465,5.023 l -1.236,18.148 92.174,6.261 z m 218.587,33.084 -75.44,239.595 -290.21,-217.407 14.886,-46.021 32.188,2.186 1.234,-18.149 c 0.472,-6.969 9.036,-11.867 19.496,-11.156 l 68.031,4.621 C -0.766,-12.536 7.055,-6.521 6.583,0.445 L 5.349,18.597 Z"
           style="fill:#bc5527;fill-opacity:1;fill-rule:nonzero;stroke:none"
           id="path168" /></g><g
         id="g170"
         transform="translate(104.0146,591.3252)"><path
           inkscape:connector-curvature="0"
           d="m 0,0 -1.889,27.798 c -0.328,4.827 3.355,9.048 8.181,9.372 4.83,0.328 9.047,-3.352 9.374,-8.179 -0.327,4.827 3.356,9.045 8.183,9.373 3.047,0.209 5.846,-1.184 7.583,-3.45 1.417,2.481 4.002,4.237 7.047,4.444 4.829,0.329 9.046,-3.354 9.376,-8.181 -0.33,4.827 3.354,9.048 8.182,9.375 4.828,0.329 9.047,-3.354 9.374,-8.185 L 67.299,4.572 c 0,0 0.258,-25.423 -4.07,-30.681 -4.327,-5.252 -58.43,-3.968 -58.43,-3.968 z"
           style="fill:#f7e5c3;fill-opacity:1;fill-rule:nonzero;stroke:none"
           id="path172" /></g><g
         id="g174"
         transform="translate(168.1699,552.2363)"><path
           inkscape:connector-curvature="0"
           d="m 0,0 -59.524,-4.043 c -0.602,-0.042 -1.132,0.419 -1.173,1.026 l -0.759,11.151 c -0.04,0.605 0.421,1.133 1.026,1.176 l 59.522,4.04 c 0.605,0.043 1.134,-0.42 1.174,-1.024 L 1.025,1.176 C 1.066,0.57 0.604,0.044 0,0"
           style="fill:#fffbdf;fill-opacity:1;fill-rule:nonzero;stroke:none"
           id="path176" /></g><g
         id="g178"
         transform="translate(1.7793,365.2119)"><path
           inkscape:connector-curvature="0"
           d="M 0,0 171.599,182.8 95.815,195.155 -42.752,47.546 Z"
           style="fill:#30281a;fill-opacity:1;fill-rule:nonzero;stroke:none"
           id="path180" /></g><g
         id="g182"
         transform="translate(318.8652,889.3027)"><path
           inkscape:connector-curvature="0"
           d="M 0,0 C 17.748,-28.789 52.568,-96.913 74.006,-215.165 76.644,-229.703 73.708,-240.427 68.6,-235.083 50.347,-215.995 12.146,-160.131 -7.379,-15.15 -9.443,0.164 -5.334,8.652 0,0"
           style="fill:#f7e5c3;fill-opacity:1;fill-rule:nonzero;stroke:none"
           id="path184" /></g><g
         id="g186"
         transform="translate(40.563,628.9824)"><path
           inkscape:connector-curvature="0"
           d="m 0,0 -6.442,-2.063 c -0.578,-0.189 -1.202,0.133 -1.386,0.71 l -14.175,44.214 c -0.184,0.577 0.135,1.202 0.714,1.387 l 6.441,2.064 c 0.579,0.184 1.202,-0.136 1.386,-0.712 L 0.713,1.388 C 0.898,0.809 0.578,0.185 0,0"
           style="fill:#f7e5c3;fill-opacity:1;fill-rule:nonzero;stroke:none"
           id="path188" /></g></g></g><g
     aria-label="u"
     transform="matrix(0.88713885,-0.58125133,0.58125716,0.88714765,819.26762,432.58828)"
     style="font-variant:normal;font-weight:300;font-stretch:normal;font-size:181.89692688px;font-family:'Univers Com 45 Light';-inkscape-font-specification:UniversCom-45Light;writing-mode:lr-tb;fill:#b61c53;fill-opacity:1;fill-rule:nonzero;stroke:none"
     id="text192"><path
       inkscape:connector-curvature="0"
       d="m 19.539709,-39.434685 v -60.040197 h 8.171151 v 59.507296 q 0,19.362075 6.21718,27.266775 6.21718,7.9047006 18.296273,7.9047006 14.121881,0 24.158186,-8.5264186 10.125121,-8.615235 10.125121,-29.931281 v -56.221072 h 8.171152 V 0 H 86.50762 v -18.65154 q -4.352026,9.0593192 -11.457374,13.8554296 -10.48039,7.1941656 -23.1812,7.1941656 -14.743599,0 -23.536468,-10.0363051 -8.792869,-9.9474881 -8.792869,-31.7964351 z"
       id="path4735" /></g><g
     aria-label="o"
     transform="matrix(0.88714485,-0.58125546,0.58125546,0.88714485,746.05253,480.5486)"
     style="font-variant:normal;font-weight:300;font-stretch:normal;font-size:148.42333984px;font-family:'Univers Com 45 Light';-inkscape-font-specification:UniversCom-45Light;writing-mode:lr-tb;fill:#b61c53;fill-opacity:1;fill-rule:nonzero;stroke:none"
     id="text196"><path
       inkscape:connector-curvature="0"
       d="m 65.080156,-67.254326 q -7.174761,-10.001182 -19.56753,-10.001182 -12.392769,0 -19.56753,9.92871 -7.247234,9.856237 -7.247234,26.669819 0,17.248415 7.174761,27.104653 7.174761,9.9287093 19.640003,9.9287093 12.392769,0 19.56753,-9.9287093 7.247233,-10.001183 7.247233,-27.104653 0,-16.596165 -7.247233,-26.597347 z M 45.440153,-83.125767 q 15.50908,0 24.495649,11.595573 9.059042,11.668046 9.059042,30.945687 0,19.929892 -9.059042,31.4529929 -8.986569,11.5955735 -24.495649,11.5955735 -15.654024,0 -24.713066,-11.5231011 -8.986569,-11.5231013 -8.986569,-31.5254653 0,-19.495058 9.059042,-31.018159 9.059042,-11.523101 24.640593,-11.523101 z"
       id="path4732" /></g><g
     aria-label="r"
     transform="matrix(0.88714502,-0.58125529,0.58125529,0.88714502,908.98537,373.79543)"
     style="font-variant:normal;font-weight:300;font-stretch:normal;font-size:217.2664032px;font-family:'Univers Com 45 Light';-inkscape-font-specification:UniversCom-45Light;writing-mode:lr-tb;fill:#b61c53;fill-opacity:1;fill-rule:nonzero;stroke:none"
     id="text200"><path
       inkscape:connector-curvature="0"
       d="m 89.113173,-110.43668 q -2.333916,-1.16696 -6.365226,-2.01566 -3.606962,-0.63652 -9.123492,-0.63652 -18.034809,0 -29.916565,13.366976 -9.335666,10.820885 -9.335666,37.130489 V 0 h -9.54784 v -118.81756 h 9.54784 v 22.278289 q 4.77392,-9.547839 13.366976,-16.125239 11.881756,-9.01741 28.006997,-9.01741 4.137398,0 7.213924,0.31827 3.182613,0 6.153052,0.7426 z"
       id="path4729" /></g></svg>