<?xml version="1.0" encoding="UTF-8" standalone="no"?>
<svg
   xmlns:dc="http://purl.org/dc/elements/1.1/"
   xmlns:cc="http://creativecommons.org/ns#"
   xmlns:rdf="http://www.w3.org/1999/02/22-rdf-syntax-ns#"
   xmlns:svg="http://www.w3.org/2000/svg"
   xmlns="http://www.w3.org/2000/svg"
   xmlns:sodipodi="http://sodipodi.sourceforge.net/DTD/sodipodi-0.dtd"
   xmlns:inkscape="http://www.inkscape.org/namespaces/inkscape"
   viewBox="0 0 140 39.999999"
   height="40"
   width="140"
   xml:space="preserve"
   version="1.1"
   id="svg2"
   inkscape:version="0.91 r"
   sodipodi:docname="KeeperLogo.svg"><sodipodi:namedview
     pagecolor="#ffffff"
     bordercolor="#666666"
     borderopacity="1"
     objecttolerance="10"
     gridtolerance="10"
     guidetolerance="10"
     inkscape:pageopacity="0"
     inkscape:pageshadow="2"
     inkscape:window-width="1916"
     inkscape:window-height="1060"
     id="namedview4210"
     showgrid="false"
     showguides="true"
     inkscape:guide-bbox="true"
     inkscape:zoom="2.048615"
     inkscape:cx="43.171966"
     inkscape:cy="157.90613"
     inkscape:window-x="1920"
     inkscape:window-y="18"
     inkscape:window-maximized="0"
     inkscape:current-layer="g10"><sodipodi:guide
       position="496.11655,47.676789"
       orientation="1,0"
       id="guide4850" /><sodipodi:guide
       position="112.02977,26.083266"
       orientation="0,1"
       id="guide4852" /><sodipodi:guide
       position="402.04576,38.376608"
       orientation="1,0"
       id="guide4854" /></sodipodi:namedview><metadata
     id="metadata8"><rdf:RDF><cc:Work
         rdf:about=""><dc:format>image/svg+xml</dc:format><dc:type
           rdf:resource="http://purl.org/dc/dcmitype/StillImage" /><dc:title /></cc:Work></rdf:RDF></metadata><defs
     id="defs6" /><g
     transform="matrix(1.25,0,0,-1.25,0,40.000002)"
     id="g10"><g
       id="g4224"
       transform="matrix(0.29636937,0,0,0.29636937,-5.6556777,2.3266561)"><path
         id="path14"
         style="fill:#1d3155;fill-opacity:1;fill-rule:nonzero;stroke:none"
         d="m 114.071,37.6574 -18.7448,-11.2246 0,44.2399 18.4778,8.1933 0.267,-41.2086 z m -61.323,36.2438 14.4114,5.982 39.3506,0 -13.7791,-5.982 -39.9829,0 z m -6.3515,-48.925 0,45.0293 44.8351,0 0.2696,-45.0293 -45.1047,0 z M 117.58,83.7199 66.5074,83.6957 42.5844,73.6672 l 0,-52.5035 51.359,0 23.6126,14.1363 0.342,0.2031 -0.318,48.2168"
         inkscape:connector-curvature="0" /><path
         id="path16"
         style="fill:#b61352;fill-opacity:1;fill-rule:nonzero;stroke:none"
         d="m 36.4598,17.6559 0,45.7211 28.4601,0 -0.0152,-45.7211 -28.4449,0 z m -1.8602,47.5808 0,-49.4398 32.1649,0 0.0152,49.4398 -32.1801,0"
         inkscape:connector-curvature="0" /><path
         id="path18"
         style="fill:#b61352;fill-opacity:1;fill-rule:nonzero;stroke:none"
         d="m 30.7992,11.0031 0,47.2254 47.1891,0 -0.0246,-47.2254 -47.1645,0 z m -2.325,49.661 0,-52.09808 51.8125,0 0.0281,52.09808 -51.8406,0"
         inkscape:connector-curvature="0" /><path
         id="path20"
         style="fill:#b61352;fill-opacity:1;fill-rule:nonzero;stroke:none"
         d="m 92.0797,83.7301 -40.7664,0 15.964,6.7293 41.3147,0.0199 -16.5123,-6.7492 z m -25.0746,8.5164 -24.5262,-10.3043 49.9531,0 25.262,10.3301 -50.6889,-0.0258"
         inkscape:connector-curvature="0" /><path
         id="path22"
         style="fill:#b61352;fill-opacity:1;fill-rule:nonzero;stroke:none"
         d="m 102.716,67.3035 0,-48.2176 19.776,11.8856 0,44.9359 -19.776,-8.6039 z m -1.86,-51.5066 0,52.7254 23.496,10.2222 0,-48.8246 -0.225,-0.1344 -23.271,-13.9886"
         inkscape:connector-curvature="0" /><path
         id="path24"
         style="fill:#b61352;fill-opacity:1;fill-rule:nonzero;stroke:none"
         d="m 85.2961,18.1211 -63.8453,0 0.0039,29.6512 63.8711,0 -0.0297,-29.6512 z m -66.2109,31.9762 -0.002,-34.3004 68.5785,0 0.0352,34.3004 -68.6117,0"
         inkscape:connector-curvature="0" /><path
         id="path26"
         style="fill:#656263;fill-opacity:1;fill-rule:nonzero;stroke:none"
         d="m 167.401,83.6969 6.411,0 -17.166,-24.1285 18.752,-24.1981 -7.032,0 -17.993,23.9223 0,0.2758 17.028,24.1285 z m -18.82,-48.3266 -5.516,0 0,48.3266 5.516,0 0,-48.3266"
         inkscape:connector-curvature="0" /><path
         id="path28"
         style="fill:#656263;fill-opacity:1;fill-rule:nonzero;stroke:none"
         d="m 189.811,35.3703 0,48.3266 25.645,0 0,-4.8946 -20.13,0 0,-16.4765 17.717,0 0,-4.8949 -17.717,0 0,-17.1661 21.095,0 0,-4.8945 -26.61,0"
         inkscape:connector-curvature="0" /><path
         id="path30"
         style="fill:#656263;fill-opacity:1;fill-rule:nonzero;stroke:none"
         d="m 233.04,35.3703 0,48.3266 25.646,0 0,-4.8946 -20.131,0 0,-16.4765 17.717,0 0,-4.8949 -17.717,0 0,-17.1661 21.095,0 0,-4.8945 -26.61,0"
         inkscape:connector-curvature="0" /><path
         id="path32"
         style="fill:#656263;fill-opacity:1;fill-rule:nonzero;stroke:none"
         d="m 281.715,78.8023 0,-19.5097 7.377,0 c 7.997,0 10.961,3.5164 10.961,9.9273 0,6.8942 -3.861,9.5824 -11.168,9.5824 l -7.17,0 z m 24.06,-8.9617 c 0,-9.6515 -5.585,-15.3734 -16.683,-15.3734 l -7.377,0 0,-19.0969 -5.515,0 0,48.3266 13.926,0 c 9.582,0 15.649,-4.1364 15.649,-13.8563"
         inkscape:connector-curvature="0" /><path
         id="path34"
         style="fill:#656263;fill-opacity:1;fill-rule:nonzero;stroke:none"
         d="m 321.705,35.3703 0,48.3266 25.646,0 0,-4.8946 -20.131,0 0,-16.4765 17.717,0 0,-4.8949 -17.717,0 0,-17.1661 21.095,0 0,-4.8945 -26.61,0"
         inkscape:connector-curvature="0" /><path
         id="path36"
         style="fill:#656263;fill-opacity:1;fill-rule:nonzero;stroke:none"
         d="m 370.38,60.1891 6.205,0 c 6.686,0 10.893,2.6199 10.893,9.3066 0,6.7559 -3.93,9.3066 -11.238,9.3066 l -5.86,0 0,-18.6132 z m 6.618,23.5078 c 10.065,0 16.132,-3.9293 16.132,-13.5809 0,-7.9277 -5.102,-12.5476 -10.893,-13.1676 l 0,-0.2754 c 1.931,-0.8964 3.655,-2.4824 5.861,-6.205 l 8.892,-15.0977 -6.549,0 -8.755,15.4426 c -1.861,3.1715 -3.999,4.6187 -7.514,4.6187 l -3.792,0 0,-20.0613 -5.515,0 0,48.3266 12.133,0"
         inkscape:connector-curvature="0" /></g></g></svg>