<?xml version="1.0" encoding="UTF-8" standalone="no"?>
<svg
   xmlns:dc="http://purl.org/dc/elements/1.1/"
   xmlns:cc="http://creativecommons.org/ns#"
   xmlns:rdf="http://www.w3.org/1999/02/22-rdf-syntax-ns#"
   xmlns:svg="http://www.w3.org/2000/svg"
   xmlns="http://www.w3.org/2000/svg"
   id="svg34"
   version="1.1"
   viewBox="0 0 87.312498 26.600002"
   height="26.6mm"
   width="87.3125mm">
  <defs
     id="defs28" />
  <metadata
     id="metadata31">
    <rdf:RDF>
      <cc:Work
         rdf:about="">
        <dc:format>image/svg+xml</dc:format>
        <dc:type
           rdf:resource="http://purl.org/dc/dcmitype/StillImage" />
        <dc:title></dc:title>
      </cc:Work>
    </rdf:RDF>
  </metadata>
  <g
     transform="translate(0,-270.39999)"
     id="layer1">
    <g
       transform="translate(0.04210106,15.83723)"
       id="g4710">
      <rect
         style="fill:#f6f1f1;fill-opacity:1;stroke:none;stroke-width:0.36749077;stroke-miterlimit:4;stroke-dasharray:none;stroke-opacity:1"
         id="rect4670"
         width="87.372978"
         height="26.583597"
         x="-0.042101055"
         y="254.5414" />
      <path
         d="m 52.432642,262.93197 -2.112931,1.26526 v -4.98677 l 2.082835,-0.92356 z m -6.912385,-4.08543 1.624466,-0.6743 h 4.435636 l -1.553192,0.6743 z m -0.715946,5.51487 v -5.07574 h 5.053853 l 0.03039,5.07574 z m 8.023868,-6.62164 -5.756949,0.002 -2.696624,1.13042 v 5.91824 h 5.789234 l 2.661634,-1.59345 0.03855,-0.0229 -0.03585,-5.43504"
         style="fill:#1d3155;fill-opacity:1;fill-rule:nonzero;stroke:none;stroke-width:0.38033929"
         id="path14" />
      <path
         d="m 43.684236,265.18656 v -5.15372 h 3.208049 l -0.0017,5.15372 H 43.68424 Z m -0.209684,-5.36334 v 5.5729 h 3.625658 l 0.0017,-5.5729 h -3.627362"
         style="fill:#b61352;fill-opacity:1;fill-rule:nonzero;stroke:none;stroke-width:0.38033929"
         id="path16" />
      <path
         d="m 43.046167,265.93647 v -5.32328 h 5.3192 l -0.0028,5.32328 h -5.31643 z m -0.262075,-5.59783 v 5.87254 h 5.840353 l 0.0032,-5.87254 h -5.843527"
         style="fill:#b61352;fill-opacity:1;fill-rule:nonzero;stroke:none;stroke-width:0.38033929"
         id="path18" />
      <path
         d="m 49.953762,257.73862 h -4.595226 l 1.799476,-0.75853 4.657032,-0.002 -1.861282,0.76077 z m -2.826432,-0.95998 -2.764616,1.16152 h 5.63076 l 2.847557,-1.16443 -5.713701,0.003"
         style="fill:#b61352;fill-opacity:1;fill-rule:nonzero;stroke:none;stroke-width:0.38033929"
         id="path20" />
      <path
         d="m 51.152696,259.59024 v 5.43513 l 2.229169,-1.33976 v -5.06522 z m -0.209662,5.80588 v -5.94326 l 2.648493,-1.15226 v 5.50356 l -0.02536,0.0152 -2.62313,1.57681"
         style="fill:#b61352;fill-opacity:1;fill-rule:nonzero;stroke:none;stroke-width:0.38033929"
         id="path22" />
      <path
         d="m 49.18911,265.13412 h -7.196702 l 4.39e-4,-3.34231 h 7.199609 z m -7.463355,-3.60438 -2.25e-4,3.86638 h 7.730232 l 0.004,-3.86638 h -7.733975"
         style="fill:#b61352;fill-opacity:1;fill-rule:nonzero;stroke:none;stroke-width:0.38033929"
         id="path24" />
      <path
         d="m 58.444049,257.74236 h 0.722655 l -1.934968,2.71979 2.113742,2.72763 h -0.792653 l -2.028187,-2.69655 v -0.031 l 1.919411,-2.71979 z m -2.121407,5.44742 h -0.62177 v -5.44742 h 0.62177 v 5.44742"
         style="fill:#656263;fill-opacity:1;fill-rule:nonzero;stroke:none;stroke-width:0.38033929"
         id="path26" />
      <path
         d="m 60.970126,263.18978 v -5.44742 h 2.890727 v 0.55172 h -2.269072 v 1.85725 h 1.997077 v 0.55175 h -1.997077 v 1.93499 h 2.377849 v 0.55171 h -2.999504"
         style="fill:#656263;fill-opacity:1;fill-rule:nonzero;stroke:none;stroke-width:0.38033929"
         id="path28" />
      <path
         d="m 65.842937,263.18978 v -5.44742 h 2.890842 v 0.55172 h -2.269185 v 1.85725 h 1.997076 v 0.55175 h -1.997076 v 1.93499 h 2.377847 v 0.55171 h -2.999504"
         style="fill:#656263;fill-opacity:1;fill-rule:nonzero;stroke:none;stroke-width:0.38033929"
         id="path30" />
      <path
         d="m 71.329628,258.29408 v 2.19915 h 0.831542 c 0.901429,0 1.235535,-0.39637 1.235535,-1.11901 0,-0.77712 -0.435215,-1.08014 -1.258868,-1.08014 z m 2.712065,1.01017 c 0,1.08793 -0.629544,1.73291 -1.880523,1.73291 h -0.831542 v 2.15262 h -0.621655 v -5.44742 h 1.569752 c 1.08009,0 1.763968,0.46626 1.763968,1.56189"
         style="fill:#656263;fill-opacity:1;fill-rule:nonzero;stroke:none;stroke-width:0.38033929"
         id="path32" />
      <path
         d="m 75.837339,263.18978 v -5.44742 h 2.89084 v 0.55172 h -2.269184 v 1.85725 h 1.997077 v 0.55175 h -1.997077 v 1.93499 h 2.377849 v 0.55171 h -2.999505"
         style="fill:#656263;fill-opacity:1;fill-rule:nonzero;stroke:none;stroke-width:0.38033929"
         id="path34" />
      <path
         d="m 81.324029,260.39218 h 0.699434 c 0.753653,0 1.227866,-0.29532 1.227866,-1.04904 0,-0.76154 -0.442991,-1.04906 -1.266758,-1.04906 h -0.660542 z m 0.745988,-2.64982 c 1.134537,0 1.818411,0.44292 1.818411,1.53086 0,0.89361 -0.575098,1.41437 -1.227866,1.48426 v 0.031 c 0.217664,0.10108 0.411992,0.27982 0.660655,0.69943 l 1.002317,1.70183 h -0.738209 l -0.986874,-1.7407 c -0.209771,-0.3575 -0.450769,-0.52063 -0.846985,-0.52063 h -0.427437 v 2.26133 h -0.621657 v -5.44742 h 1.367645"
         style="fill:#656263;fill-opacity:1;fill-rule:nonzero;stroke:none;stroke-width:0.38033929"
         id="path36" />
      <g
         id="text4189"
         style="font-style:normal;font-variant:normal;font-weight:500;font-stretch:normal;font-size:5.55093718px;line-height:0%;font-family:'Century Schoolbook L';-inkscape-font-specification:'Century Schoolbook L, Medium';text-align:start;letter-spacing:0px;word-spacing:0px;writing-mode:lr-tb;text-anchor:start;fill:#737171;fill-opacity:1;stroke:#737171;stroke-width:0.1;stroke-linecap:butt;stroke-linejoin:miter;stroke-miterlimit:4;stroke-dasharray:none;stroke-opacity:1"
         aria-label="KNOWLEDGE BASE">
        <path
           id="path4731"
           style="font-style:normal;font-variant:normal;font-weight:normal;font-stretch:normal;font-size:3.93790126px;line-height:1000%;font-family:'Kabel Bk BT';-inkscape-font-specification:'Kabel Bk BT, Normal';text-align:start;letter-spacing:0.74083334px;writing-mode:lr-tb;text-anchor:start;fill:#737171;fill-opacity:1;stroke:#737171;stroke-width:0.1;stroke-miterlimit:4;stroke-dasharray:none;stroke-opacity:1"
           d="m 45.073253,269.55927 1.134454,-1.29405 0.22689,0.0827 -1.057541,1.20752 1.153682,1.36327 -0.20574,0.1346 z m -0.236505,1.48056 v -2.7323 l 0.24035,-0.0423 v 2.74 z" />
        <path
           id="path4733"
           style="font-style:normal;font-variant:normal;font-weight:normal;font-stretch:normal;font-size:3.93790126px;line-height:1000%;font-family:'Kabel Bk BT';-inkscape-font-specification:'Kabel Bk BT, Normal';text-align:start;letter-spacing:0.74083334px;writing-mode:lr-tb;text-anchor:start;fill:#737171;fill-opacity:1;stroke:#737171;stroke-width:0.1;stroke-miterlimit:4;stroke-dasharray:none;stroke-opacity:1"
           d="m 47.446546,271.05713 v -2.79575 l 1.822818,2.17277 v -2.12662 l 0.236504,-0.0462 v 2.79575 l -1.822817,-2.18238 v 2.13047 z" />
        <path
           id="path4735"
           style="font-style:normal;font-variant:normal;font-weight:normal;font-stretch:normal;font-size:3.93790126px;line-height:1000%;font-family:'Kabel Bk BT';-inkscape-font-specification:'Kabel Bk BT, Normal';text-align:start;letter-spacing:0.74083334px;writing-mode:lr-tb;text-anchor:start;fill:#737171;fill-opacity:1;stroke:#737171;stroke-width:0.1;stroke-miterlimit:4;stroke-dasharray:none;stroke-opacity:1"
           d="m 50.823543,269.65541 q 0,0.50185 0.338413,0.84219 0.338414,0.33841 0.828729,0.33841 0.488392,0 0.828728,-0.34033 0.340336,-0.34034 0.340336,-0.84027 0,-0.50185 -0.338413,-0.84219 -0.338414,-0.34033 -0.826806,-0.34033 -0.490315,0 -0.830651,0.34033 -0.340336,0.34034 -0.340336,0.84219 z m -0.244196,0 q 0,-0.28842 0.115368,-0.55761 0.117291,-0.27112 0.326877,-0.47109 0.194203,-0.18651 0.440322,-0.28265 0.248041,-0.0961 0.532616,-0.0961 0.280729,0 0.524925,0.0961 0.244196,0.0942 0.442245,0.28265 0.215354,0.19997 0.3288,0.46532 0.113445,0.26342 0.113445,0.56338 0,0.28842 -0.117291,0.56146 -0.117291,0.27304 -0.324954,0.46916 -0.194203,0.18652 -0.440322,0.28266 -0.244196,0.0961 -0.526848,0.0961 -0.284575,0 -0.532616,-0.0961 -0.246119,-0.0961 -0.440322,-0.28266 -0.209586,-0.19997 -0.326877,-0.47108 -0.115368,-0.27304 -0.115368,-0.55954 z" />
        <path
           id="path4737"
           style="font-style:normal;font-variant:normal;font-weight:normal;font-stretch:normal;font-size:3.93790126px;line-height:1000%;font-family:'Kabel Bk BT';-inkscape-font-specification:'Kabel Bk BT, Normal';text-align:start;letter-spacing:0.74083334px;writing-mode:lr-tb;text-anchor:start;fill:#737171;fill-opacity:1;stroke:#737171;stroke-width:0.1;stroke-miterlimit:4;stroke-dasharray:none;stroke-opacity:1"
           d="m 55.354222,271.06483 -1.145991,-2.7573 0.232659,-0.0462 0.930637,2.24776 0.421094,-1.01524 -0.488392,-1.18637 0.203817,-0.0462 0.39802,0.96332 0.39802,-0.96332 0.203818,0.0462 -0.492238,1.18637 0.426862,1.01524 0.928714,-2.24776 0.23266,0.0462 -1.145991,2.7573 -0.551845,-1.30367 z" />
        <path
           id="path4739"
           style="font-style:normal;font-variant:normal;font-weight:normal;font-stretch:normal;font-size:3.93790126px;line-height:1000%;font-family:'Kabel Bk BT';-inkscape-font-specification:'Kabel Bk BT, Normal';text-align:start;letter-spacing:0.74083334px;writing-mode:lr-tb;text-anchor:start;fill:#737171;fill-opacity:1;stroke:#737171;stroke-width:0.1;stroke-miterlimit:4;stroke-dasharray:none;stroke-opacity:1"
           d="m 58.537016,271.00522 v -2.69769 l 0.24035,-0.0269 v 2.4881 h 0.957556 l -0.08268,0.23651 z" />
        <path
           id="path4741"
           style="font-style:normal;font-variant:normal;font-weight:normal;font-stretch:normal;font-size:3.93790126px;line-height:1000%;font-family:'Kabel Bk BT';-inkscape-font-specification:'Kabel Bk BT, Normal';text-align:start;letter-spacing:0.74083334px;writing-mode:lr-tb;text-anchor:start;fill:#737171;fill-opacity:1;stroke:#737171;stroke-width:0.1;stroke-miterlimit:4;stroke-dasharray:none;stroke-opacity:1"
           d="m 60.685341,271.00522 v -2.69769 h 1.444025 l 0.05576,0.22496 h -1.263281 v 0.98448 h 1.071001 v 0.22112 h -1.071001 v 1.03831 h 1.319043 l -0.05192,0.22882 z" />
        <path
           id="path4743"
           style="font-style:normal;font-variant:normal;font-weight:normal;font-stretch:normal;font-size:3.93790126px;line-height:1000%;font-family:'Kabel Bk BT';-inkscape-font-specification:'Kabel Bk BT, Normal';text-align:start;letter-spacing:0.74083334px;writing-mode:lr-tb;text-anchor:start;fill:#737171;fill-opacity:1;stroke:#737171;stroke-width:0.1;stroke-miterlimit:4;stroke-dasharray:none;stroke-opacity:1"
           d="m 63.477805,268.52865 v 2.25545 h 0.323031 q 0.559536,0 0.886413,-0.30573 0.328799,-0.30765 0.328799,-0.82296 0,-0.51531 -0.328799,-0.82104 -0.3288,-0.30572 -0.886413,-0.30572 z m -0.236504,2.47657 v -2.69769 h 0.353795 q 0.451859,0 0.684518,0.0558 0.23266,0.0538 0.423017,0.18074 0.271115,0.17882 0.413403,0.46532 0.14421,0.28457 0.14421,0.64606 0,0.61914 -0.401866,0.98448 -0.401866,0.36533 -1.094075,0.36533 z" />
        <path
           id="path4745"
           style="font-style:normal;font-variant:normal;font-weight:normal;font-stretch:normal;font-size:3.93790126px;line-height:1000%;font-family:'Kabel Bk BT';-inkscape-font-specification:'Kabel Bk BT, Normal';text-align:start;letter-spacing:0.74083334px;writing-mode:lr-tb;text-anchor:start;fill:#737171;fill-opacity:1;stroke:#737171;stroke-width:0.1;stroke-miterlimit:4;stroke-dasharray:none;stroke-opacity:1"
           d="m 68.602631,269.54004 v 1.14599 q -0.194203,0.18652 -0.440322,0.28266 -0.244196,0.0961 -0.526848,0.0961 -0.284575,0 -0.532617,-0.0961 -0.246119,-0.0961 -0.440322,-0.28266 -0.207662,-0.19612 -0.324953,-0.46916 -0.117291,-0.27304 -0.117291,-0.56146 0,-0.25381 0.09229,-0.49416 0.09229,-0.24227 0.263424,-0.44032 0.198049,-0.23074 0.469164,-0.35187 0.271115,-0.12114 0.590301,-0.12114 0.265347,0 0.498006,0.0865 0.234582,0.0846 0.426862,0.25381 l -0.153824,0.1769 q -0.17113,-0.14613 -0.365333,-0.2192 -0.194203,-0.0731 -0.405711,-0.0731 -0.492238,0 -0.832574,0.34033 -0.338413,0.34034 -0.338413,0.84219 0,0.50185 0.338413,0.84219 0.338413,0.33841 0.828728,0.33841 0.199972,0 0.384561,-0.0634 0.186512,-0.0654 0.351873,-0.19228 v -0.81142 h -0.907563 l 0.08845,-0.22882 z" />
        <path
           id="path4747"
           style="font-style:normal;font-variant:normal;font-weight:normal;font-stretch:normal;font-size:3.93790126px;line-height:1000%;font-family:'Kabel Bk BT';-inkscape-font-specification:'Kabel Bk BT, Normal';text-align:start;letter-spacing:0.74083334px;writing-mode:lr-tb;text-anchor:start;fill:#737171;fill-opacity:1;stroke:#737171;stroke-width:0.1;stroke-miterlimit:4;stroke-dasharray:none;stroke-opacity:1"
           d="m 69.760712,271.00522 v -2.69769 h 1.444026 l 0.05576,0.22496 h -1.263282 v 0.98448 h 1.071002 v 0.22112 h -1.071002 v 1.03831 h 1.319043 l -0.05191,0.22882 z" />
        <path
           id="path4749"
           style="font-style:normal;font-variant:normal;font-weight:normal;font-stretch:normal;font-size:3.93790126px;line-height:1000%;font-family:'Kabel Bk BT';-inkscape-font-specification:'Kabel Bk BT, Normal';text-align:start;letter-spacing:0.74083334px;writing-mode:lr-tb;text-anchor:start;fill:#737171;fill-opacity:1;stroke:#737171;stroke-width:0.1;stroke-miterlimit:4;stroke-dasharray:none;stroke-opacity:1"
           d="m 74.347705,270.78025 h 0.37687 q 0.319185,0 0.476855,-0.12498 0.15767,-0.12498 0.15767,-0.37879 0,-0.25189 -0.153825,-0.39226 -0.151901,-0.14228 -0.424939,-0.14228 h -0.432631 z m 0,-1.25559 h 0.353796 q 0.284575,0 0.438399,-0.13267 0.155747,-0.13268 0.155747,-0.37495 0,-0.24035 -0.153824,-0.36533 -0.153824,-0.12691 -0.448013,-0.12691 h -0.346105 z m -0.236505,1.48056 v -2.69769 h 0.511466 q 0.453782,0 0.682595,0.17497 0.230737,0.17305 0.230737,0.51916 0,0.21151 -0.09422,0.36725 -0.09229,0.15383 -0.271115,0.24228 0.215354,0.0923 0.324954,0.25957 0.111522,0.16729 0.111522,0.40187 0,0.33457 -0.224968,0.53454 -0.223045,0.19805 -0.609528,0.19805 z" />
        <path
           id="path4751"
           style="font-style:normal;font-variant:normal;font-weight:normal;font-stretch:normal;font-size:3.93790126px;line-height:1000%;font-family:'Kabel Bk BT';-inkscape-font-specification:'Kabel Bk BT, Normal';text-align:start;letter-spacing:0.74083334px;writing-mode:lr-tb;text-anchor:start;fill:#737171;fill-opacity:1;stroke:#737171;stroke-width:0.1;stroke-miterlimit:4;stroke-dasharray:none;stroke-opacity:1"
           d="m 77.272845,269.69771 h 0.972938 l -0.488392,-0.97294 z m -0.917178,1.26905 1.413261,-2.74192 1.37865,2.73615 -0.232659,0.0712 -0.559536,-1.10946 h -1.201752 l -0.571073,1.10946 z" />
        <path
           id="path4753"
           style="font-style:normal;font-variant:normal;font-weight:normal;font-stretch:normal;font-size:3.93790126px;line-height:1000%;font-family:'Kabel Bk BT';-inkscape-font-specification:'Kabel Bk BT, Normal';text-align:start;letter-spacing:0.74083334px;writing-mode:lr-tb;text-anchor:start;fill:#737171;fill-opacity:1;stroke:#737171;stroke-width:0.1;stroke-miterlimit:4;stroke-dasharray:none;stroke-opacity:1"
           d="m 80.180677,270.43799 q 0.121137,0.1942 0.282652,0.29227 0.163438,0.0981 0.367256,0.0981 0.261501,0 0.430708,-0.14998 0.171129,-0.14998 0.171129,-0.37879 0,-0.38072 -0.646062,-0.57492 -0.0673,-0.0192 -0.101908,-0.0308 -0.330723,-0.1 -0.484547,-0.27112 -0.153824,-0.17305 -0.153824,-0.44224 0,-0.30573 0.228813,-0.51724 0.230737,-0.21151 0.578764,-0.21151 0.213431,0 0.384561,0.075 0.171129,0.075 0.344182,0.2442 l -0.15767,0.18267 q -0.155747,-0.14806 -0.292266,-0.20959 -0.134596,-0.0635 -0.294189,-0.0635 -0.226891,0 -0.386484,0.14805 -0.157669,0.14614 -0.157669,0.35572 0,0.13075 0.06153,0.22882 0.06153,0.0981 0.186512,0.16536 0.09422,0.0519 0.338414,0.12306 0.134596,0.0384 0.205739,0.0615 0.298035,0.1019 0.448014,0.28073 0.149978,0.17882 0.149978,0.43263 0,0.33456 -0.242273,0.55953 -0.242273,0.22497 -0.615297,0.22497 -0.257656,0 -0.476855,-0.12498 -0.217277,-0.12498 -0.36341,-0.35572 z" />
        <path
           id="path4755"
           style="font-style:normal;font-variant:normal;font-weight:normal;font-stretch:normal;font-size:3.93790126px;line-height:1000%;font-family:'Kabel Bk BT';-inkscape-font-specification:'Kabel Bk BT, Normal';text-align:start;letter-spacing:0.74083334px;writing-mode:lr-tb;text-anchor:start;fill:#737171;fill-opacity:1;stroke:#737171;stroke-width:0.1;stroke-miterlimit:4;stroke-dasharray:none;stroke-opacity:1"
           d="m 82.79432,271.00522 v -2.69769 h 1.444025 l 0.05576,0.22496 h -1.263282 v 0.98448 h 1.071001 v 0.22112 h -1.071001 v 1.03831 h 1.319043 l -0.05192,0.22882 z" />
      </g>
      <path
         style="color:#000000;font-style:normal;font-variant:normal;font-weight:normal;font-stretch:normal;font-size:medium;line-height:normal;font-family:sans-serif;font-variant-ligatures:normal;font-variant-position:normal;font-variant-caps:normal;font-variant-numeric:normal;font-variant-alternates:normal;font-feature-settings:normal;text-indent:0;text-align:start;text-decoration:none;text-decoration-line:none;text-decoration-style:solid;text-decoration-color:#000000;letter-spacing:normal;word-spacing:normal;text-transform:none;writing-mode:lr-tb;direction:ltr;text-orientation:mixed;dominant-baseline:auto;baseline-shift:baseline;text-anchor:start;white-space:normal;shape-padding:0;clip-rule:nonzero;display:inline;overflow:visible;visibility:visible;opacity:1;isolation:auto;mix-blend-mode:normal;color-interpolation:sRGB;color-interpolation-filters:linearRGB;solid-color:#000000;solid-opacity:1;vector-effect:none;fill:#2f4161;fill-opacity:1;fill-rule:nonzero;stroke:none;stroke-width:0.5;stroke-linecap:butt;stroke-linejoin:miter;stroke-miterlimit:4;stroke-dasharray:none;stroke-dashoffset:0;stroke-opacity:1;color-rendering:auto;image-rendering:auto;shape-rendering:auto;text-rendering:auto;enable-background:accumulate"
         d="m 87.309984,270.38416 -9.594813,6.0584 3.015265,4.7202 0.539179,-0.0378 -2.863909,-4.53023 8.957478,-5.72214"
         id="rect155" />
      <rect
         style="fill:#737171;fill-opacity:1;stroke:none;stroke-width:0.30450815;stroke-miterlimit:4;stroke-dasharray:none;stroke-opacity:1"
         id="rect4672"
         width="36.983421"
         height="0.53453904"
         x="5.2117558"
         y="259.53809" />
      <path
         style="color:#000000;font-style:normal;font-variant:normal;font-weight:normal;font-stretch:normal;font-size:medium;line-height:normal;font-family:sans-serif;font-variant-ligatures:normal;font-variant-position:normal;font-variant-caps:normal;font-variant-numeric:normal;font-variant-alternates:normal;font-feature-settings:normal;text-indent:0;text-align:start;text-decoration:none;text-decoration-line:none;text-decoration-style:solid;text-decoration-color:#000000;letter-spacing:normal;word-spacing:normal;text-transform:none;writing-mode:lr-tb;direction:ltr;text-orientation:mixed;dominant-baseline:auto;baseline-shift:baseline;text-anchor:start;white-space:normal;shape-padding:0;clip-rule:nonzero;display:inline;overflow:visible;visibility:visible;opacity:1;isolation:auto;mix-blend-mode:normal;color-interpolation:sRGB;color-interpolation-filters:linearRGB;solid-color:#000000;solid-opacity:1;vector-effect:none;fill:#c71e57;fill-opacity:1;fill-rule:nonzero;stroke:none;stroke-width:0.69350141;stroke-linecap:butt;stroke-linejoin:miter;stroke-miterlimit:4;stroke-dasharray:none;stroke-dashoffset:0;stroke-opacity:1;color-rendering:auto;image-rendering:auto;shape-rendering:auto;text-rendering:auto;enable-background:accumulate"
         d="M 15.787109,281.12499 V 265.2793 H 2.7265625 v 0.3457 15.49999 H 3.4199219 V 265.97266 H 15.09375 v 15.15233 z"
         id="rect4674" />
      <path
         style="color:#000000;font-style:normal;font-variant:normal;font-weight:normal;font-stretch:normal;font-size:medium;line-height:normal;font-family:sans-serif;font-variant-ligatures:normal;font-variant-position:normal;font-variant-caps:normal;font-variant-numeric:normal;font-variant-alternates:normal;font-feature-settings:normal;text-indent:0;text-align:start;text-decoration:none;text-decoration-line:none;text-decoration-style:solid;text-decoration-color:#000000;letter-spacing:normal;word-spacing:normal;text-transform:none;writing-mode:lr-tb;direction:ltr;text-orientation:mixed;dominant-baseline:auto;baseline-shift:baseline;text-anchor:start;white-space:normal;shape-padding:0;clip-rule:nonzero;display:inline;overflow:visible;visibility:visible;opacity:1;isolation:auto;mix-blend-mode:normal;color-interpolation:sRGB;color-interpolation-filters:linearRGB;solid-color:#000000;solid-opacity:1;vector-effect:none;fill:#c71e57;fill-opacity:1;fill-rule:nonzero;stroke:none;stroke-width:0.89999998;stroke-linecap:butt;stroke-linejoin:miter;stroke-miterlimit:4;stroke-dasharray:none;stroke-dashoffset:0;stroke-opacity:1;color-rendering:auto;image-rendering:auto;shape-rendering:auto;text-rendering:auto;enable-background:accumulate"
         d="m 18.391257,281.12499 6.365832,-3.98442 -14.480504,-22.64718 -0.3801117,0.24304 -9.92988199,6.37196 v 1.03189 L 10.003037,255.737 l 13.510438,21.13003 -6.68863,4.25796 z"
         id="rect4676" />
      <path
         style="color:#000000;font-style:normal;font-variant:normal;font-weight:normal;font-stretch:normal;font-size:medium;line-height:normal;font-family:sans-serif;font-variant-ligatures:normal;font-variant-position:normal;font-variant-caps:normal;font-variant-numeric:normal;font-variant-alternates:normal;font-feature-settings:normal;text-indent:0;text-align:start;text-decoration:none;text-decoration-line:none;text-decoration-style:solid;text-decoration-color:#000000;letter-spacing:normal;word-spacing:normal;text-transform:none;writing-mode:lr-tb;direction:ltr;text-orientation:mixed;dominant-baseline:auto;baseline-shift:baseline;text-anchor:start;white-space:normal;shape-padding:0;clip-rule:nonzero;display:inline;overflow:visible;visibility:visible;opacity:1;isolation:auto;mix-blend-mode:normal;color-interpolation:sRGB;color-interpolation-filters:linearRGB;solid-color:#000000;solid-opacity:1;vector-effect:none;fill:#c71e57;fill-opacity:1;fill-rule:nonzero;stroke:none;stroke-width:0.80930126;stroke-linecap:butt;stroke-linejoin:miter;stroke-miterlimit:4;stroke-dasharray:none;stroke-dashoffset:0;stroke-opacity:1;color-rendering:auto;image-rendering:auto;shape-rendering:auto;text-rendering:auto;enable-background:accumulate"
         d="m 27.294515,281.12499 -0.04647,-8.94954 H -0.03340869 v 0.78732 l 26.47286169,0.0232 0.02323,8.13899"
         id="rect4678" />
    </g>
  </g>
</svg>
