<?xml version="1.0" encoding="UTF-8" standalone="no"?>
<!-- Generator: Adobe Illustrator 28.0.0, SVG Export Plug-In . SVG Version: 6.00 Build 0)  -->

<svg
   version="1.1"
   id="Ebene_1"
   x="0px"
   y="0px"
   viewBox="0 0 190.00001 110"
   xml:space="preserve"
   width="190"
   height="110"
   xmlns="http://www.w3.org/2000/svg"
   xmlns:svg="http://www.w3.org/2000/svg"><defs
   id="defs1364">
	
	
</defs>
<style
   type="text/css"
   id="style1233">
	.st0{fill:#E2E8E2;}
	.st1{fill:#373A37;}
	.st2{display:none;}
	.st3{display:inline;fill:none;stroke:#000000;stroke-width:0.25;}
	.st4{fill:#235B70;}
	.st5{fill:#FFD6C4;}
	.st6{fill:#006C66;}
	.st7{fill:#BEB7DE;}
	.st8{fill:#A8DBDD;}
	.st9{fill:#7CD97A;}
	.st10{fill:#F47828;}
	.st11{fill:#E42F6E;}
	.st12{fill:#7BB7C2;}
	.st13{fill:#5F97FF;}
	.st14{fill:#693585;}
	.st15{fill:#FFBA00;}
	.st16{fill:#9DBBB3;}
	.st17{fill:#1B5048;}
	.st18{fill:#007575;}
	.st19{fill:#3982A6;}
	.st20{fill:none;stroke:#E4007E;stroke-width:7;stroke-miterlimit:10;}
	.st21{fill:#FFFFFF;}
	.st22{fill-rule:evenodd;clip-rule:evenodd;}
	.st23{fill-rule:evenodd;clip-rule:evenodd;fill:#E2E8E2;}
	.st24{fill-rule:evenodd;clip-rule:evenodd;fill:#235B70;}
	.st25{fill-rule:evenodd;clip-rule:evenodd;fill:#006C66;}
	.st26{fill-rule:evenodd;clip-rule:evenodd;fill:#FFFFFF;}
	.st27{fill-rule:evenodd;clip-rule:evenodd;fill:#373A37;}
	.st28{fill:none;stroke:#373A37;stroke-width:0.25;stroke-miterlimit:10;}
	.st29{fill:none;stroke:#373A37;stroke-width:0.2514;stroke-miterlimit:10;}
	.st30{fill:none;stroke:#373A37;stroke-width:0.1826;stroke-miterlimit:10;}
	.st31{fill:none;stroke:#373A37;stroke-width:0.1967;stroke-miterlimit:10;}
</style>
<rect
   y="-39"
   class="st0"
   width="443.79999"
   height="238.60001"
   id="rect1235"
   style="fill:none"
   x="-39.900002" />
<g
   id="g2402"
   transform="translate(15.000403)"><g
     id="g1307"
     transform="matrix(0.4394375,0,0,0.4394375,-17.533556,2.5971239)"
     style="stroke-width:2.27563">
		<path
   class="st4"
   d="m 39.9,119.2 c 0,44.1 35.9,80 80,80 44.1,0 80,-35.9 80,-80 0,-44.1 -35.9,-79.9 -80,-79.9 -44.1,-0.1 -80,35.8 -80,79.9 z m 2.3,0 c 0,-42.9 34.9,-77.7 77.7,-77.7 42.9,0 77.7,34.9 77.7,77.7 0,42.9 -34.9,77.7 -77.7,77.7 C 77,196.9 42.2,162 42.2,119.2"
   id="path1237"
   style="stroke-width:2.27563" />
		<path
   class="st4"
   d="m 142.1,167.3 c -1.9,6.7 -2.9,10.2 0.2,17.1 0,0.3 0.3,1.1 0,1.2 -3.3,-0.7 -4.2,-1 -7.4,-1.2 -2.9,-0.5 -7.7,0.3 -11,0.3 -2.5,0.1 -5.1,0.2 -7.7,0.5 -0.8,-0.4 -0.2,-1.3 -0.1,-1.9 0.3,-0.9 0.3,-1.4 0.4,-2.4 0.4,-0.4 0.9,-0.2 1.4,-0.4 1.7,-0.3 3.1,-1.8 3.6,-3.4 0.5,-1.7 -0.1,-3.5 -0.8,-5.1 -0.2,-0.5 -0.8,-0.8 -0.5,-1.3 2.1,-3.9 0.6,-7.9 -0.1,-11.7 -0.7,-2.7 -1.9,-5.7 -2.3,-8.6 0.1,-0.3 -0.3,-1 0.4,-1 l 0.2,0.1 c 2.2,2.7 8.6,8.4 11,10.3 2.4,1.9 8.6,5.5 12.6,6.4 0.3,0.4 0.2,0.6 0.1,1.1 z m -29.8,6.9 c 0,-0.4 0,-0.5 0.3,-0.6 h 1.5 c 1.3,0 2.9,0.5 4.2,-0.8 0.7,0 0.8,0.8 0.9,1.5 0.2,0.9 0.1,1.5 0.1,2.3 -0.3,0.6 -0.6,1.6 -1.3,2 -1,0.5 -2.1,0.4 -3.1,0 -1.5,-0.9 -2.6,-2.4 -2.6,-4.4 z m 2.5,7.4 c -0.2,1.8 -2.4,3.3 -3.5,3.6 -1.1,0.3 -4.3,0.2 -5.2,-0.2 -0.9,-0.3 -3.2,-4.7 -2.9,-7 0,-1.9 0.5,-4.9 1.3,-5.1 0.8,-0.2 2.8,-0.1 2.8,-0.1 0.8,-0.1 1.5,0.1 2.2,0.2 0.5,0.2 0.2,0.9 0.3,1.2 0.2,1 0.3,2 0.9,3 0.8,1.6 2.4,2.6 3.9,3.2 0.4,0.4 0.2,0.8 0.2,1.2 z m -12.6,3.1 c -0.6,0.6 -0.9,0.3 -1.5,0.4 -1.7,-0.5 -2.7,-1.2 -3.2,-3.2 -0.6,-2.8 -0.6,-5.7 0,-8.5 l 0.3,-0.2 c 1.2,-0.1 3.1,-0.4 3.6,-0.1 0.5,0.3 -0.5,5.2 -0.5,5.2 0,1 0.4,3.5 0.9,4.8 -0.1,0.1 0.9,1.1 0.4,1.6 z m 20.5,-58.3 -0.1,1.7 c -0.1,1.5 -0.9,3.3 -2.3,4.1 -0.9,-0.2 -0.6,-1.2 -0.8,-1.9 0.5,-1.5 1.6,-2.8 2.5,-4.1 0.1,-0.1 0.2,-0.1 0.4,-0.1 z m 12.5,-13.5 c -0.9,0.4 -1.8,0.5 -2.8,0 -0.3,-0.3 -1.1,-0.6 -0.7,-1.1 0.7,-1.2 1.9,-2.1 2.7,-3.3 l 0.3,-0.2 c 1.5,-1.8 3.9,-3.3 6.1,-4.7 l 1.4,-0.6 c 0.3,-0.3 1,-0.9 1.3,-0.3 0.1,2.6 -1.1,5 -3.2,6.6 -1.4,1 -2,0.8 -3.2,0.9 l -0.6,1.1 c -0.3,0.7 -0.8,1.2 -1.3,1.6 z m -4.9,22.3 c -0.4,0.2 -4,-1.1 -3.5,-0.7 -0.8,-0.9 0.5,-1.2 -2.6,-2.4 l -0.8,0.1 c -0.1,0.1 -0.4,0.2 -0.7,-0.2 0,-0.5 0.6,-0.4 0.8,-1 1.1,-2.5 0.5,-4.5 0.4,-7.1 l 0.8,-2.1 c 1.6,-1.9 1.6,-2.2 2.6,-3.2 1.1,-1.5 1.3,-1.6 2.7,-2.8 0.2,-0.2 0.7,-0.4 0.9,-0.1 0.7,0.5 0.7,0.9 0.9,1.5 0.3,2.5 -1.2,4.2 -3,5.6 -1.3,1.1 -2.5,2.9 -2.2,4.6 l 0.1,0.1 c 0.6,-0.5 1.3,-0.8 1.6,-1.4 1,-2.2 3.6,-3.2 5.1,-5.1 0.6,-1.1 0.2,-3.1 0,-4.5 0,0 1.9,-0.9 1.4,-0.6 0.9,0.4 0.8,1.1 1.3,1.9 0.9,2.2 0.8,4.2 -0.5,6.1 l -3.7,4.6 c 0,2.3 0.6,5.4 -1.6,6.7 z m 15.7,-35.1 0.3,-0.3 c 1.2,-0.5 2.2,-1 3.5,-1.3 l 1.5,-0.4 c 0.4,-0.4 1.1,-0.7 1.5,-0.1 0,2 -1.5,4.4 -3.7,5.3 -0.7,0.3 -1.6,0.4 -2.4,0.6 -0.2,-0.2 -0.9,0.2 -1.1,-0.3 0.2,-1.1 0.5,-2.6 0.4,-3.5 z m 14.7,-3.7 c -0.1,1.4 -2,2.6 -3.6,3 -0.7,0.1 -1.3,0.1 -1.9,0.1 -0.2,-0.1 -0.3,-0.2 -0.3,-0.4 0.1,-0.7 0.2,-1.1 0.3,-1.7 l 0.4,-0.3 c 1.4,-0.3 3.1,-0.6 4.5,-1 0.2,0.1 0.5,0.1 0.6,0.3 z m -45.3,28.5 c 4.1,-7.4 9.1,-13.8 14.5,-20.4 l 7.5,-8.5 c 5.3,-5.7 11.2,-11.5 17.8,-16.1 0.8,-0.5 1.2,-1.4 2,-0.8 l 0.8,0.7 c 0.5,0.6 0.1,2.3 -0.5,2.7 -0.4,0.3 -0.8,0.7 -1.2,1 1.3,1.3 3.1,3.7 4.6,5.2 0.7,0.7 0.5,1.4 1.6,1.9 0.6,0.3 0.8,0.9 0.4,1.5 -1.1,1.3 -2.8,1.1 -4.2,1.5 -5.1,1.1 -9.3,2.6 -15,5.4 -4.6,2.4 -8.2,5.1 -11.5,9.2 -1.3,1.6 -2.7,2.7 -3.7,4.6 -3,3.9 -5.4,7.5 -7.8,11.4 -0.9,1.3 -1.1,1.9 -2.3,3 -0.6,0.5 -1.1,-0.6 -1.5,-1 0,0 -0.1,-0.1 -0.1,-0.1 -0.1,0 -0.3,0 -0.4,-0.1 -0.2,-0.2 -1.2,-0.4 -1,-1.1 z m 47.7,-27.6 c -0.2,0.2 -0.4,0.4 -0.6,0.3 -0.6,-0.4 -0.4,-1 -0.3,-1.5 0.1,-0.1 0.1,-0.2 0.3,-0.2 0.3,-0.1 0.5,0.2 0.6,0.3 0.1,0.4 0.1,0.8 0,1.1 z M 94,181.9 c -1.2,0 -2,-0.6 -2.6,-2.1 -0.6,-1.8 -0.7,-3.4 -0.4,-5.3 0.1,-0.2 0.4,-0.4 0.6,-0.3 l 1.7,-0.6 c 0.6,-0.2 1,-0.3 1.6,-0.2 l 0.3,0.3 c 0,1 -0.3,1.7 -0.3,2.6 -0.1,2.3 -0.3,3 0.4,5.1 -0.3,0.7 -0.7,0.5 -1.3,0.5 z m -5,-6.4 c -0.3,0.5 -0.2,0.8 -0.4,1.4 -0.1,0.3 -0.9,-0.1 -1.1,-0.2 -0.9,-0.5 -0.8,-0.2 -1.1,-1.1 -0.1,-0.6 -0.1,-1.2 0.8,-1.7 0.6,-0.3 1.8,-0.7 2.1,0 0.2,0.4 -0.4,1 -0.3,1.6 z m 84,-48.4 c -2.1,-4.9 -4.5,-9.1 -6.2,-14 -1.2,-1.8 -0.5,-3.6 -0.7,-5.5 -0.8,-2.9 -2,-5.2 -3.2,-8.1 -0.3,-0.8 0.6,-1.1 0.9,-1.6 0.5,-1.4 0.2,-3.1 -0.5,-4.4 -0.3,-0.8 0.7,-1.4 0.5,-2.2 0,-1.3 -1.1,-2.1 -2,-2.8 -1.3,-1.9 -1.9,-2.9 -3.6,-4.7 v -0.3 c 0.8,-0.7 1.5,-2 1.5,-3.1 -0.3,-1.2 -0.6,-2.4 -1.8,-3.2 -1.9,-1.1 -3.8,0.6 -5.3,1.4 -0.4,0.3 -0.6,0.6 -1.2,0.5 -0.4,-0.1 -0.8,-0.3 -1.2,-0.4 -0.4,0.4 -0.9,0.9 -1.4,1.4 l 1.8,0.7 c 0.1,0.1 0.1,0.1 0.1,0.2 0,0 0,0.1 0,0.1 l -4.2,3.7 c 0,0 -7.4,7.3 -7.4,7.3 l -2.1,2.1 -6.6,7.6 c -3.4,4 -8.5,10.5 -11.5,15.3 -1.6,2.2 -3.2,4.6 -4.6,6.9 -0.2,0.3 -0.5,0.2 -0.9,0.2 -0.3,0 -0.7,-0.1 -1,0 v 0 h -0.1 c 0,0 0,0 0.1,0 -1.7,0.2 -2.9,0.7 -4.2,1.9 -1.7,1.9 -2.6,4.4 -2.5,7 0,1.8 0.4,3.7 1.2,5.5 -0.3,1 -1.1,1.9 -1.8,2.7 l -0.4,0.4 -0.5,0.5 c -0.3,0.3 -0.7,0.7 -1,1 v 0 0 c 0,0.1 0,0.3 0.3,0.5 h 0.1 0.1 c 1.6,-0.4 2.5,-1.5 3.5,-2.7 0,0 0.6,-0.7 0.7,-0.8 0.1,0 0.3,0.1 0.5,0.2 0.1,0.1 0.2,0.2 0.4,0.2 v 0.1 0.6 c -3.7,3.6 -6.7,5.7 -10.6,8 l -0.7,0.4 0.5,0.3 c 1.5,0.2 3,-0.7 4.4,-1.5 l 1.7,-0.9 c 1.6,-0.8 3,-2 4.4,-3.2 0,0 1.3,-1 1.4,-1.2 0.1,0 0.3,0.2 0.4,0.3 l 0.1,0.1 c 0,0 1.2,2.3 1.2,2.5 -0.3,1.1 -0.4,2.2 -0.4,3.2 0,2.4 0.5,4.7 1,7 0.5,2.3 1,4.6 1,6.9 0,0.1 0,0.3 0,0.5 0,0.7 -0.8,1.6 -1.4,1.9 -1.5,0.3 -3.2,0.3 -5.1,0.3 -2.3,0 -4.7,0 -6.5,0.5 -0.7,0.1 -1.3,0.3 -1.9,0.5 -0.7,0.2 -1.3,0.4 -1.9,0.5 h -0.1 l -0.1,0.1 -0.2,0.2 c -0.2,0.1 -0.5,0.3 -0.5,0.6 v 0.1 c 0,0.2 0.1,0.4 0.2,0.5 0.1,0.1 0.3,0.2 0.5,0.2 0.6,0 1.2,-0.2 1.8,-0.4 0.4,-0.2 0.9,-0.3 1.3,-0.4 3.8,-0.6 8,-0.5 10.9,-0.3 1.4,0 3.7,-0.1 4.5,-2.1 0.3,-0.8 0.4,-1.6 0.4,-2.3 0,-0.8 -0.1,-1.6 -0.3,-2.3 l -0.3,-1.9 c -0.2,-1.2 -0.4,-2.4 -0.7,-3.5 -0.4,-2 -0.9,-4.1 -0.9,-6.2 0,-0.4 0,-0.9 0.1,-1.3 0,-0.1 0.1,-0.1 0.1,-0.1 0.1,0 0.3,0.2 0.5,0.3 0.2,0.1 0.4,0.3 0.6,0.4 0.2,0.2 0.5,0.3 0.8,0.3 0.4,0 0.6,0.1 0.7,0.4 0.2,1.9 0.8,3.8 1.4,5.6 0.4,1.3 0.9,2.6 1.1,3.9 0.5,2.3 1,4.5 1,6.8 0,1.3 -0.2,2.7 -0.7,4 -1,1.8 -3.1,1.8 -5.2,1.8 h -0.6 l -5.1,-0.3 c -4.4,-0.3 -8.9,-0.6 -13.5,0.1 -0.3,0 -0.7,0.1 -1,0.1 -0.6,0.1 -1.1,0.2 -1.7,0 -0.2,-0.2 -0.4,-0.5 -0.4,-0.8 0,-0.1 0,-0.2 0.1,-0.3 0.8,-1.8 1.2,-3.5 1.2,-4.9 0,-1.2 -0.3,-2.2 -0.8,-3.2 -1.2,-2.3 -2.5,-3.9 -4.1,-5 -1.8,-1.8 -3.5,-3.6 -5.2,-5.5 -0.9,-0.1 -1.4,-0.3 -1.5,-0.3 l -0.2,-0.1 -0.9,1.1 c 1.1,1.1 2.2,2.2 3.5,3.4 2,1.1 3.6,3 5,4.3 1.7,2 2.1,4.1 1.8,6.5 -0.2,2.8 -2.8,4 -4.5,5.9 -0.7,1.3 -1.1,2.9 -0.2,4.1 0.6,1.6 3.3,1.3 3.6,2.7 0.7,3 5.9,4.7 6.9,4.8 1,0.1 2.1,1.2 2.1,1.2 2.1,1.5 4.8,1.1 6.2,0.9 1.4,-0.2 4,0.9 5.5,0.7 2.4,-0.9 4.3,-0.5 6.8,-0.7 7.8,0.1 16.6,-0.1 24.5,0.9 1.5,-0.2 3.2,1 4.6,0.3 0.4,-0.6 0.1,-1.1 0,-1.6 -3.8,-6 -4.4,-12.7 -2.2,-19.2 l 1.4,0.1 c 5.1,0.6 9.8,-0.1 15,-3.1 2.6,-1.4 4,-4.8 3.9,-7.2 -0.1,-1.6 -0.6,-3.5 -0.4,-5.1 0.1,-0.7 0.6,-1.9 1.2,-2.2 0.3,-0.2 1.2,-0.8 1.5,-1.6 0.5,-1.4 -0.6,-2 -0.9,-2.2 0.8,-0.3 1.6,-2 0.9,-3.4 -0.5,-0.5 -1.1,-2.6 -1.1,-3.3 -0.2,-1 -0.2,-2 0.7,-2.6 2.1,-1.1 4,-1.4 6.1,-2.3 1.5,-0.6 2.2,-2.1 2.2,-3.5 z m -0.6,5.1 c -2.2,2 -5.3,2.1 -7.8,3.7 -1.1,1.1 -0.9,2.4 -0.4,3.9 0.9,1.8 0.6,1.6 -0.7,2.1 -3,1 -3,4.3 -6.6,3.7 -0.2,0.1 -1.1,-0.4 -0.6,0.2 0.4,0.5 0.6,0.2 1.3,0.3 1.3,0.1 1.8,-0.5 2.7,-1.1 1.3,-1.1 1.1,-1.5 2.7,-2.3 0.4,-0.1 1.3,-0.4 1.8,-0.2 0.4,0.3 0.4,0.3 0.4,0.6 -0.2,0.9 -1.5,1.6 -2,1.9 0.7,0.5 1.9,1.3 1.7,2 -0.3,0.5 -0.3,0.5 -0.8,0.8 -0.7,0.3 -2.2,0.3 -3.5,-0.7 -0.2,0.1 -0.4,-0.4 -1,0.2 1.3,1.4 3.2,1 3.4,1.3 0.3,0.3 -1,1.9 -1,2.3 -0.9,2.3 0.2,4.5 -0.3,7 -0.3,1.9 -0.9,2.8 -2.5,4 -3.1,2.1 -5.2,2.7 -8.7,3.3 -9,0.6 -14.7,-2.5 -21.2,-7.3 -6.5,-4.9 -9,-7.4 -11,-10.2 0,-1.1 0.8,-2 0.1,-3.2 -0.6,0.2 -0.5,1 -0.9,1.4 -0.5,0.7 -1.7,1.2 -2.6,1.2 -2.7,-0.9 -2.8,-4.1 -4.5,-5.9 -3.6,-3.5 -4.6,-8.6 -2.7,-12.9 0.7,-1.3 1.9,-2.6 3.2,-3.1 1.7,-0.3 3.6,-0.3 4.7,1.3 1.3,1.2 2.1,3.2 2.4,5 0.5,0.9 -0.1,1.8 0.8,2.5 1.5,0.1 2.8,0.5 4.3,-0.4 1.1,0.1 1.2,1.4 2.1,1.9 l 1.5,0.9 c 1.6,0.6 3.6,0.6 4.9,-0.5 2.5,-2.5 1.9,-5.1 2.8,-7.9 2.3,-2.1 3.9,-5.1 3.9,-8 -0.1,-1.8 -0.8,-3.6 -1.9,-5.4 0.2,-1.1 0.8,-1.9 1.1,-2.8 0.3,-0.2 0.7,-0.2 1,-0.2 2.6,-0.6 5,-2.9 6,-5.4 l 0.2,-0.2 c 3,-0.2 6.7,-1.3 8.5,-4.4 0.4,-1.4 1.9,-0.4 2.8,-0.7 1.6,-0.1 3.2,-1 4.4,-2 0.3,-0.1 0.6,0.3 0.8,0.4 0.7,2.4 2,4.6 2.7,7 0.9,1.8 1.2,3.5 0.9,5.3 0.4,2.8 2,5.4 3.1,8.2 1.1,3 2.9,6 4.1,9 0.7,1.4 1.2,2.4 0.4,3.4"
   id="path1239"
   style="stroke-width:2.27563" />
		<path
   class="st4"
   d="m 159,108.8 c 0.4,0.5 0.7,1 0.4,1.5 -0.8,0.1 -0.9,-0.9 -1.5,-1.2 -1.1,-0.5 -2,0 -3.1,0.3 -2.7,1.1 -4.9,3.4 -7.5,4.6 -0.3,0 -0.6,0 -0.8,-0.3 0.4,-0.4 1.1,-0.5 1.7,-0.9 2.7,-1.8 5.3,-4.5 8.6,-5 0.9,-0.1 1.7,0.3 2.2,1 m -2.5,9.7 c -0.4,0.6 -1.1,0.1 -1.7,0.2 -1.3,-0.2 -3.6,0.2 -5,0 -0.2,-0.1 -0.4,-0.4 -0.2,-0.6 0.2,-0.4 0.8,-0.4 1.2,-0.7 1.6,-1 3.3,-2 5.1,-2.4 0.3,0 0.6,0.2 0.7,0.5 0.2,0.8 0,2.2 -0.1,3 z m 2.3,-5.2 c -0.2,-0.6 -0.2,-1.7 -1,-1.9 -0.2,0.4 0,0.9 -0.2,1.2 -0.2,0.3 -0.6,0.6 -1.1,0.5 -3.2,0.2 -5.6,3.1 -8.4,4.5 -0.9,0.5 -2,0.8 -3,1.1 -0.1,0.2 -0.1,0.4 0.1,0.4 3.1,0.3 6.1,0.6 9.1,0.9 l 3.4,-0.4 c 0.1,-0.4 -0.4,-0.8 -0.4,-1.3 0.4,-1.4 0.5,-2.9 0.1,-4.2 0.4,-0.5 1.4,0 1.4,-0.8 m 1.7,15.1 c 0.1,-0.2 0.2,-0.3 0.4,-0.3 0.2,0.1 0.3,0.2 0.3,0.5 0,0.6 -0.2,1.2 -0.3,1.8 -0.2,0.7 -0.4,1.5 -0.4,2.2 0,0.3 0,0.6 0.1,0.9 0.4,0.5 1.1,0.6 1.9,0.4 0,0 1.3,-0.8 1.3,-0.8 1.1,-0.7 2.2,-1.3 4.3,-1.9 0.1,0 0.1,0 0.1,0 0,0 0,0.1 0,0.2 0,0.2 -0.1,0.4 -0.1,0.6 -0.1,0 -1.9,0.9 -1.9,0.9 -1.5,0.6 -3,1.3 -4.4,2.1 -0.4,0.1 -0.8,-0.1 -1.2,-0.4 l -0.1,-0.1 c -0.5,-0.6 -0.7,-1.4 -0.7,-2.2 0,-0.6 0.1,-1.3 0.3,-1.9 0.1,-0.6 0.3,-1.2 0.3,-1.9 l 0.1,-0.1 m -45.7,-0.6 c 1.1,2.2 -0.1,4.2 0,6.5 0.2,0.6 1.4,0.7 1.1,1.5 -0.3,0.2 -0.7,0.3 -1,0 -0.6,-0.4 -0.8,-0.7 -0.9,-1.3 -0.1,-2 1.4,-4.3 0,-6.2 -0.4,-0.4 -1,-0.8 -1.6,-0.9 -1.3,0.2 -1.9,1.6 -2.3,2.6 -0.7,2.6 -0.8,5.4 1.5,7.6 1.4,0.8 3,1.6 3.1,3.4 0.2,0.3 0.6,0.6 0.9,0.4 0.4,0 0.5,-1.2 1.1,-0.6 l 0.2,0.4 c -0.1,0.5 -0.3,1.3 -1.1,1.3 -0.4,0.1 -0.8,-0.1 -1.1,-0.4 -0.8,-0.8 -0.2,-2.1 -1.6,-2.7 -2.3,-0.7 -3.8,-3.1 -4,-5.4 -0.1,-2.2 -0.1,-4.6 1.8,-6.5 0.7,-0.6 1.7,-0.9 2.6,-0.6 0.4,0.1 1,0.5 1.3,0.9"
   id="path1241"
   style="stroke-width:2.27563" />
		<path
   class="st24"
   d="m 86.5,144.6 c 3.1,-1.4 6.5,-1.3 7.9,-1.1 -0.4,1.2 -1.6,4.4 -5.1,6.1 -3.5,1.7 -6.5,1.3 -7.6,1.1 0.3,-1.3 1.7,-4.6 4.8,-6.1 z M 86,143.7 c -4.2,1.9 -5.5,6.9 -5.5,7.1 l -0.1,0.4 0.4,0.1 c 0.2,0.1 4,1.3 8.8,-1 4.8,-2.3 5.8,-7.1 5.8,-7.3 l 0.1,-0.5 -0.5,-0.1 c -0.2,0.2 -4.9,-0.6 -9,1.3 m 4.6,-8.5 c 3,-1.4 6.4,-1.2 7.6,-1.1 -0.4,1.2 -1.7,4.2 -5.2,5.9 -3.5,1.6 -6.4,1.3 -7.6,1.1 0.6,-1.2 2.2,-4.5 5.2,-5.9 z m -0.4,-0.9 c -4.2,1.9 -5.7,6.8 -5.8,7 l -0.1,0.5 0.5,0.1 c 0.2,0.1 4,1.2 8.8,-1.1 4.8,-2.3 5.8,-6.9 5.9,-7.1 l 0.1,-0.5 -0.5,-0.1 c -0.3,0.1 -4.8,-0.6 -8.9,1.2"
   id="path1243"
   style="stroke-width:2.27563" />
		<path
   class="st24"
   d="m 96.1,126.2 c 3,-1.3 6.2,-1.1 7.4,-1 -0.9,2.5 -2.8,4.5 -5.2,5.6 -3.4,1.6 -6.4,1.4 -7.5,1.2 0.5,-1.2 2.2,-4.5 5.3,-5.8 z m -0.4,-0.9 c -4.2,1.8 -6,6.7 -6.1,6.9 l -0.2,0.5 0.5,0.1 c 0.2,0 4,1.1 8.8,-1.1 4.8,-2.2 5.9,-6.6 5.9,-6.8 l 0.1,-0.5 -0.5,-0.1 c -0.2,0 -4.4,-0.8 -8.5,1 m 5.8,-8 c 3,-1.3 6,-1.1 7.2,-0.9 -1,2.4 -2.8,4.4 -5.2,5.4 -3.4,1.5 -6.3,1.4 -7.5,1.2 0.5,-1.3 2.4,-4.4 5.5,-5.7 z m -0.4,-0.9 c -4.2,1.8 -6.3,6.6 -6.4,6.8 l -0.2,0.5 0.6,0.1 c 0.2,0 4,1 8.8,-1.2 4.8,-2.2 5.9,-6.4 6,-6.6 l 0.1,-0.5 -0.5,-0.1 c -0.2,0 -4.3,-0.8 -8.4,1 m 7.8,-8.1 c 3,-1.3 5.8,-1 7,-0.9 -0.4,1.1 -1.8,3.7 -5.3,5.2 -3.4,1.5 -6.3,1.4 -7.5,1.3 0.8,-1.2 2.8,-4.3 5.8,-5.6 z m -0.3,-0.9 c -4.2,1.7 -6.6,6.5 -6.7,6.7 l -0.3,0.6 0.6,0.1 c 0.2,0 4,0.8 8.8,-1.3 4.9,-2.1 6,-6.2 6,-6.4 l 0.1,-0.5 -0.5,-0.1 c -0.1,0 -3.9,-0.8 -8,0.9"
   id="path1245"
   style="stroke-width:2.27563" />
		<path
   class="st24"
   d="m 117.2,99.7 c 2.1,-0.9 4.5,-1.2 6.8,-0.8 -0.5,1.1 -1.9,3.6 -5.3,5 -3.3,1.4 -6.2,1.4 -7.5,1.4 0.8,-1.3 3,-4.4 6,-5.6 z m -0.4,-0.9 c -4.2,1.7 -6.8,6.5 -6.9,6.6 l -0.3,0.6 0.7,0.1 c 0.2,0 4,0.7 8.8,-1.3 4.9,-2.1 6,-6 6.1,-6.2 l 0.1,-0.5 -0.5,-0.1 c -0.2,0 -3.8,-0.9 -8,0.8"
   id="path1247"
   style="stroke-width:2.27563" />
		<path
   class="st24"
   d="m 126,91.6 c 3,-1.2 5.5,-0.9 6.5,-0.8 -0.5,1 -1.9,3.4 -5.4,4.8 -3.3,1.4 -6.1,1.5 -7.5,1.4 1,-1.3 3.4,-4.3 6.4,-5.4 z m -0.4,-1 c -4.2,1.7 -7.1,6.4 -7.2,6.6 l -0.4,0.6 0.7,0.1 c 0.2,0 4,0.6 8.8,-1.4 4.9,-2 6.1,-5.8 6.1,-6 l 0.2,-0.5 -0.5,-0.1 c -0.1,0 -3.5,-0.9 -7.7,0.7"
   id="path1249"
   style="stroke-width:2.27563" />
		<path
   class="st24"
   d="m 135.1,84 c 2.9,-1.1 5.3,-0.9 6.3,-0.7 -0.5,1 -2,3.3 -5.4,4.6 -3.3,1.3 -6.1,1.5 -7.4,1.4 1.1,-1.2 3.5,-4.1 6.5,-5.3 z m -0.3,-0.9 c -4.2,1.6 -7.4,6.3 -7.5,6.5 l -0.4,0.7 0.8,0.1 c 0.2,0 4,0.5 8.8,-1.5 4.9,-2 6.2,-5.6 6.2,-5.8 l 0.2,-0.5 -0.5,-0.2 c -0.2,0.1 -3.4,-0.9 -7.6,0.7"
   id="path1251"
   style="stroke-width:2.27563" />
		<path
   class="st24"
   d="m 144.4,77.3 c 2.9,-1.1 5.1,-0.8 6.1,-0.7 -0.5,1 -2,3.1 -5.5,4.4 -2.3,0.9 -4.8,1.4 -7.4,1.5 1.2,-1.3 3.9,-4.1 6.8,-5.2 z m -0.3,-0.9 c -4.2,1.6 -7.7,6.2 -7.8,6.4 l -0.5,0.7 0.9,0.1 c 0.2,0 4,0.4 8.8,-1.5 4.9,-1.9 6.2,-5.4 6.3,-5.5 l 0.2,-0.5 -0.5,-0.2 c -0.2,-0.1 -3.1,-1.1 -7.4,0.5 M 77,143.3 c 0,-0.1 0,-0.3 0,-0.5 0.2,-3.4 2.1,-6.4 2.8,-7.5 0.9,0.9 2.9,3.4 2.9,7 0,0.1 0,0.3 0,0.4 -0.2,3.9 -2,6.3 -2.7,7.2 -0.8,-0.8 -3,-3.4 -3,-6.6 z m 2.4,-9 c -0.1,0.2 -3,3.9 -3.3,8.5 -0.3,4.6 3.5,8.2 3.6,8.3 l 0.3,0.3 0.3,-0.3 c 0.1,-0.1 3.1,-2.9 3.4,-8.2 0.2,-5.3 -3.5,-8.5 -3.6,-8.6 l -0.4,-0.3 -0.3,0.3"
   id="path1253"
   style="stroke-width:2.27563" />
		<path
   class="st24"
   d="m 82.4,133.2 c 0,-0.8 0.1,-1.6 0.3,-2.4 0.7,-2.7 2.2,-4.8 2.9,-5.6 0.7,0.8 2.3,3 2.3,6.2 0,0.4 0,0.8 -0.1,1.1 -0.5,3.8 -2.3,6.1 -3.1,6.9 -0.7,-0.9 -2.3,-3.3 -2.3,-6.2 z m 2.8,-9.1 c -1.6,1.9 -2.8,4.1 -3.5,6.5 -0.1,0.5 -0.2,1.1 -0.3,1.6 -0.5,4.5 2.7,8.2 2.8,8.3 l 0.3,0.4 0.4,-0.3 c 0.1,-0.1 3.2,-2.8 3.8,-7.9 0.6,-5.2 -2.7,-8.4 -2.8,-8.6 l -0.4,-0.3 -0.3,0.3"
   id="path1255"
   style="stroke-width:2.27563" />
		<path
   class="st24"
   d="m 88.5,123.9 c 0,-0.5 0,-0.9 0.1,-1.4 0.1,-0.5 0.2,-1 0.4,-1.4 0.7,-2 1.8,-3.8 3.2,-5.3 1.5,2.1 2,4.7 1.5,7.2 -0.7,3.6 -2.7,5.8 -3.5,6.6 -0.6,-1 -1.7,-3.2 -1.7,-5.7 z m 3.4,-9.3 c -0.1,0.1 -2.6,2.4 -3.8,6.1 -0.2,0.5 -0.3,1 -0.4,1.6 -0.8,4.3 1.9,8.2 2,8.3 l 0.3,0.4 0.4,-0.3 c 0.1,-0.1 3.3,-2.6 4.3,-7.6 1,-5.1 -1.9,-8.4 -2.1,-8.5 l -0.3,-0.4 -0.4,0.4"
   id="path1257"
   style="stroke-width:2.27563" />
		<path
   class="st24"
   d="m 95.2,115.3 c 0,-0.7 0.1,-1.4 0.2,-2.1 0.1,-0.5 0.3,-0.9 0.4,-1.4 0.8,-1.9 2,-3.6 3.5,-5 0.8,1.4 1.2,2.9 1.2,4.4 0,0.8 -0.1,1.7 -0.4,2.6 -0.7,2.4 -2,4.6 -3.9,6.4 -0.3,-0.9 -1,-2.8 -1,-4.9 z m 3.9,-9.7 c -0.1,0.1 -2.7,2.1 -4.2,5.8 -0.2,0.5 -0.4,1 -0.5,1.5 -1,4.2 1.1,8.1 1.2,8.3 l 0.3,0.5 0.5,-0.3 c 0.1,-0.1 3.3,-2.4 4.7,-7.3 1.4,-4.9 -1.1,-8.3 -1.3,-8.4 l -0.3,-0.4 -0.4,0.3"
   id="path1259"
   style="stroke-width:2.27563" />
		<path
   class="st24"
   d="m 102.4,107.6 c 0,-1.5 0.3,-3 0.9,-4.3 0.9,-1.8 2.2,-3.5 3.8,-4.7 0.3,0.6 0.8,1.9 0.8,3.5 0,1 -0.2,2.2 -0.7,3.4 -0.9,2.4 -2.3,4.4 -4.2,6.1 -0.4,-1.4 -0.6,-2.7 -0.6,-4 z M 107,97.3 c -0.1,0.1 -2.8,1.8 -4.6,5.5 -0.2,0.5 -0.4,1 -0.6,1.4 -1.3,4.1 0.3,8.1 0.4,8.3 l 0.2,0.6 0.5,-0.3 c 0.1,-0.1 3.4,-2.3 5.2,-7 1.8,-4.8 -0.4,-8.2 -0.5,-8.3 l -0.3,-0.4 -0.3,0.2"
   id="path1261"
   style="stroke-width:2.27563" />
		<path
   class="st24"
   d="m 110,100.8 c 0,-1.3 0.2,-2.9 0.7,-4.3 0.2,-0.5 0.4,-0.9 0.6,-1.3 1,-1.8 2.4,-3.3 4.1,-4.4 0.2,0.5 0.4,1.4 0.4,2.6 0,1.5 -0.4,2.9 -1,4.2 -1.1,2.3 -2.7,4.3 -4.6,5.8 -0.1,-0.8 -0.2,-1.7 -0.2,-2.6 z m 5.4,-11.2 c -0.1,0.1 -2.9,1.5 -5,5.1 -0.2,0.4 -0.5,0.9 -0.6,1.4 -1.5,3.9 -0.4,8.1 -0.4,8.3 l 0.2,0.6 0.6,-0.3 c 0.1,-0.1 3.4,-2.1 5.6,-6.6 2.2,-4.6 0.4,-8.1 0.3,-8.2 l -0.2,-0.4 -0.5,0.1"
   id="path1263"
   style="stroke-width:2.27563" />
		<path
   class="st24"
   d="m 118,95.2 c 0,-1.6 0.2,-4 1.2,-6.2 0.2,-0.5 0.4,-0.9 0.7,-1.2 1.6,-2.5 3.5,-3.7 4.4,-4.2 0.1,0.4 0.2,1 0.2,1.8 0,1.3 -0.3,3.1 -1.4,5 -1.3,2.2 -3,4.1 -5,5.5 C 118,95.7 118,95.5 118,95.2 Z m 6.4,-12.7 c -0.1,0.1 -3,1.2 -5.4,4.8 -0.2,0.4 -0.5,0.8 -0.7,1.3 -1.7,3.8 -1.2,8.1 -1.2,8.3 l 0.1,0.7 0.6,-0.3 c 0.1,-0.1 3.5,-2 6,-6.3 2.6,-4.5 1.2,-8 1.1,-8.1 l -0.2,-0.5 -0.3,0.1"
   id="path1265"
   style="stroke-width:2.27563" />
		<path
   class="st24"
   d="m 128.1,82.2 c 0.2,-0.4 0.5,-0.8 0.7,-1.1 1.8,-2.4 3.8,-3.5 4.7,-3.9 0,0.2 0.1,0.5 0.1,0.9 0,1.3 -0.3,3.5 -1.9,5.8 -1.4,2.1 -3.2,3.9 -5.4,5.2 0.1,-1.5 0.5,-4.5 1.8,-6.9 z m 5.7,-6.2 c -0.1,0 -3.1,0.9 -5.7,4.4 -0.3,0.4 -0.6,0.8 -0.8,1.3 -2,3.6 -2,8.1 -2,8.3 v 0.8 l 0.7,-0.4 c 0.2,-0.1 3.6,-1.8 6.5,-6 3,-4.3 2,-7.9 1.9,-8 l -0.1,-0.5 -0.5,0.1"
   id="path1267"
   style="stroke-width:2.27563" />
		<path
   class="st24"
   d="m 138.3,74.8 c 2,-2.4 4.1,-3.3 5,-3.6 0,0 0,0 0,0.1 0,1.1 -0.3,3.7 -2.6,6.5 -1.6,2 -3.5,3.7 -5.7,5 0.3,-1.8 1.2,-5.6 3.3,-8 z m 5.3,-4.7 c -0.1,0 -3.2,0.6 -6.1,4.1 -2.9,3.5 -3.6,9.2 -3.7,9.4 l -0.1,0.9 0.8,-0.4 c 0.2,-0.1 3.6,-1.6 6.9,-5.7 3.3,-4.1 2.8,-7.8 2.7,-7.9 L 144,70 l -0.4,0.1"
   id="path1269"
   style="stroke-width:2.27563" />
		<path
   class="st24"
   d="m 51.9,119.2 c 0,-37.5 30.5,-68 68,-68 11.1,0 22,2.7 31.8,7.9 -1.4,1.6 -7.1,8.1 -7.9,9 -7.5,-3.5 -15.6,-5.3 -23.9,-5.3 -31.1,0 -56.4,25.3 -56.4,56.4 0,13.9 4.7,26.5 13.6,36.7 -0.9,2.3 -1.4,4.7 -1.4,7.2 0,2.8 0.7,6.2 2.6,9.8 C 61.8,159.8 51.9,139.8 51.9,119.2 Z m -2.3,0 c 0,23.9 13,47 33.8,60.1 l 0.9,0.5 0.6,-0.8 c 0.2,-0.2 0.2,-0.4 0.2,-0.7 0,-0.5 -0.4,-0.9 -0.7,-1.1 L 83.2,176 c -4.3,-4.9 -5.4,-9.5 -5.4,-13.1 0,-3.9 1.4,-6.6 1.5,-6.8 l 0.4,-0.7 -0.5,-0.6 C 70.4,145 65.7,132.6 65.7,119 65.7,89.3 90,65 119.9,65 c 8.3,0 16.3,1.8 23.7,5.4 l 0.8,0.4 10.9,-12.4 -1.2,-0.7 C 143.7,51.9 131.9,48.9 120,48.9 81.1,48.9 49.6,80.4 49.6,119.2"
   id="path1271"
   style="stroke-width:2.27563" />
		<path
   class="st24"
   d="m 144.5,68.5 c -7.7,-3.7 -16.1,-5.7 -24.7,-5.7 -31.1,0 -56.4,25.3 -56.4,56.4 0,14.1 4.9,27 14.1,37.3 l 1,1.1 4.3,-6.5 -0.2,-0.3 c -0.3,0 -0.6,-0.1 -0.9,-0.2 0.1,-0.2 0.1,-0.4 0.3,-0.7 -0.3,-0.4 -0.7,-0.8 -1,-1.2 -0.3,0.4 -0.6,0.8 -0.9,1.2 -0.8,-0.9 -3,-3.5 -3,-6.7 v -0.3 c -4,-7.1 -6,-15 -6,-23.8 0,-27 21.9,-48.9 48.9,-48.9 6.6,0 13,1.3 19,3.8 0.6,-0.7 1.3,-1.2 1.9,-1.6 -6.6,-3 -13.7,-4.5 -20.9,-4.5 C 91.7,68 68.7,91 68.7,119.2 c 0,12.2 3.8,23 11.3,32 l -1.7,2.6 C 70.1,144.2 65.8,132.2 65.8,119.2 65.7,89.3 90,65 119.9,65 c 7.9,0 15.5,1.7 22.7,5 -0.3,0.6 -0.6,1.3 -0.9,1.9 0.6,-0.4 1.2,-0.6 1.6,-0.7 0,0 0,0 0,0.1 0,0.8 -0.2,2.4 -1.1,4.3 l 0.3,0.1 3.1,-6.8 -1.1,-0.4"
   id="path1273"
   style="stroke-width:2.27563" />
		<path
   class="st4"
   d="m 144,57.4 -5.4,6.8 c 0.5,0.2 1,0.3 1.5,0.5 l 5.3,-6.8 C 145,57.8 144.5,57.6 144,57.4"
   id="path1275"
   style="stroke-width:2.27563" />
		<path
   class="st4"
   d="m 133.5,54.3 -3.1,7.8 c 0.5,0.1 1,0.2 1.5,0.3 l 3.1,-7.8 c -0.5,-0.1 -1,-0.2 -1.5,-0.3"
   id="path1277"
   style="stroke-width:2.27563" />
		<path
   class="st4"
   d="m 120.9,52.9 -0.8,8.3 c 0.5,0 1,0 1.5,0 l 0.8,-8.2 c -0.5,-0.1 -1,-0.1 -1.5,-0.1"
   id="path1279"
   style="stroke-width:2.27563" />
		<path
   class="st4"
   d="m 108.7,53.8 1.6,8.1 c 0.5,-0.1 1,-0.2 1.5,-0.2 l -1.6,-8.1 c -0.5,0 -1,0.1 -1.5,0.2"
   id="path1281"
   style="stroke-width:2.27563" />
		<path
   class="st4"
   d="m 96.8,57 3.7,7.4 c 0.5,-0.2 0.9,-0.3 1.4,-0.5 l -3.7,-7.5 c -0.4,0.2 -0.9,0.4 -1.4,0.6"
   id="path1283"
   style="stroke-width:2.27563" />
		<path
   class="st4"
   d="m 85.6,62.4 5.5,6.3 C 91.5,68.5 92,68.2 92.4,68 l -5.6,-6.4 c -0.4,0.3 -0.8,0.6 -1.2,0.8"
   id="path1285"
   style="stroke-width:2.27563" />
		<path
   class="st4"
   d="m 75.4,70.1 7,4.9 c 0.4,-0.3 0.8,-0.7 1.2,-1 l -7,-4.9 c -0.5,0.3 -0.9,0.6 -1.2,1"
   id="path1287"
   style="stroke-width:2.27563" />
		<path
   class="st4"
   d="m 66.7,79.6 8,3.1 c 0.3,-0.4 0.7,-0.8 1,-1.2 l -8.1,-3.2 c -0.3,0.5 -0.6,0.9 -0.9,1.3"
   id="path1289"
   style="stroke-width:2.27563" />
		<path
   class="st4"
   d="m 59.9,90.8 8.6,1.2 c 0.3,-0.5 0.5,-0.9 0.8,-1.4 l -8.7,-1.2 c -0.2,0.5 -0.4,0.9 -0.7,1.4"
   id="path1291"
   style="stroke-width:2.27563" />
		<path
   class="st4"
   d="m 55.5,103 8.8,-0.8 c 0.2,-0.5 0.3,-1 0.5,-1.5 l -8.9,0.8 c -0.1,0.5 -0.2,1 -0.4,1.5"
   id="path1293"
   style="stroke-width:2.27563" />
		<path
   class="st4"
   d="m 53.6,115.9 8.5,-3 c 0.1,-0.5 0.1,-1.1 0.2,-1.6 l -8.6,3 c 0,0.5 0,1 -0.1,1.6"
   id="path1295"
   style="stroke-width:2.27563" />
		<path
   class="st4"
   d="m 54.3,128.8 7.7,-5.1 c 0,-0.6 -0.1,-1.1 -0.1,-1.7 l -7.8,5.1 c 0,0.6 0.1,1.2 0.2,1.7"
   id="path1297"
   style="stroke-width:2.27563" />
		<path
   class="st4"
   d="m 57.6,141.5 6.3,-6.9 c -0.2,-0.6 -0.3,-1.2 -0.4,-1.7 l -6.4,7 c 0.1,0.5 0.3,1 0.5,1.6"
   id="path1299"
   style="stroke-width:2.27563" />
		<path
   class="st4"
   d="m 63.4,153.6 4.4,-8.4 c -0.3,-0.6 -0.5,-1.1 -0.8,-1.7 l -4.5,8.6 c 0.3,0.5 0.6,1 0.9,1.5"
   id="path1301"
   style="stroke-width:2.27563" />
		<path
   class="st4"
   d="m 71,163.7 2.4,-9.7 c -0.4,-0.5 -0.8,-1 -1.2,-1.6 l -2.4,9.9 c 0.4,0.5 0.8,0.9 1.2,1.4"
   id="path1303"
   style="stroke-width:2.27563" />
		<path
   class="st4"
   d="m 142.9,76.2 0.6,0.4 c 0.2,-0.1 0.4,-0.2 0.5,-0.2 l 0.6,-0.2 c -0.5,-0.3 -0.9,-0.6 -1.3,-1 0,0.3 -0.2,0.6 -0.4,1"
   id="path1305"
   style="stroke-width:2.27563" />
	</g><g
     id="g1357"
     transform="matrix(0.4394375,0,0,0.4394375,-17.533556,2.6410219)"
     style="stroke-width:2.27563">
		<path
   class="st4"
   d="M 221.1,70.3 V 39.2 h 9.1 l 7.1,22.1 7.2,-22.1 h 9.1 v 31.1 h -6.3 V 46.5 l -7.5,23.8 h -4.9 l -7.4,-23.6 v 23.6 z"
   id="path1309"
   style="stroke-width:2.27563" />
		<path
   class="st4"
   d="m 258.2,70.3 11.1,-31.1 h 6.6 L 287,70.3 h -6.2 l -2.5,-7.2 h -11.2 l -2.6,7.2 z m 10.3,-12.7 h 8.2 l -4.1,-12.3 z"
   id="path1311"
   style="stroke-width:2.27563" />
		<path
   class="st4"
   d="m 290.4,70.3 10.3,-15.8 -10,-15.3 h 7.8 l 6.2,10.1 6.1,-10.1 h 6.7 l -9.6,14.5 10.9,16.6 H 311 l -7,-11.2 -6.9,11.2 z"
   id="path1313"
   style="stroke-width:2.27563" />
		<path
   class="st4"
   d="m 221.1,113.2 v -31 h 11.4 c 2.3,0 4.3,0.4 6.1,1.2 1.8,0.8 3.2,1.9 4.2,3.4 1,1.5 1.6,3.4 1.6,5.6 0,2.1 -0.5,3.8 -1.4,5.3 -0.9,1.5 -2.2,2.6 -3.9,3.4 -1.7,0.8 -3.6,1.2 -5.8,1.2 h -5.9 v 11.1 h -6.3 z m 6.3,-15.9 h 5.8 c 1.6,0 2.9,-0.5 3.9,-1.5 1,-1 1.5,-2.3 1.5,-3.7 0,-1.5 -0.5,-2.8 -1.6,-3.7 -1.1,-0.9 -2.3,-1.4 -3.9,-1.4 h -5.7 z"
   id="path1315"
   style="stroke-width:2.27563" />
		<path
   class="st4"
   d="m 249.2,113.2 v -31 h 6.3 v 25.7 H 269 v 5.3 z"
   id="path1317"
   style="stroke-width:2.27563" />
		<path
   class="st4"
   d="m 272.3,113.2 11.1,-31.1 h 6.6 l 11.1,31.1 h -6.2 l -2.5,-7.2 h -11.2 l -2.6,7.2 z m 10.3,-12.6 h 8.2 l -4.1,-12.3 z"
   id="path1319"
   style="stroke-width:2.27563" />
		<path
   class="st4"
   d="m 305.8,113.2 v -31 h 6.2 l 14.2,20.6 V 82.2 h 6.3 v 31.1 h -5.6 L 312.1,91.9 v 21.4 h -6.3 z"
   id="path1321"
   style="stroke-width:2.27563" />
		<path
   class="st4"
   d="m 352,113.7 c -2.9,0 -5.4,-0.7 -7.5,-2 -2.1,-1.3 -3.7,-3.2 -4.9,-5.7 -1.1,-2.4 -1.7,-5.3 -1.7,-8.5 0,-3.3 0.6,-6.1 1.7,-8.4 1.1,-2.3 2.7,-4.1 4.9,-5.4 2.1,-1.3 4.6,-1.9 7.5,-1.9 2.3,0 4.4,0.5 6.2,1.4 1.8,0.9 3.3,2.2 4.4,3.8 1.1,1.6 1.8,3.4 2,5.5 H 358 c -0.2,-1.1 -0.6,-2 -1.1,-2.9 -0.5,-0.8 -1.2,-1.5 -2.1,-2 -0.9,-0.5 -1.9,-0.7 -3.1,-0.7 -1.4,0 -2.7,0.4 -3.7,1.1 -1,0.7 -1.8,1.8 -2.4,3.4 -0.6,1.6 -0.8,3.6 -0.8,6.2 0,3.9 0.6,6.7 1.9,8.4 1.2,1.7 2.9,2.6 5.1,2.6 1.2,0 2.2,-0.3 3.1,-0.8 0.9,-0.6 1.6,-1.3 2.1,-2.2 0.5,-0.9 0.9,-1.9 1.1,-3 h 6.6 c -0.2,1.5 -0.5,2.9 -1.1,4.2 -0.5,1.3 -1.3,2.5 -2.3,3.6 -1,1 -2.2,1.9 -3.8,2.5 -1.4,0.5 -3.3,0.8 -5.5,0.8 z"
   id="path1323"
   style="stroke-width:2.27563" />
		<path
   class="st4"
   d="m 370.2,113.2 v -31 h 6.5 V 96.4 L 388,82.2 h 7.2 l -9.4,12 10.6,19 h -6.8 l -8.2,-14.5 -4.6,5.5 v 8.9 h -6.6 z"
   id="path1325"
   style="stroke-width:2.27563" />
		<g
   id="g1341"
   style="stroke-width:2.27563">
			<path
   class="st11"
   d="m 221.1,156.2 v -31.1 c 0.2,0 0.6,0 1.3,0 0.7,0 1.6,0 2.6,0 1,0 2,0 2.9,0 1,0 1.8,0 2.5,0 3.8,0.1 6.8,0.8 9.2,2 2.4,1.3 4.1,3 5.2,5.3 1.1,2.3 1.7,4.9 1.7,8 0,3.2 -0.6,6 -1.8,8.3 -1.2,2.3 -3,4.1 -5.4,5.4 -2.4,1.3 -5.5,1.9 -9.2,1.9 h -9 z m 6.3,-5.1 h 2.9 c 1.8,0 3.4,-0.3 4.8,-1 1.5,-0.7 2.6,-1.8 3.5,-3.4 0.9,-1.6 1.3,-3.6 1.3,-6.2 0,-2.4 -0.4,-4.4 -1.2,-5.9 -0.8,-1.5 -1.9,-2.6 -3.3,-3.3 -1.4,-0.7 -3.1,-1.1 -5.1,-1.1 h -3 v 20.9 z"
   id="path1327"
   style="stroke-width:2.27563" />
			<path
   class="st11"
   d="m 252.1,156.2 v -31.1 h 6.2 v 31.1 z"
   id="path1329"
   style="stroke-width:2.27563" />
			<path
   class="st11"
   d="m 277.8,156.6 c -2.8,0 -5.3,-0.6 -7.4,-1.9 -2.1,-1.3 -3.7,-3.1 -4.9,-5.5 -1.1,-2.4 -1.7,-5.2 -1.7,-8.4 0,-3.3 0.6,-6.1 1.8,-8.5 1.2,-2.4 2.9,-4.2 5,-5.6 2.1,-1.3 4.7,-2 7.5,-2 1.8,0 3.5,0.3 5,0.9 1.5,0.6 2.8,1.4 4,2.4 1.1,1 2,2.2 2.6,3.4 0.6,1.3 1,2.6 1,4 h -6.6 c -0.2,-1 -0.6,-1.9 -1.1,-2.7 -0.6,-0.8 -1.3,-1.5 -2.1,-2 -0.9,-0.5 -1.9,-0.7 -3,-0.7 -1.4,0 -2.6,0.4 -3.7,1.1 -1.1,0.7 -2,1.8 -2.6,3.4 -0.6,1.5 -1,3.6 -1,6.1 0,2 0.2,3.8 0.6,5.1 0.4,1.4 1,2.4 1.7,3.2 0.7,0.8 1.5,1.4 2.4,1.7 0.9,0.3 1.9,0.5 2.8,0.5 0.9,0 1.7,-0.2 2.5,-0.5 0.7,-0.3 1.3,-0.7 1.9,-1.2 0.5,-0.5 0.9,-1 1.2,-1.6 0.3,-0.6 0.5,-1.1 0.6,-1.7 l 0.2,-1.9 h -6.4 v -4.3 l 13,0.1 v 16.2 h -4.3 v -4.1 c -0.5,0.7 -1.2,1.4 -2,2.1 -0.8,0.7 -1.7,1.3 -2.9,1.7 -1,0.5 -2.4,0.7 -4.1,0.7 z"
   id="path1331"
   style="stroke-width:2.27563" />
			<path
   class="st11"
   d="m 297.9,156.2 v -31.1 h 6.2 v 31.1 z"
   id="path1333"
   style="stroke-width:2.27563" />
			<path
   class="st11"
   d="m 317.8,156.2 v -25.5 h -9.4 v -5.6 h 24.8 v 5.6 H 324 v 25.5 z"
   id="path1335"
   style="stroke-width:2.27563" />
			<path
   class="st11"
   d="m 331.5,156.2 11.1,-31.1 h 6.6 l 11.1,31.1 h -6.2 l -2.5,-7.2 h -11.2 l -2.6,7.2 z m 10.3,-12.7 h 8.2 l -4.1,-12.3 z"
   id="path1337"
   style="stroke-width:2.27563" />
			<path
   class="st11"
   d="m 365,156.2 v -31.1 h 6.3 v 25.7 h 13.5 v 5.3 H 365 Z"
   id="path1339"
   style="stroke-width:2.27563" />
		</g>
		<path
   class="st4"
   d="M 221.1,199.1 V 168 h 6.3 v 25.7 h 13.5 v 5.3 h -19.8 z"
   id="path1343"
   style="stroke-width:2.27563" />
		<path
   class="st4"
   d="M 245.9,199.1 V 168 h 6.2 v 31.1 z"
   id="path1345"
   style="stroke-width:2.27563" />
		<path
   class="st4"
   d="M 259.1,199.1 V 168 h 11.3 c 4.1,0 7.1,0.7 9.1,2.1 2,1.4 3,3.4 3,6 0,1.5 -0.4,2.9 -1.2,4 -0.8,1.1 -2.2,2.1 -4.2,3 1.3,0.3 2.4,0.8 3.2,1.3 0.8,0.6 1.4,1.2 1.8,1.9 0.4,0.7 0.7,1.4 0.9,2.1 0.2,0.7 0.2,1.5 0.2,2.2 0,2.9 -1,5 -2.9,6.4 -1.9,1.4 -5,2.1 -9.3,2.1 z m 6.3,-18.2 h 6 c 0.6,0 1.3,-0.1 1.9,-0.2 0.6,-0.2 1.1,-0.4 1.6,-0.7 0.5,-0.3 0.8,-0.7 1.1,-1.2 0.3,-0.5 0.4,-1.1 0.4,-1.8 0,-1.3 -0.5,-2.4 -1.5,-3.1 -1,-0.7 -2.3,-1 -3.9,-1 h -5.6 z m 0,13.4 h 5.6 c 1.9,0 3.3,-0.4 4.3,-1.1 1,-0.8 1.5,-1.8 1.5,-3 0,-0.9 -0.2,-1.7 -0.7,-2.3 -0.5,-0.6 -1.1,-1.1 -1.9,-1.4 -0.8,-0.3 -1.7,-0.5 -2.8,-0.5 h -6 z"
   id="path1347"
   style="stroke-width:2.27563" />
		<path
   class="st4"
   d="M 289.1,199.1 V 168 h 13.1 c 2.5,0 4.5,0.4 6.1,1.2 1.6,0.8 2.7,1.9 3.5,3.3 0.7,1.4 1.1,3 1.1,4.8 0,1.6 -0.3,3 -0.8,4.1 -0.5,1.1 -1.2,2.1 -2,2.8 -0.8,0.7 -1.7,1.4 -2.7,1.8 l 5.8,13 h -6.5 l -5,-12 h -6.3 v 12 h -6.3 z m 6.3,-16.8 h 5.7 c 1.7,0 3,-0.5 4,-1.4 1,-0.9 1.5,-2.1 1.5,-3.5 0,-1.4 -0.5,-2.6 -1.4,-3.4 -0.9,-0.8 -2.1,-1.2 -3.6,-1.2 h -6.2 z"
   id="path1349"
   style="stroke-width:2.27563" />
		<path
   class="st4"
   d="M 317,199.1 328.1,168 h 6.6 l 11.1,31.1 h -6.2 l -2.5,-7.2 h -11.2 l -2.6,7.2 z m 10.3,-12.6 h 8.2 l -4.1,-12.3 z"
   id="path1351"
   style="stroke-width:2.27563" />
		<path
   class="st4"
   d="M 350.5,199.1 V 168 h 13.1 c 2.5,0 4.5,0.4 6.1,1.2 1.6,0.8 2.7,1.9 3.5,3.3 0.7,1.4 1.1,3 1.1,4.8 0,1.6 -0.3,3 -0.8,4.1 -0.5,1.1 -1.2,2.1 -2,2.8 -0.8,0.7 -1.7,1.4 -2.7,1.8 l 5.8,13 h -6.5 l -5,-12 h -6.3 v 12 h -6.3 z m 6.3,-16.8 h 5.7 c 1.7,0 3,-0.5 4,-1.4 1,-0.9 1.5,-2.1 1.5,-3.5 0,-1.4 -0.5,-2.6 -1.4,-3.4 -0.9,-0.8 -2.1,-1.2 -3.6,-1.2 h -6.2 z"
   id="path1353"
   style="stroke-width:2.27563" />
		<path
   class="st4"
   d="M 386.8,199.1 V 186 L 376,168 h 6.8 l 7.2,12.6 7.1,-12.6 h 6.9 l -10.8,18 v 13.1 z"
   id="path1355"
   style="stroke-width:2.27563" />
	</g></g>
</svg>
