<?xml version="1.0" encoding="UTF-8" standalone="no"?>
<svg
   xmlns:dc="http://purl.org/dc/elements/1.1/"
   xmlns:cc="http://creativecommons.org/ns#"
   xmlns:rdf="http://www.w3.org/1999/02/22-rdf-syntax-ns#"
   xmlns:svg="http://www.w3.org/2000/svg"
   xmlns="http://www.w3.org/2000/svg"
   width="53.46196mm"
   height="22.593098mm"
   viewBox="0 0 53.46196 22.593097"
   version="1.1"
   id="svg5086">
  <defs
     id="defs5080" />
  <metadata
     id="metadata5083">
    <rdf:RDF>
      <cc:Work
         rdf:about="">
        <dc:format>image/svg+xml</dc:format>
        <dc:type
           rdf:resource="http://purl.org/dc/dcmitype/StillImage" />
        <dc:title></dc:title>
      </cc:Work>
    </rdf:RDF>
  </metadata>
  <g
     id="layer1"
     transform="translate(-83.628146,-49.321359)">
    <path
       style="opacity:1;fill:#f4f4f7;fill-opacity:1;fill-rule:nonzero;stroke:none;stroke-width:0.61377448;stroke-linecap:square;stroke-linejoin:round;stroke-miterlimit:8;stroke-dasharray:none;stroke-dashoffset:0;stroke-opacity:1;paint-order:fill markers stroke"
       d="m 0.02539063,13.167188 c 0,0 -0.09663925,52.498484 0.08398437,85.332812 55.984191,-0.354508 111.897575,0.04536 167.882815,0.03516 18.82375,0 34.04127,-15.404737 34.04883,-34.228515 0.008,-17.805381 0.0195,-51.139457 0.0195,-51.139457 -67.5931,-0.07788 -140.928158,0.07242 -202.03515937,0 z"
       transform="matrix(0.26458333,0,0,0.26458333,83.62826,45.843645)"
       id="rect2798" />
    <g
       id="g1844"
       transform="matrix(0.20684125,0,0,-0.20684125,83.354537,77.129704)">
      <path
         d="m 28.013093,72.900896 c 0,-15.3946 12.5246,-27.918 27.9199,-27.918 15.3946,0 27.9172,12.5234 27.9172,27.918 0,15.3933 -12.5226,27.916004 -27.9172,27.916004 -15.3953,0 -27.9199,-12.522704 -27.9199,-27.916004 z m 0.78242,0 c 0,14.9629 12.17268,27.136704 27.13748,27.136704 14.9621,0 27.1348,-12.173804 27.1348,-27.136704 0,-14.9649 -12.1727,-27.1387 -27.1348,-27.1387 -14.9648,0 -27.13748,12.1738 -27.13748,27.1387"
         style="fill:#434343;fill-opacity:1;fill-rule:nonzero;stroke:none;stroke-width:0.45000002;stroke-miterlimit:8;stroke-dasharray:none"
         id="path14" />
      <path
         d="m 63.676393,56.109896 c -0.6778,-2.34966 -1.002,-3.56255 0.0574,-5.98442 0.01,-0.0918 0.1125,-0.39063 0,-0.43164 -1.1707,0.23437 -1.4812,0.33398 -2.5801,0.41601 -1.0144,0.17578 -2.7011,-0.10547 -3.8289,-0.0957 -0.882,-0.0293 -1.7754,-0.0606 -2.6984,-0.17383 -0.2762,0.14453 -0.0613,0.45117 -0.041,0.65625 0.1027,0.32031 0.1113,0.48438 0.1437,0.85156 0.1434,0.1543 0.3192,0.0723 0.4922,0.14454 0.5945,0.0918 1.0984,0.61523 1.2422,1.1707 0.1844,0.58125 -0.0207,1.22969 -0.2871,1.78633 -0.0528,0.16406 -0.2785,0.28515 -0.1856,0.44726 0.7293,1.36724 0.2149,2.75194 -0.0293,4.08594 -0.257,0.9453 -0.6476,1.9883 -0.8019,2.9863 0.0312,0.1016 -0.1024,0.3379 0.123,0.3575 l 0.0821,-0.0196 c 0.7793,-0.9433 3.0117,-2.9414 3.8496,-3.5918 0.8351,-0.6484 2.9941,-1.9082 4.4004,-2.248 0.132,-0.1114 0.1113,-0.2031 0.0617,-0.3574 z m -10.3887,-2.42192 c 0,0.12305 0.009,0.17187 0.1016,0.21289 h 0.5078 c 0.448,-0.0137 1.0281,-0.16406 1.45,0.27344 0.2433,-0.01 0.2637,-0.29688 0.3281,-0.51953 0.0586,-0.3125 0.0442,-0.50977 0.0442,-0.78711 -0.1008,-0.22188 -0.2141,-0.56055 -0.4434,-0.70118 -0.3652,-0.16992 -0.7316,-0.13671 -1.0801,0 -0.5285,0.31446 -0.914,0.81446 -0.9082,1.52149 z m 0.8641,-2.58985 c -0.0645,-0.61328 -0.8328,-1.15234 -1.2098,-1.25976 -0.3762,-0.10938 -1.5031,-0.0566 -1.8262,0.0566 -0.3222,0.10937 -1.1125,1.6543 -1.0214,2.45703 0,0.66016 0.1785,1.71094 0.4421,1.79375 0.2668,0.0832 0.97,0.041 0.97,0.041 0.2929,0.0187 0.5156,-0.0496 0.7734,-0.0809 0.1844,-0.0703 0.0547,-0.30078 0.1191,-0.43164 0.0829,-0.3418 0.1024,-0.71094 0.3145,-1.05274 0.2957,-0.57226 0.8379,-0.91289 1.3738,-1.11328 0.1203,-0.11055 0.0528,-0.25976 0.0645,-0.41016 z m -4.3809,-1.06054 c -0.2098,-0.21485 -0.3269,-0.11328 -0.539,-0.13477 -0.6036,0.16602 -0.9598,0.42774 -1.1309,1.10938 -0.2215,0.95508 -0.2156,2.0039 0,2.97656 l 0.0969,0.0762 c 0.4246,0.0469 1.0672,0.13477 1.2402,0.0391 0.1758,-0.0977 -0.1875,-1.81054 -0.1875,-1.81054 -0.01,-0.33985 0.1551,-1.21094 0.3105,-1.66211 0.0321,-0.0664 0.3809,-0.41602 0.2098,-0.59375 z m 7.1438,20.34371 -0.0215,-0.5859 c -0.052,-0.5324 -0.3008,-1.1465 -0.802,-1.4453 -0.2988,0.0703 -0.1933,0.4316 -0.2664,0.6777 0.1922,0.5332 0.5653,0.9735 0.8758,1.4453 0.041,0.0321 0.0852,0.0508 0.1289,0.0321 z m 4.3535,4.7227 c -0.3106,-0.1445 -0.6301,-0.1758 -0.9758,-0.0164 -0.0879,0.118 -0.3719,0.2156 -0.2578,0.3914 0.2492,0.4043 0.6711,0.7383 0.9308,1.1348 l 0.1211,0.0625 c 0.5243,0.6367 1.3555,1.1699 2.1407,1.6464 l 0.4754,0.2071 c 0.1015,0.1023 0.3449,0.3183 0.4394,0.0957 0.0168,-0.8281 -0.334,-1.711 -1.1219,-2.2969 -0.4785,-0.3555 -0.6828,-0.2852 -1.1113,-0.3105 l -0.2187,-0.3985 c -0.0528,-0.1984 -0.2239,-0.3976 -0.4219,-0.5156 z m -1.7063,-7.8047 c -0.1433,-0.0859 -1.3847,0.3867 -1.2383,0.2559 -0.2957,0.3183 0.1848,0.4257 -0.9082,0.8359 l -0.2664,-0.0254 c -0.0332,-0.0332 -0.13,-0.082 -0.2285,0.0547 -0.01,0.1641 0.2071,0.1395 0.2754,0.3445 0.3914,0.8801 0.1758,1.5657 0.1375,2.4778 l 0.2902,0.75 c 0.5477,0.6621 0.5477,0.7558 0.92,1.1152 0.3718,0.5254 0.45,0.5625 0.9492,0.9941 0.082,0.0704 0.2312,0.125 0.3301,0.043 0.2351,-0.1836 0.2468,-0.3047 0.3164,-0.5391 0.1179,-0.873 -0.4094,-1.4707 -1.0461,-1.9414 -0.4531,-0.3906 -0.8836,-0.9961 -0.7852,-1.5918 l 0.0383,-0.041 c 0.2078,0.1746 0.4668,0.2754 0.5547,0.4922 0.3426,0.7676 1.2703,1.118 1.7898,1.7852 0.2246,0.4004 0.0852,1.0937 0,1.5547 -0.003,-0.0118 0.6789,0.3222 0.4942,0.2031 0.3234,-0.1328 0.2844,-0.3672 0.4406,-0.6621 0.3047,-0.7715 0.2781,-1.4649 -0.1914,-2.1328 l -1.2949,-1.6133 c -0.0196,-0.8223 0.2058,-1.8789 -0.5774,-2.3594 z m 5.4766,12.2754 0.0898,0.1121 c 0.4016,0.1926 0.7746,0.3391 1.2219,0.468 l 0.534,0.1406 c 0.1406,0.127 0.3926,0.2324 0.5363,0.0488 0.008,-0.6914 -0.5097,-1.5234 -1.2754,-1.8418 -0.2422,-0.1054 -0.5625,-0.1386 -0.8488,-0.2101 -0.0703,0.0617 -0.3027,-0.0692 -0.373,0.1047 0.0441,0.3476 0.1769,0.8672 0.1152,1.1777 z m 5.1562,1.2949 c -0.0261,-0.498 -0.6894,-0.9082 -1.2449,-1.0644 -0.2375,-0.0352 -0.4543,-0.0215 -0.6652,-0.0215 -0.0527,0.039 -0.1172,0.084 -0.1082,0.1375 0.0351,0.2355 0.073,0.375 0.0906,0.5871 l 0.1379,0.0996 c 0.4891,0.0996 1.0898,0.207 1.582,0.3379 0.0731,-0.0156 0.1629,-0.01 0.2078,-0.0762 z m -15.8261,-9.9492 c 1.4375,2.5742 3.1816,4.8125 5.05,7.1113 l 2.6172,2.9727 c 1.866,1.9922 3.9285,4.0332 6.2168,5.6133 0.2871,0.166 0.4128,0.5 0.7089,0.2644 l 0.2696,-0.2469 c 0.1816,-0.205 0.0234,-0.7871 -0.1614,-0.9511 -0.1464,-0.1211 -0.2898,-0.2383 -0.4336,-0.3555 0.4454,-0.4434 1.0899,-1.2832 1.6204,-1.8273 0.2312,-0.2391 0.1609,-0.4871 0.5761,-0.6805 0.2078,-0.0977 0.2664,-0.3242 0.1434,-0.5195 -0.3691,-0.4707 -0.9844,-0.3996 -1.4668,-0.5223 -1.7957,-0.3996 -3.2469,-0.9133 -5.2324,-1.8781 -1.5907,-0.8418 -2.8621,-1.7735 -4.0137,-3.2207 -0.4395,-0.545 -0.9324,-0.9551 -1.3008,-1.6114 -1.0469,-1.3457 -1.8777,-2.6074 -2.7097,-3.9902 -0.2969,-0.4375 -0.3957,-0.6543 -0.8118,-1.0488 -0.2019,-0.1914 -0.3816,0.209 -0.5078,0.3476 -0.0144,0.0164 -0.0234,0.034 -0.034,0.0508 -0.0421,-0.006 -0.0859,0.002 -0.1289,0.0305 -0.1125,0.1433 -0.4629,0.2058 -0.4015,0.4617 z m 16.6496,9.6094 c -0.0567,-0.0586 -0.1289,-0.1348 -0.2258,-0.1094 -0.2168,0.1523 -0.1348,0.3457 -0.1199,0.5293 0.0437,0.0437 0.0515,0.0684 0.1199,0.0684 0.1047,0.0175 0.1613,-0.0586 0.2012,-0.1114 0.0625,-0.1191 0.0715,-0.2539 0.0246,-0.3769 z m -24.1113,-29.5137 c -0.4192,-0.01 -0.7149,0.21875 -0.9114,0.7168 -0.1961,0.63086 -0.2617,1.1875 -0.1258,1.83789 0.0438,0.0801 0.1368,0.13477 0.1961,0.10742 l 0.586,0.19922 c 0.1984,0.0801 0.3593,0.10547 0.5468,0.0625 l 0.1184,-0.11719 c -0.009,-0.34375 -0.0937,-0.5957 -0.1027,-0.91211 -0.0332,-0.79296 -0.1004,-1.03125 0.1289,-1.7871 -0.0848,-0.20118 -0.2547,-0.10547 -0.4363,-0.10743 z m -1.75,2.2168 c -0.093,-0.16602 -0.0793,-0.27539 -0.1223,-0.47461 -0.0496,-0.0898 -0.3055,0.0332 -0.3867,0.084 -0.3192,0.17187 -0.2969,0.0848 -0.3895,0.3789 -0.0508,0.19922 -0.0449,0.42969 0.2832,0.60352 0.2051,0.11523 0.6153,0.25586 0.7481,0 0.041,-0.17383 -0.1641,-0.39453 -0.1328,-0.5918 z m 29.3328,16.916 c -0.7391,1.7051 -1.5703,3.1719 -2.1766,4.8848 -0.4309,0.6152 -0.1828,1.2734 -0.2344,1.9297 -0.2785,1.0254 -0.709,1.8164 -1.1191,2.8125 -0.1125,0.2851 0.2051,0.3691 0.3183,0.5722 0.1856,0.5039 0.0528,1.0684 -0.175,1.5489 -0.0906,0.2793 0.2375,0.4738 0.175,0.7597 -0.0109,0.4414 -0.4003,0.7403 -0.7082,0.9746 -0.4628,0.668 -0.6765,1.0176 -1.2507,1.6231 v 0.1113 c 0.2859,0.2567 0.5234,0.6973 0.5125,1.0781 -0.1121,0.4317 -0.2051,0.8301 -0.6161,1.1289 -0.6562,0.3692 -1.3234,-0.205 -1.8457,-0.5031 -0.1457,-0.1004 -0.2168,-0.2058 -0.4218,-0.1844 -0.134,0.045 -0.2696,0.0957 -0.4102,0.1446 -0.134,-0.1524 -0.3008,-0.3125 -0.5031,-0.4746 l 0.6359,-0.2578 c 0.0235,-0.0176 0.0321,-0.0313 0.0321,-0.0528 0,-0.0117 -0.004,-0.0312 -0.007,-0.0488 -0.0441,-0.0391 -1.4758,-1.293 -1.4758,-1.293 -0.004,-0.002 -2.5808,-2.5488 -2.5808,-2.5488 l -0.7383,-0.75 c -0.004,-0.004 -2.291,-2.6387 -2.291,-2.6387 -1.1985,-1.3906 -2.966,-3.6679 -4.0313,-5.3359 -0.5519,-0.7637 -1.1047,-1.6113 -1.6203,-2.4102 -0.0555,-0.0898 -0.1609,-0.082 -0.325,-0.0625 -0.1144,0.0117 -0.2316,0.0235 -0.3351,-0.0117 0.003,0 0.004,0 0.004,0 l -0.0235,-0.006 c 0.006,0 0.0137,0 0.0196,0.006 -0.5821,-0.0656 -1.0047,-0.2598 -1.4579,-0.668 -0.589,-0.6933 -0.8847,-1.5312 -0.8847,-2.4375 0,-0.6211 0.1426,-1.2773 0.4277,-1.9355 -0.1203,-0.3516 -0.3965,-0.6641 -0.6445,-0.9414 l -0.1379,-0.1524 -0.1758,-0.1718 c -0.1141,-0.1114 -0.2461,-0.2344 -0.3406,-0.3555 l -0.009,-0.01 -0.006,-0.0156 c -0.0105,-0.0391 -0.0164,-0.1113 0.0977,-0.166 l 0.0266,-0.0137 0.0293,0.006 c 0.5418,0.1289 0.8836,0.5371 1.2148,0.9316 0,0 0.209,0.2383 0.2383,0.2742 0.0488,0.011 0.0898,-0.0183 0.1609,-0.0789 0.0371,-0.0312 0.0793,-0.0605 0.1289,-0.0839 0,-0.0118 0,-0.0274 0,-0.0274 0,0 -0.007,-0.1738 -0.009,-0.2148 -1.2832,-1.2657 -2.3293,-1.9844 -3.6945,-2.7871 l -0.2285,-0.1309 0.2637,-0.0293 c 0.5332,-0.0527 1.039,0.24801 1.5285,0.5352 l 0.5867,0.3261 c 0.5449,0.27741 1.0488,0.7032 1.5371,1.1133 0,0 0.4406,0.3652 0.4895,0.4051 0.0449,-0.007 0.0964,-0.0652 0.1355,-0.1141 0,0 0.0293,-0.0312 0.0488,-0.0508 0.009,-0.0156 0.4102,-0.8086 0.4348,-0.8593 -0.0938,-0.3758 -0.132,-0.752 -0.132,-1.1309 0,-0.8203 0.1757,-1.6367 0.3515,-2.4375 0.1731,-0.791 0.3508,-1.6035 0.3508,-2.4043 0,-0.0508 -0.002,-0.1047 -0.003,-0.1582 0,-0.2461 -0.2715,-0.5742 -0.4969,-0.6777 -0.5129,-0.0879 -1.132,-0.0938 -1.7883,-0.0996 -0.8047,-0.006 -1.6375,-0.0129 -2.2761,-0.1856 -0.2071,-0.0265 -0.4454,-0.0918 -0.677,-0.1582 -0.2273,-0.0625 -0.4598,-0.1269 -0.6785,-0.1582 l -0.0207,-0.004 -0.0242,-0.0176 -0.0793,-0.0527 c -0.0731,-0.0488 -0.1629,-0.1035 -0.1864,-0.2109 0,-0.01 -10e-4,-0.0196 -10e-4,-0.0286 0,-0.0632 0.0273,-0.1296 0.0742,-0.1765 0.0441,-0.0449 0.0996,-0.0684 0.1582,-0.0625 0.1933,0 0.4101,0.0801 0.6203,0.1562 0.1465,0.0528 0.2996,0.1074 0.4402,0.1348 1.336,0.2266 2.8028,0.1797 3.7942,0.0996 0.489,0.008 1.2949,0.0234 1.5847,0.7207 0.1047,0.2813 0.1407,0.543 0.1407,0.7969 0,0.2773 -0.0438,0.5457 -0.0879,0.8203 l -0.0879,0.6758 c -0.0586,0.414 -0.1465,0.8261 -0.2313,1.2246 -0.1496,0.709 -0.3047,1.4355 -0.3047,2.1738 0,0.1504 0.009,0.2988 0.0223,0.4512 0.0129,0.0176 0.0293,0.041 0.0481,0.0449 0.0437,0.006 0.1191,-0.0566 0.1785,-0.1035 0.0703,-0.0527 0.1406,-0.1055 0.2168,-0.125 0.0898,-0.0684 0.1906,-0.0871 0.2812,-0.0977 0.1281,-0.0175 0.1965,-0.0351 0.2375,-0.1308 0.0574,-0.6496 0.2813,-1.3203 0.4981,-1.9668 0.1484,-0.4461 0.3035,-0.9082 0.4011,-1.3594 0.1778,-0.7871 0.3547,-1.5879 0.3547,-2.375 0,-0.4707 -0.0625,-0.9375 -0.2285,-1.3926 -0.343,-0.62693 -1.091,-0.62771 -1.8164,-0.62888 h -0.2168 l -1.7754,0.10546 c -1.5215,0.11133 -3.0969,0.22266 -4.7109,-0.0371 0.0117,0.002 -0.3613,-0.0371 -0.3613,-0.0371 -0.1993,-0.0313 -0.3868,-0.0566 -0.5879,-0.008 -0.0762,0.0586 -0.136,0.16407 -0.136,0.2715 0,0.0352 0.006,0.0723 0.0188,0.10545 0.2898,0.6367 0.4336,1.2129 0.4336,1.7215 0,0.4113 -0.095,0.7805 -0.2844,1.1066 -0.416,0.7989 -0.8758,1.3535 -1.4414,1.741 -0.6942,0.6946 -1.2859,1.3079 -1.8133,1.9055 -0.3078,0.041 -0.498,0.1035 -0.5168,0.1094 l -0.0691,0.0234 -0.3078,-0.3808 c 0.4003,-0.3801 0.7695,-0.7598 1.2218,-1.17 0.6856,-0.3703 1.2422,-1.0371 1.7332,-1.4882 0.5957,-0.6973 0.7383,-1.4356 0.6153,-2.2578 -0.0821,-0.9727 -0.9746,-1.39457 -1.5809,-2.04302 -0.2441,-0.46092 -0.3996,-1.01367 -0.0617,-1.44531 0.2168,-0.57225 1.1398,-0.4707 1.2531,-0.94336 0.2528,-1.04101 2.0606,-1.64453 2.4141,-1.66992 0.3515,-0.0234 0.7156,-0.41211 0.7156,-0.41211 0.718,-0.52265 1.6613,-0.39844 2.1582,-0.32031 0.4934,0.0742 1.3809,-0.32617 1.9348,-0.24414 0.832,0.32812 1.5086,0.17578 2.3699,0.24609 2.7102,-0.041 5.7883,0.0195 8.5566,-0.32812 0.5137,0.0605 1.1289,-0.33907 1.6125,-0.0937 0.1231,0.20586 0.0293,0.38086 0,0.55468 -1.3222,2.08204 -1.5234,4.41994 -0.7714,6.68827 l 0.5007,-0.0293 c 1.7961,-0.1941 3.4309,0.0403 5.2539,1.0949 0.9141,0.5039 1.3946,1.6778 1.3536,2.5313 -0.0301,0.5527 -0.2227,1.207 -0.1297,1.793 0.0332,0.2597 0.205,0.6562 0.4304,0.7812 0.095,0.0527 0.4317,0.2813 0.5371,0.5742 0.175,0.4746 -0.1992,0.6973 -0.3046,0.7637 0.2902,0.1191 0.5703,0.7109 0.3019,1.1738 -0.1699,0.1817 -0.3691,0.9024 -0.3906,1.1387 -0.0606,0.3379 -0.0723,0.6855 0.2469,0.9023 0.7179,0.379 1.3945,0.4727 2.1437,0.8008 0.5137,0.2149 0.7793,0.75 0.7598,1.2305 z m -0.2149,-1.789 c -0.7605,-0.7082 -1.8359,-0.7188 -2.709,-1.293 -0.4011,-0.3996 -0.2988,-0.8535 -0.1347,-1.3574 0.3222,-0.6387 0.2011,-0.5723 -0.25,-0.7227 -1.0535,-0.3516 -1.0418,-1.5012 -2.3075,-1.3086 -0.0714,-0.0215 -0.3671,0.125 -0.1933,-0.0859 0.1375,-0.1621 0.1933,-0.0645 0.4629,-0.0957 0.4512,-0.0215 0.6179,0.164 0.9344,0.3808 0.4511,0.377 0.3984,0.5215 0.9543,0.7871 0.1316,0.0332 0.4597,0.1289 0.6425,0.0645 0.1231,-0.1121 0.1258,-0.1133 0.1465,-0.2168 -0.0715,-0.3105 -0.5215,-0.5645 -0.6945,-0.6738 0.2375,-0.1719 0.6797,-0.4649 0.6094,-0.711 -0.1024,-0.1621 -0.0965,-0.1875 -0.2754,-0.2746 -0.252,-0.1219 -0.7528,-0.1043 -1.2246,0.2473 -0.0704,-0.0234 -0.1493,0.1387 -0.3516,-0.0527 0.4602,-0.4747 1.1035,-0.3653 1.2004,-0.4629 0.0965,-0.0957 -0.343,-0.668 -0.3633,-0.7911 -0.3098,-0.8203 0.0703,-1.5761 -0.0957,-2.4277 -0.1027,-0.666 -0.302,-0.9824 -0.8848,-1.4043 -1.0695,-0.7402 -1.8203,-0.9551 -3.0234,-1.1484 -3.1496,-0.2129 -5.1367,0.8652 -7.4063,2.5605 -2.2675,1.6934 -3.1347,2.5957 -3.8437,3.5489 -0.01,0.3886 0.2773,0.6855 0.032,1.1082 -0.205,-0.0711 -0.1855,-0.3387 -0.3086,-0.493 -0.1746,-0.2461 -0.5945,-0.4317 -0.8933,-0.4024 -0.9336,0.3204 -0.9844,1.418 -1.5696,2.0442 -1.2507,1.2312 -1.6003,3.0066 -0.9324,4.493 0.2352,0.4628 0.6563,0.9043 1.1289,1.0671 0.5828,0.093 1.2715,0.093 1.6524,-0.4714 0.45,-0.4297 0.7265,-1.1289 0.8398,-1.7442 0.1844,-0.2988 -0.0402,-0.6367 0.2664,-0.8828 0.5332,-0.0488 0.9942,-0.1836 1.5071,0.1445 0.3808,-0.0507 0.4335,-0.4726 0.7207,-0.6562 l 0.5125,-0.3086 c 0.5421,-0.2246 1.2414,-0.2246 1.7043,0.1758 0.8621,0.8828 0.6738,1.789 0.9707,2.7636 0.8203,0.7266 1.3679,1.7696 1.3562,2.7852 -0.0508,0.627 -0.2754,1.2715 -0.6473,1.8984 0.0614,0.3692 0.2684,0.6485 0.3926,0.9766 0.1024,0.0605 0.2344,0.0605 0.3477,0.0801 0.914,0.1953 1.7441,1.0273 2.1043,1.9004 l 0.0812,0.0781 c 1.0469,0.0742 2.3496,0.4434 2.9539,1.541 0.125,0.4727 0.6563,0.1231 0.9864,0.2344 0.5519,0.0332 1.1074,0.3398 1.5293,0.7012 0.121,0.041 0.2148,-0.0938 0.2871,-0.1543 0.2441,-0.8223 0.6972,-1.6133 0.9531,-2.4434 0.3195,-0.625 0.4328,-1.2207 0.3195,-1.8574 0.1317,-0.9746 0.6856,-1.8887 1.075,-2.8731 0.3926,-1.0371 0.9961,-2.082 1.4375,-3.1484 0.0832,-0.4316 0.2676,-0.7715 0,-1.1191"
         style="fill:#434343;fill-opacity:1;fill-rule:nonzero;stroke:none;stroke-width:0.45000002;stroke-miterlimit:8;stroke-dasharray:none"
         id="path16-3" />
      <path
         d="m 69.606093,76.535596 c 0.1433,-0.1836 0.2371,-0.3476 0.123,-0.5214 -0.2668,-0.0196 -0.3086,0.3164 -0.5332,0.4316 -0.3691,0.1836 -0.6973,-0.0117 -1.0664,-0.1035 -0.9348,-0.4004 -1.7141,-1.2012 -2.6164,-1.6192 -0.1121,0 -0.2168,0.008 -0.2871,0.0899 0.1543,0.1543 0.4004,0.1855 0.5949,0.3086 0.9317,0.6152 1.8367,1.5781 3.0059,1.7539 0.3074,0.0215 0.5847,-0.0899 0.7793,-0.3399"
         style="fill:#434343;fill-opacity:1;fill-rule:nonzero;stroke:none;stroke-width:0.45000002;stroke-miterlimit:8;stroke-dasharray:none"
         id="path18" />
      <path
         d="m 68.709593,73.135196 c -0.1438,-0.2148 -0.375,-0.0273 -0.5774,-0.0527 -0.4597,0.0527 -1.2402,-0.0547 -1.75,0.008 -0.0761,0.0449 -0.1336,0.1231 -0.0867,0.1973 0.0781,0.125 0.2899,0.1348 0.4246,0.2324 0.5567,0.3484 1.1426,0.6817 1.7785,0.832 0.1161,0.0157 0.211,-0.08 0.2313,-0.1601 0.0762,-0.2949 0.0285,-0.7695 -0.0203,-1.0567 z m 0.825,1.8223 c -0.0723,0.2266 -0.0613,0.5938 -0.3387,0.6465 -0.0617,-0.1426 0,-0.2988 -0.0617,-0.4316 -0.082,-0.1016 -0.2254,-0.2247 -0.3895,-0.1836 -1.1308,-0.0715 -1.9718,-1.0684 -2.9336,-1.5821 -0.3281,-0.1836 -0.6992,-0.2871 -1.048,-0.3769 -0.0301,-0.0528 -0.0184,-0.1231 0.0293,-0.1543 1.0695,-0.1133 2.1242,-0.2168 3.1816,-0.3301 l 1.1809,0.1348 c 0.032,0.1523 -0.1535,0.2871 -0.123,0.4617 0.1335,0.4805 0.1746,1.0051 0.041,1.4562 0.0925,0.2442 0.4414,0.0625 0.4617,0.3594"
         style="fill:#434343;fill-opacity:1;fill-rule:nonzero;stroke:none;stroke-width:0.45000002;stroke-miterlimit:8;stroke-dasharray:none"
         id="path20" />
      <path
         d="m 70.130293,69.667296 c 0.0383,0.0539 0.0812,0.1144 0.132,0.1203 0.0672,-0.0254 0.1024,-0.0559 0.1113,-0.1797 -0.009,-0.1984 -0.0585,-0.4082 -0.1113,-0.627 -0.0617,-0.2519 -0.1242,-0.5078 -0.1242,-0.7597 0,-0.1113 0.0117,-0.2227 0.0422,-0.3301 0.1492,-0.1855 0.3777,-0.2266 0.6531,-0.1328 0.005,0.004 0.466,0.2676 0.466,0.2676 0.4012,0.2402 0.7821,0.4687 1.4852,0.6465 0.0176,0.004 0.0226,-0.001 0.0254,-0.002 0.01,-0.0156 0.0156,-0.041 0.0156,-0.0742 0,-0.0598 -0.0176,-0.1426 -0.0469,-0.209 -0.0273,-0.0137 -0.6765,-0.3027 -0.6765,-0.3027 -0.5129,-0.2227 -1.043,-0.4551 -1.5391,-0.7422 -0.1457,-0.0293 -0.2832,0.0508 -0.4133,0.1289 l -0.0312,0.0176 c -0.1903,0.2578 -0.25,0.5086 -0.25,0.7597 0,0.2246 0.048,0.4473 0.0996,0.6797 0.0469,0.2129 0.0918,0.4356 0.1054,0.6699 0.0157,0.0196 0.0567,0.0692 0.0567,0.0692"
         style="fill:#434343;fill-opacity:1;fill-rule:nonzero;stroke:none;stroke-width:0.45000002;stroke-miterlimit:8;stroke-dasharray:none"
         id="path22-0" />
      <path
         d="m 54.145093,69.877396 c 0.3692,-0.7597 -0.0226,-1.4757 0,-2.2668 0.0614,-0.2234 0.502,-0.2566 0.3692,-0.5222 -0.1028,-0.0703 -0.2481,-0.0918 -0.3594,-0.011 -0.2051,0.134 -0.2785,0.2356 -0.3293,0.47 -0.0516,0.7011 0.5039,1.5109 0.01,2.1668 -0.1434,0.1437 -0.3485,0.2871 -0.5535,0.298 -0.4407,-0.082 -0.6661,-0.5547 -0.8204,-0.9023 -0.2355,-0.9239 -0.2968,-1.8985 0.5125,-2.6368 0.4719,-0.2754 1.0461,-0.5742 1.0782,-1.1711 0.0703,-0.1043 0.214,-0.2039 0.3281,-0.1414 0.1437,0.008 0.1641,0.418 0.3691,0.2235 l 0.0617,-0.1434 c -0.0507,-0.1621 -0.1027,-0.4531 -0.3691,-0.4609 -0.132,-0.0293 -0.2785,0.041 -0.3898,0.123 -0.2879,0.2949 -0.0614,0.7461 -0.545,0.9434 -0.7996,0.2469 -1.3242,1.0879 -1.4062,1.8769 -0.0496,0.7598 -0.0184,1.5918 0.6387,2.2559 0.255,0.1973 0.5949,0.3215 0.923,0.2168 0.1844,-0.0293 0.4004,-0.1641 0.4824,-0.3184"
         style="fill:#434343;fill-opacity:1;fill-rule:nonzero;stroke:none;stroke-width:0.45000002;stroke-miterlimit:8;stroke-dasharray:none"
         id="path24" />
      <path
         d="m 44.258393,64.014196 c 1.0664,0.496 2.2852,0.4382 2.7449,0.3945 -0.1316,-0.4238 -0.5742,-1.5215 -1.7871,-2.1172 -1.2187,-0.5977 -2.2597,-0.4531 -2.6426,-0.3711 0.1407,0.4219 0.6125,1.5957 1.6848,2.0938 z m -0.1445,0.3144 c -1.461,-0.6777 -1.9063,-2.418 -1.927,-2.4902 l -0.0379,-0.1543 0.1512,-0.0508 c 0.0567,-0.0195 1.4133,-0.4629 3.0684,0.3476 1.6691,0.8196 2.0117,2.4715 2.0246,2.5418 l 0.0351,0.175 -0.1757,0.0293 c -0.0704,0.0118 -1.7051,0.2696 -3.1387,-0.3984"
         style="fill:#434343;fill-opacity:1;fill-rule:evenodd;stroke:none;stroke-width:0.45000002;stroke-miterlimit:8;stroke-dasharray:none"
         id="path26" />
      <path
         d="m 45.711493,67.293396 c 1.0633,0.4805 2.2227,0.418 2.668,0.3711 -0.1367,-0.4121 -0.591,-1.4648 -1.8019,-2.0449 -1.2059,-0.5762 -2.243,-0.4648 -2.6387,-0.3926 0.1691,0.4317 0.7031,1.584 1.7726,2.0664 z m -0.1418,0.3165 c -1.4636,-0.6622 -2.0039,-2.3848 -2.0261,-2.459 l -0.05,-0.1653 0.164,-0.0476 c 0.0578,-0.0215 1.4094,-0.4238 3.0696,0.3711 1.6765,0.8027 2.0312,2.3965 2.0457,2.4648 l 0.0351,0.1758 -0.1738,0.0312 c -0.0664,0.0118 -1.625,0.2793 -3.0645,-0.371"
         style="fill:#434343;fill-opacity:1;fill-rule:evenodd;stroke:none;stroke-width:0.45000002;stroke-miterlimit:8;stroke-dasharray:none"
         id="path28" />
      <path
         d="m 47.609993,70.451696 c 1.0574,0.4648 2.159,0.3984 2.5918,0.3476 -0.1438,-0.4023 -0.6067,-1.4074 -1.8184,-1.9707 -1.1926,-0.5547 -2.2207,-0.4785 -2.634,-0.4152 0.1992,0.4386 0.791,1.5695 1.8606,2.0383 z m -0.1387,0.3164 c -1.4668,-0.6446 -2.1008,-2.3497 -2.1262,-2.4239 l -0.0652,-0.1758 0.1797,-0.0488 c 0.0574,-0.0168 1.4062,-0.3789 3.0703,0.3985 1.6816,0.7812 2.0508,2.3211 2.0672,2.3867 l 0.039,0.1738 -0.1757,0.0352 c -0.0614,0.0117 -1.5418,0.289 -2.9891,-0.3457"
         style="fill:#434343;fill-opacity:1;fill-rule:evenodd;stroke:none;stroke-width:0.45000002;stroke-miterlimit:8;stroke-dasharray:none"
         id="path30" />
      <path
         d="m 49.495493,73.568796 c 1.0547,0.4512 2.0977,0.3817 2.5137,0.3301 -0.1492,-0.3926 -0.6231,-1.3535 -1.8309,-1.9004 -1.1828,-0.5351 -2.2023,-0.4902 -2.63,-0.4336 0.2285,0.4434 0.8839,1.5489 1.9472,2.0039 z m -0.1367,0.3184 c -1.4676,-0.6281 -2.1941,-2.3184 -2.2266,-2.3867 l -0.0769,-0.1875 0.1961,-0.0488 c 0.0558,-0.0149 1.4004,-0.3379 3.0703,0.4191 1.6887,0.7664 2.0695,2.2508 2.0859,2.3133 l 0.0442,0.1718 -0.1758,0.0391 c -0.0578,0.0125 -1.4609,0.3008 -2.9172,-0.3203"
         style="fill:#434343;fill-opacity:1;fill-rule:evenodd;stroke:none;stroke-width:0.45000002;stroke-miterlimit:8;stroke-dasharray:none"
         id="path32" />
      <path
         d="m 52.104093,76.687996 c 1.0508,0.4375 2.036,0.3652 2.4375,0.3105 -0.1555,-0.3828 -0.6387,-1.2968 -1.8437,-1.8293 -1.177,-0.5203 -2.1856,-0.4968 -2.6243,-0.4539 0.2637,0.4531 0.9719,1.5332 2.0305,1.9727 z m -0.1301,0.3211 c -1.4726,-0.6102 -2.2929,-2.286 -2.3261,-2.3551 l -0.0965,-0.1984 0.2137,-0.0469 c 0.0566,-0.0117 1.3984,-0.293 3.0714,0.4433 1.6961,0.75 2.0907,2.1758 2.1063,2.2383 l 0.0461,0.1719 -0.1731,0.041 c -0.0547,0.0117 -1.3816,0.3125 -2.8418,-0.2941"
         style="fill:#434343;fill-opacity:1;fill-rule:evenodd;stroke:none;stroke-width:0.45000002;stroke-miterlimit:8;stroke-dasharray:none"
         id="path34" />
      <path
         d="m 54.982993,79.699696 c 1.043,0.4219 1.9727,0.3477 2.3594,0.291 -0.1621,-0.373 -0.6563,-1.2461 -1.8605,-1.7598 -1.1661,-0.5011 -2.1629,-0.5058 -2.6133,-0.4726 0.2949,0.459 1.0597,1.5176 2.1144,1.9414 z m -0.1289,0.3203 c -1.4726,-0.5918 -2.3879,-2.2539 -2.4258,-2.3223 l -0.1113,-0.2089 0.2313,-0.045 c 0.0566,-0.008 1.3945,-0.2519 3.0703,0.4688 1.7031,0.7305 2.1125,2.1035 2.1281,2.1601 l 0.0488,0.1719 -0.1719,0.0449 c -0.0527,0.0118 -1.3007,0.3231 -2.7695,-0.2695"
         style="fill:#434343;fill-opacity:1;fill-rule:evenodd;stroke:none;stroke-width:0.45000002;stroke-miterlimit:8;stroke-dasharray:none"
         id="path36" />
      <path
         d="m 58.056093,82.545396 c 1.0343,0.4051 1.9113,0.3301 2.2832,0.2695 -0.1707,-0.3613 -0.6746,-1.1886 -1.8758,-1.6914 -1.1484,-0.4765 -2.1387,-0.5078 -2.6035,-0.4883 0.3308,0.4688 1.1484,1.5 2.1961,1.9102 z m -0.1258,0.3223 c -1.4758,-0.5782 -2.4836,-2.2207 -2.5246,-2.291 l -0.1328,-0.2208 0.2531,-0.039 c 0.0555,-0.008 1.3906,-0.2129 3.0703,0.4902 1.7109,0.7129 2.1297,2.0274 2.1473,2.084 l 0.0527,0.1699 -0.1699,0.0469 c -0.0477,0.0137 -1.2188,0.3398 -2.6961,-0.2402"
         style="fill:#434343;fill-opacity:1;fill-rule:evenodd;stroke:none;stroke-width:0.45000002;stroke-miterlimit:8;stroke-dasharray:none"
         id="path38" />
      <path
         d="m 61.253293,85.172396 c 1.0246,0.3886 1.8489,0.3105 2.2032,0.25 -0.1758,-0.3497 -0.6914,-1.1348 -1.8868,-1.6211 -1.1394,-0.4582 -2.1179,-0.5137 -2.5925,-0.5051 0.366,0.4719 1.2332,1.4816 2.2761,1.8762 z m -0.123,0.3222 c -1.4793,-0.5625 -2.5781,-2.1875 -2.625,-2.2578 l -0.1551,-0.2324 0.2781,-0.0352 c 0.0559,-0.008 1.386,-0.1699 3.0703,0.5137 1.7168,0.6973 2.1504,1.9531 2.168,2.0098 l 0.0547,0.164 -0.1668,0.0528 c -0.0461,0.0136 -1.1418,0.3476 -2.6242,-0.2149"
         style="fill:#434343;fill-opacity:1;fill-rule:evenodd;stroke:none;stroke-width:0.45000002;stroke-miterlimit:8;stroke-dasharray:none"
         id="path40" />
      <path
         d="m 64.499393,87.525896 c 1.0137,0.3711 1.7891,0.2949 2.1289,0.2304 -0.1875,-0.3359 -0.7109,-1.08 -1.9031,-1.5488 -1.125,-0.4433 -2.0918,-0.5195 -2.5754,-0.5234 0.3985,0.4765 1.3125,1.459 2.3496,1.8418 z m -0.1199,0.3242 c -1.4805,-0.5469 -2.6719,-2.1602 -2.7219,-2.2285 l -0.1765,-0.2442 0.2996,-0.0304 c 0.0547,-0.005 1.382,-0.1278 3.0703,0.5382 1.7246,0.6758 2.1699,1.877 2.1887,1.9297 l 0.0586,0.1641 -0.1641,0.0566 c -0.0422,0.0176 -1.0606,0.3633 -2.5547,-0.1855"
         style="fill:#434343;fill-opacity:1;fill-rule:evenodd;stroke:none;stroke-width:0.45000002;stroke-miterlimit:8;stroke-dasharray:none"
         id="path42" />
      <path
         d="m 40.955693,64.492696 c 0,0.0527 8.2e-4,0.1054 0.004,0.1582 0.0762,1.1855 0.7176,2.2324 0.9773,2.6113 0.3,-0.3086 1.0117,-1.1758 1.0117,-2.4512 0,-0.0488 0,-0.0996 -0.003,-0.1484 -0.0598,-1.3633 -0.6887,-2.2149 -0.9465,-2.5117 -0.291,0.3144 -1.0437,1.2285 -1.0437,2.3418 z m 0.8211,3.1406 c -0.0438,-0.0566 -1.0586,-1.375 -1.1629,-2.959 -0.1055,-1.616 1.2156,-2.8476 1.2734,-2.9004 l 0.1153,-0.1094 0.1171,0.1094 c 0.0457,0.041 1.0918,1.0203 1.1707,2.8731 0.0832,1.8672 -1.2117,2.9648 -1.2675,3.0117 l -0.1375,0.1152 -0.1086,-0.1406"
         style="fill:#434343;fill-opacity:1;fill-rule:evenodd;stroke:none;stroke-width:0.45000002;stroke-miterlimit:8;stroke-dasharray:none"
         id="path44" />
      <path
         d="m 42.840393,68.010196 c 0,0.0997 0.006,0.2051 0.0196,0.3106 0.0203,0.1816 0.0535,0.3555 0.0976,0.5156 0.2539,0.9375 0.7762,1.6699 1.0125,1.9688 0.2473,-0.2969 0.7883,-1.0625 0.7883,-2.1563 0,-0.1289 -0.0109,-0.2637 -0.0254,-0.4004 -0.1582,-1.3105 -0.8097,-2.125 -1.084,-2.414 -0.2433,0.3222 -0.8086,1.1718 -0.8086,2.1757 z m 0.9961,3.1747 c -0.0332,-0.036 -0.8586,-0.9493 -1.2129,-2.2567 -0.0468,-0.1797 -0.0851,-0.3691 -0.1066,-0.5664 -0.1902,-1.5644 0.9406,-2.8488 0.9883,-2.9023 l 0.1133,-0.127 0.1269,0.1113 c 0.0461,0.0391 1.1133,0.9649 1.3301,2.7637 0.2188,1.8176 -0.9434,2.9414 -0.991,2.9863 l -0.1281,0.1211 -0.12,-0.13"
         style="fill:#434343;fill-opacity:1;fill-rule:evenodd;stroke:none;stroke-width:0.45000002;stroke-miterlimit:8;stroke-dasharray:none"
         id="path46" />
      <path
         d="m 44.961493,71.271996 c 0,0.1601 0.0145,0.33 0.0457,0.498 0.0332,0.1836 0.0735,0.3457 0.1243,0.4942 0.3105,0.9246 0.8671,1.5937 1.1179,1.8632 0.1973,-0.2773 0.586,-0.9441 0.586,-1.8593 0,-0.2051 -0.0203,-0.4258 -0.0664,-0.6563 -0.2528,-1.2578 -0.9286,-2.0312 -1.2215,-2.3184 -0.1914,0.3262 -0.586,1.0958 -0.586,1.9786 z m 1.1864,3.2461 c -0.0379,-0.0344 -0.9032,-0.8418 -1.3446,-2.1426 -0.0558,-0.1641 -0.1007,-0.3457 -0.1379,-0.5449 -0.2753,-1.5137 0.6672,-2.8477 0.7063,-2.9063 l 0.1055,-0.1445 0.1425,0.1113 c 0.045,0.0371 1.1368,0.9082 1.4883,2.6523 0.3555,1.7684 -0.673,2.9161 -0.7168,2.9637 l -0.1172,0.1289 -0.1261,-0.1179"
         style="fill:#434343;fill-opacity:1;fill-rule:evenodd;stroke:none;stroke-width:0.45000002;stroke-miterlimit:8;stroke-dasharray:none"
         id="path48" />
      <path
         d="m 47.296293,74.268096 c 0,0.2382 0.0254,0.4851 0.0852,0.7312 0.0437,0.1867 0.0937,0.341 0.1492,0.4797 0.3722,0.9043 0.957,1.5117 1.2219,1.7539 0.1492,-0.252 0.4128,-0.8047 0.4128,-1.5527 0,-0.2813 -0.0359,-0.5918 -0.1316,-0.92 -0.3457,-1.2019 -1.041,-1.9355 -1.3535,-2.2207 -0.1379,0.3125 -0.384,0.9715 -0.384,1.7286 z m 1.3906,3.3632 c -0.0398,-0.0293 -0.9453,-0.7336 -1.4754,-2.0234 -0.0644,-0.1516 -0.1171,-0.3242 -0.1671,-0.5266 -0.3555,-1.4636 0.3925,-2.8425 0.4238,-2.9011 l 0.0937,-0.1719 0.1582,0.1152 c 0.0481,0.0332 1.1614,0.8496 1.6465,2.541 0.4934,1.7168 -0.4004,2.8887 -0.4394,2.9356 l -0.1043,0.1355 -0.136,-0.1043"
         style="fill:#434343;fill-opacity:1;fill-rule:evenodd;stroke:none;stroke-width:0.45000002;stroke-miterlimit:8;stroke-dasharray:none"
         id="path50" />
      <path
         d="m 49.813093,76.963396 c 0,0.3379 0.041,0.6972 0.1512,1.0547 0.0566,0.1816 0.1125,0.3281 0.1738,0.457 0.4395,0.8926 1.052,1.4375 1.3301,1.6562 0.1054,-0.2207 0.2687,-0.6504 0.2687,-1.2343 0,-0.3536 -0.0586,-0.7598 -0.2285,-1.2024 -0.4328,-1.1472 -1.1484,-1.8445 -1.4844,-2.1238 -0.0851,0.2793 -0.2109,0.7949 -0.2109,1.3926 z m 1.623,3.5683 c -0.039,-0.0234 -0.9816,-0.625 -1.6066,-1.9054 -0.0703,-0.1454 -0.1336,-0.3055 -0.1953,-0.5047 -0.4395,-1.416 0.1172,-2.841 0.1406,-2.9004 l 0.0793,-0.1973 0.1778,0.1172 c 0.0468,0.0332 1.1816,0.7949 1.8015,2.4305 0.6309,1.664 -0.1277,2.8586 -0.1601,2.9074 l -0.0938,0.1445 -0.1434,-0.0918"
         style="fill:#434343;fill-opacity:1;fill-rule:evenodd;stroke:none;stroke-width:0.45000002;stroke-miterlimit:8;stroke-dasharray:none"
         id="path52" />
      <path
         d="m 52.484993,79.318796 c 0,0.4571 0.0586,0.9961 0.2547,1.5059 0.0675,0.1758 0.132,0.3152 0.2011,0.4375 0.4993,0.8789 1.1379,1.3613 1.4328,1.5527 0.0653,-0.1797 0.1532,-0.4941 0.1532,-0.9238 0,-0.4102 -0.0821,-0.9141 -0.3485,-1.4727 -0.5214,-1.0976 -1.2609,-1.7519 -1.6152,-2.0253 -0.0371,0.2128 -0.0781,0.539 -0.0781,0.9257 z m 1.8953,3.9012 c -0.041,-0.0183 -1.0176,-0.5164 -1.7402,-1.7879 -0.077,-0.1347 -0.1493,-0.291 -0.2235,-0.4844 -0.5234,-1.3613 -0.1543,-2.8308 -0.1398,-2.8945 l 0.0578,-0.2246 0.2,0.1211 c 0.0488,0.0273 1.2043,0.7402 1.9562,2.3184 0.7657,1.6113 0.1465,2.8281 0.12,2.8769 l -0.0789,0.1512 -0.1516,-0.0762"
         style="fill:#434343;fill-opacity:1;fill-rule:evenodd;stroke:none;stroke-width:0.45000002;stroke-miterlimit:8;stroke-dasharray:none"
         id="path54" />
      <path
         d="m 55.278693,81.275896 c 0,0.541 0.0657,1.3933 0.4141,2.1484 0.0762,0.166 0.1523,0.3027 0.2285,0.418 0.5645,0.8633 1.2277,1.289 1.5352,1.4531 0.0324,-0.1367 0.0675,-0.3418 0.0675,-0.6133 0,-0.4551 -0.1027,-1.0703 -0.4961,-1.75 -0.6066,-1.0469 -1.3671,-1.6621 -1.7433,-1.9258 -0.003,0.0801 -0.006,0.168 -0.006,0.2696 z m 2.2266,4.4258 c -0.043,-0.0176 -1.0508,-0.4122 -1.8738,-1.668 -0.086,-0.1328 -0.168,-0.2852 -0.2532,-0.4629 -0.6023,-1.3125 -0.4265,-2.8242 -0.4179,-2.8887 l 0.0312,-0.2519 0.2238,0.1191 c 0.0497,0.0293 1.2266,0.6836 2.1114,2.209 0.9031,1.5574 0.4218,2.7937 0.4011,2.8457 l -0.0644,0.1582 -0.1582,-0.0605"
         style="fill:#434343;fill-opacity:1;fill-rule:evenodd;stroke:none;stroke-width:0.45000002;stroke-miterlimit:8;stroke-dasharray:none"
         id="path56" />
      <path
         d="m 58.813093,85.820796 c 0.082,0.1531 0.1668,0.2832 0.2539,0.4004 0.6309,0.8437 1.3223,1.2168 1.6406,1.3535 0.01,-0.0801 0.0184,-0.1777 0.0184,-0.3027 0,-0.4649 -0.1141,-1.2051 -0.6805,-2.0274 -0.6906,-0.998 -1.4726,-1.5742 -1.8711,-1.8301 0.0379,0.5079 0.1668,1.5457 0.6387,2.4063 z m 1.9832,2.1562 c -0.0437,-0.0117 -1.0789,-0.3086 -2.0066,-1.5507 -0.0969,-0.1289 -0.1887,-0.2735 -0.2813,-0.4395 -0.6867,-1.2598 -0.6945,-2.8184 -0.6945,-2.884 v -0.2761 l 0.2492,0.123 c 0.0527,0.0254 1.248,0.627 2.2664,2.0977 1.0371,1.5 0.6953,2.7578 0.6797,2.8085 l -0.0488,0.1661 -0.1641,-0.045"
         style="fill:#434343;fill-opacity:1;fill-rule:evenodd;stroke:none;stroke-width:0.45000002;stroke-miterlimit:8;stroke-dasharray:none"
         id="path58" />
      <path
         d="m 62.348993,88.400096 c 0.7004,0.8269 1.4172,1.1433 1.7461,1.2547 0.003,-0.008 0.003,-0.0137 0.003,-0.0235 0,-0.3984 -0.1055,-1.2968 -0.8997,-2.2773 -0.7675,-0.9512 -1.5742,-1.4914 -1.9929,-1.7324 0.1113,0.6152 0.4246,1.9316 1.1433,2.7785 z m 1.875,1.6512 c -0.0437,-0.01 -1.1074,-0.2071 -2.1386,-1.4278 -1.0262,-1.2129 -1.2664,-3.2148 -1.2782,-3.2988 l -0.0343,-0.3008 0.2754,0.1231 c 0.0527,0.0234 1.2714,0.5722 2.4218,1.9882 1.1692,1.4473 0.9649,2.7188 0.9551,2.7715 l -0.0293,0.1739 -0.1719,-0.0293"
         style="fill:#434343;fill-opacity:1;fill-rule:evenodd;stroke:none;stroke-width:0.45000002;stroke-miterlimit:8;stroke-dasharray:none"
         id="path60" />
      <path
         d="m 32.175203,72.900896 c 0,13.0976 10.65629,23.7558 23.75779,23.7558 3.875,0 7.7012,-0.9609 11.1028,-2.7597 -0.4981,-0.5684 -2.4661,-2.8125 -2.7676,-3.1582 -2.6164,1.2265 -5.418,1.8515 -8.3352,1.8515 -10.8582,0 -19.69334,-8.832 -19.69334,-19.6894 0,-4.8457 1.64375,-9.2637 4.74024,-12.8086 -0.1785,-0.4141 -0.4949,-1.3164 -0.4949,-2.5098 0,-0.9883 0.2285,-2.1738 0.9246,-3.43554 -5.74806,4.58084 -9.23439,11.54294 -9.23439,18.75394 z m -0.78125,0 c 0,-8.3614 4.52656,-16.4051 11.81254,-20.99612 l 0.3019,-0.18946 0.2156,0.28125 c 0.0618,0.082 0.086,0.15821 0.086,0.22852 0,0.17969 -0.1531,0.32031 -0.2403,0.39844 l -0.4218,0.4082 c -1.5,1.70312 -1.9024,3.32027 -1.9024,4.56447 0,1.373 0.4903,2.293 0.5313,2.3625 l 0.1347,0.241 -0.1843,0.209 c -3.0793,3.4344 -4.70512,7.7539 -4.70512,12.4922 0,10.4277 8.48322,18.9101 18.91092,18.9101 2.8977,0 5.6809,-0.6386 8.2668,-1.8965 l 0.2676,-0.1308 3.8027,4.3359 -0.4218,0.2344 c -3.6243,2.0195 -7.7442,3.084 -11.9153,3.084 -13.532,0 -24.53904,-11.0078 -24.53904,-24.5371"
         style="fill:#434343;fill-opacity:1;fill-rule:evenodd;stroke:none;stroke-width:0.45000002;stroke-miterlimit:8;stroke-dasharray:none"
         id="path62" />
      <path
         d="m 64.540393,90.615696 c -2.6953,1.3117 -5.5898,1.9746 -8.6074,1.9746 -10.8582,0 -19.69334,-8.832 -19.69334,-19.6894 0,-4.9336 1.69649,-9.4336 4.90624,-13.0117 l 0.3371,-0.377 1.4969,2.2629 -0.0809,0.0926 c -0.1328,0.0156 -0.2433,0.0351 -0.3254,0.0527 0.0227,0.0605 0.052,0.1426 0.0879,0.2324 -0.1179,0.1406 -0.2371,0.2832 -0.3484,0.4239 -0.1203,-0.1915 -0.2344,-0.334 -0.3137,-0.4258 -0.291,0.3144 -1.0437,1.2285 -1.0437,2.3418 0,0.0351 8.2e-4,0.0711 8.2e-4,0.1074 -1.3985,2.4648 -2.1094,5.2441 -2.1094,8.3008 0,9.4199 7.664,17.0859 17.0859,17.0859 2.3117,0 4.543,-0.4512 6.6406,-1.3398 0.2239,0.2324 0.4465,0.4148 0.6516,0.5586 -2.2969,1.0293 -4.7441,1.5605 -7.2922,1.5605 -9.8523,0 -17.8679,-8.0137 -17.8679,-17.8652 0,-4.2715 1.3347,-8.0274 3.9453,-11.1778 -0.1524,-0.2297 -0.3653,-0.5507 -0.6086,-0.916 -2.8594,3.3692 -4.37972,7.5305 -4.37972,12.0938 0,10.4277 8.48322,18.9101 18.91092,18.9101 2.7688,0 5.4289,-0.5879 7.918,-1.7402 -0.1043,-0.2238 -0.207,-0.4453 -0.3074,-0.668 0.2265,0.1309 0.4218,0.209 0.5515,0.252 0.003,-0.008 0.003,-0.0137 0.003,-0.0235 0,-0.289 -0.0567,-0.8457 -0.3957,-1.5078 l 0.0898,-0.0449 1.093,2.3711 -0.345,0.166"
         style="fill:#434343;fill-opacity:1;fill-rule:evenodd;stroke:none;stroke-width:0.45000002;stroke-miterlimit:8;stroke-dasharray:none"
         id="path64" />
      <path
         d="m 64.364693,94.475096 -1.8836,-2.3809 c 0.1746,-0.0605 0.3457,-0.1199 0.5175,-0.1843 l 1.8672,2.364 c -0.1652,0.0684 -0.332,0.1367 -0.5011,0.2012"
         style="fill:#434343;fill-opacity:1;fill-rule:nonzero;stroke:none;stroke-width:0.45000002;stroke-miterlimit:8;stroke-dasharray:none"
         id="path66" />
      <path
         d="m 60.679093,95.572696 -1.0957,-2.7187 c 0.1731,-0.0313 0.3449,-0.0664 0.5176,-0.1016 l 1.093,2.7071 c -0.17,0.041 -0.343,0.0773 -0.5149,0.1132"
         style="fill:#434343;fill-opacity:1;fill-rule:nonzero;stroke:none;stroke-width:0.45000002;stroke-miterlimit:8;stroke-dasharray:none"
         id="path68" />
      <path
         d="m 56.296293,96.062996 -0.2695,-2.8817 c 0.175,-0.001 0.3488,-0.005 0.5215,-0.007 l 0.2687,2.8731 c -0.173,0.008 -0.3457,0.0117 -0.5207,0.0156"
         style="fill:#434343;fill-opacity:1;fill-rule:nonzero;stroke:none;stroke-width:0.45000002;stroke-miterlimit:8;stroke-dasharray:none"
         id="path70" />
      <path
         d="m 52.027893,95.736796 0.5469,-2.8359 c 0.1707,0.0293 0.3406,0.0566 0.5137,0.0812 l -0.5488,2.836 c -0.1719,-0.0247 -0.3418,-0.052 -0.5118,-0.0813"
         style="fill:#434343;fill-opacity:1;fill-rule:nonzero;stroke:none;stroke-width:0.45000002;stroke-miterlimit:8;stroke-dasharray:none"
         id="path72" />
      <path
         d="m 47.882193,94.623496 1.2969,-2.5976 c 0.1653,0.0586 0.3293,0.1133 0.4961,0.166 l -1.3008,2.6094 c -0.164,-0.0567 -0.3281,-0.1153 -0.4922,-0.1778"
         style="fill:#434343;fill-opacity:1;fill-rule:nonzero;stroke:none;stroke-width:0.45000002;stroke-miterlimit:8;stroke-dasharray:none"
         id="path74" />
      <path
         d="m 43.952593,92.723096 1.9347,-2.2082 c 0.1524,0.0871 0.3074,0.1731 0.4629,0.2571 l -1.9433,2.2207 c -0.1524,-0.0879 -0.304,-0.1797 -0.4543,-0.2696"
         style="fill:#434343;fill-opacity:1;fill-rule:nonzero;stroke:none;stroke-width:0.45000002;stroke-miterlimit:8;stroke-dasharray:none"
         id="path76" />
      <path
         d="m 40.381493,90.058296 2.4414,-1.6945 c 0.1367,0.1152 0.2754,0.2293 0.416,0.3418 l -2.4582,1.707 c -0.1348,-0.1152 -0.2676,-0.2344 -0.3992,-0.3543"
         style="fill:#434343;fill-opacity:1;fill-rule:nonzero;stroke:none;stroke-width:0.45000002;stroke-miterlimit:8;stroke-dasharray:none"
         id="path78" />
      <path
         d="m 37.343173,86.711396 2.80472,-1.0898 c 0.1144,0.1406 0.2316,0.2812 0.3488,0.4179 l -2.82735,1.1004 c -0.10937,-0.1414 -0.21758,-0.284 -0.32617,-0.4285"
         style="fill:#434343;fill-opacity:1;fill-rule:nonzero;stroke:none;stroke-width:0.45000002;stroke-miterlimit:8;stroke-dasharray:none"
         id="path80" />
      <path
         d="m 34.996683,82.814896 3.01841,-0.4199 c 0.0871,0.1633 0.1757,0.3262 0.2668,0.4863 l -3.04497,0.4258 c -0.0812,-0.164 -0.16133,-0.3281 -0.24024,-0.4922"
         style="fill:#434343;fill-opacity:1;fill-rule:nonzero;stroke:none;stroke-width:0.45000002;stroke-miterlimit:8;stroke-dasharray:none"
         id="path82" />
      <path
         d="m 33.459573,78.539496 3.07813,0.2969 c 0.0535,0.1778 0.11211,0.3574 0.17266,0.5352 l -3.11016,-0.2949 c -0.048,-0.1797 -0.0949,-0.3575 -0.14063,-0.5372"
         style="fill:#434343;fill-opacity:1;fill-rule:nonzero;stroke:none;stroke-width:0.45000002;stroke-miterlimit:8;stroke-dasharray:none"
         id="path84" />
      <path
         d="m 32.794343,74.062996 2.97656,1.0351 c 0.0203,0.1914 0.0441,0.3828 0.0695,0.5743 l -3.01171,-1.0481 c -0.0137,-0.1863 -0.0254,-0.3738 -0.0344,-0.5613"
         style="fill:#434343;fill-opacity:1;fill-rule:nonzero;stroke:none;stroke-width:0.45000002;stroke-miterlimit:8;stroke-dasharray:none"
         id="path86" />
      <path
         d="m 33.022863,69.539496 2.68945,1.7676 c -0.0145,0.1973 -0.0273,0.3946 -0.0359,0.5957 l -2.73242,-1.7949 c 0.0234,-0.1887 0.0516,-0.377 0.0789,-0.5684"
         style="fill:#434343;fill-opacity:1;fill-rule:nonzero;stroke:none;stroke-width:0.45000002;stroke-miterlimit:8;stroke-dasharray:none"
         id="path88" />
      <path
         d="m 34.171293,65.119596 2.18282,2.4024 c -0.0559,0.1992 -0.10352,0.4004 -0.15235,0.6043 l -2.22656,-2.4551 c 0.0613,-0.1863 0.12773,-0.3692 0.19609,-0.5516"
         style="fill:#434343;fill-opacity:1;fill-rule:nonzero;stroke:none;stroke-width:0.45000002;stroke-miterlimit:8;stroke-dasharray:none"
         id="path90" />
      <path
         d="m 36.224033,60.889196 1.54492,2.9363 c -0.0965,0.1926 -0.19336,0.382 -0.28398,0.5773 l -1.57344,-2.9922 c 0.10273,-0.1757 0.20508,-0.3496 0.3125,-0.5214"
         style="fill:#434343;fill-opacity:1;fill-rule:nonzero;stroke:none;stroke-width:0.45000002;stroke-miterlimit:8;stroke-dasharray:none"
         id="path92" />
      <path
         d="m 38.856093,57.365696 0.825,3.4024 c -0.1375,0.1796 -0.2715,0.3613 -0.4012,0.5449 l -0.843,-3.4707 c 0.1379,-0.1621 0.2774,-0.3203 0.4192,-0.4766"
         style="fill:#434343;fill-opacity:1;fill-rule:nonzero;stroke:none;stroke-width:0.45000002;stroke-miterlimit:8;stroke-dasharray:none"
         id="path94" />
      <path
         d="m 63.977893,87.908696 c 0.0723,-0.0469 0.1438,-0.0938 0.2129,-0.1406 0.0625,0.0281 0.1262,0.0574 0.1887,0.082 0.0781,0.0273 0.1524,0.0508 0.2254,0.0762 -0.159,0.1043 -0.3086,0.2226 -0.4512,0.3476 -0.0496,-0.1191 -0.1082,-0.2402 -0.1758,-0.3652"
         style="fill:#434343;fill-opacity:1;fill-rule:nonzero;stroke:none;stroke-width:0.45000002;stroke-miterlimit:8;stroke-dasharray:none"
         id="path96" />
      <path
         d="m 101.49359,75.935596 h -5.999997 v 0.6875 h 2.625 v 16.625 h -2.625 v 0.6875 h 6.911297 l 3.6043,-11.9902 h 0.2906 l 3.7125,11.9902 h 6.825 v -0.6875 h -2.6562 v -16.625 h 2.6562 v -0.6875 h -8.7812 v 0.6875 h 2.6562 v 16.3746 h -0.1855 l -5.2832,-17.0621 h -0.911 l -5.200397,17.0356 h -0.2636 v -16.3481 h 2.624997 v -0.6875"
         style="fill:#434343;fill-opacity:1;fill-rule:nonzero;stroke:none;stroke-width:0.45000002;stroke-miterlimit:8;stroke-dasharray:none"
         id="path98" />
      <path
         d="m 120.91939,80.248096 h 3.7714 l -1.789,5.1098 h -0.2117 z m 3.1718,-4.3125 v 0.4688 h 1.9278 l -1.1524,3.3437 h -4.1406 l -1.1348,-3.3437 h 1.9453 v -0.4688 h -4.0203 v 0.4688 h 1.5125 l 4.3438,12.4062 h 0.6269 l 4.4557,-12.4062 h 1.53 v -0.4688 h -5.8939"
         style="fill:#434343;fill-opacity:1;fill-rule:nonzero;stroke:none;stroke-width:0.45000002;stroke-miterlimit:8;stroke-dasharray:none"
         id="path100" />
      <path
         d="m 137.15209,75.935596 v 0.4688 h 1.928 l -3.025,4.8265 -3.284,-4.8265 h 2.213 v -0.4688 h -4.573 v 0.4688 h 1.752 l 3.597,5.2875 -3.948,6.3375 h -1.345 v 0.5 h 5.892 v -0.5 h -1.816 l 2.609,-4.2469 2.904,4.2469 h -2.037 v 0.5 h 4.537 v -0.5 h -1.89 l -3.192,-4.6981 4.363,-6.9269 h 1.355 v -0.4688 h -6.04"
         style="fill:#434343;fill-opacity:1;fill-rule:nonzero;stroke:none;stroke-width:0.45000002;stroke-miterlimit:8;stroke-dasharray:none"
         id="path102" />
      <path
         d="m 157.45209,84.810596 h 1.568 c 1.684,0 2.859,0.3231 3.526,0.97 0.667,0.6472 1,1.7847 1,3.4136 0,1.5137 -0.268,2.568 -0.802,3.1621 -0.535,0.5946 -1.561,0.8918 -3.078,0.8918 h -2.214 z m 2.781,-8.875 h -8.875 v 0.6875 h 2.625 v 16.625 h -2.625 v 0.6875 h 8.849 c 2.39,0 4.184,-0.4117 5.384,-1.2343 1.199,-0.8227 1.798,-2.0618 1.798,-3.7161 0,-1.6453 -0.613,-2.8621 -1.838,-3.65 -1.226,-0.7875 -3.121,-1.1808 -5.687,-1.1808 h -2.412 v -7.5313 h 2.781 v -0.6875"
         style="fill:#434343;fill-opacity:1;fill-rule:nonzero;stroke:none;stroke-width:0.45000002;stroke-miterlimit:8;stroke-dasharray:none"
         id="path104" />
      <path
         d="m 179.33309,75.935596 h -10.42 v 0.4688 h 1.844 v 11.625 h -1.844 v 0.5 h 6.125 v -0.5 h -1.844 v -11.625 h 1.955 c 1.243,0 2.148,0.2855 2.714,0.8574 0.565,0.5711 0.935,1.577 1.108,3.0176 h 0.473 l -0.111,-4.3438"
         style="fill:#434343;fill-opacity:1;fill-rule:nonzero;stroke:none;stroke-width:0.45000002;stroke-miterlimit:8;stroke-dasharray:none"
         id="path106" />
      <path
         d="m 183.35609,80.248096 h 3.773 l -1.79,5.1098 h -0.212 z m 3.173,-4.3125 v 0.4688 h 1.927 l -1.153,3.3437 h -4.141 l -1.134,-3.3437 h 1.946 v -0.4688 h -4.021 v 0.4688 h 1.513 l 4.343,12.4062 h 0.627 l 4.454,-12.4062 h 1.532 v -0.4688 h -5.893"
         style="fill:#434343;fill-opacity:1;fill-rule:nonzero;stroke:none;stroke-width:0.45000002;stroke-miterlimit:8;stroke-dasharray:none"
         id="path108" />
      <path
         d="m 203.06909,80.125896 h 0.185 v 7.9035 h -1.813 v 0.5 h 4.156 v -0.5 h -1.812 v -12.3125 h -0.701 l -7.727,12.0082 h -0.166 v -11.3207 h 1.844 v -0.4688 h -4.219 v 0.4688 h 1.844 v 11.625 h -1.844 v 0.5 h 4.84 l 5.413,-8.4035"
         style="fill:#434343;fill-opacity:1;fill-rule:nonzero;stroke:none;stroke-width:0.45000002;stroke-miterlimit:8;stroke-dasharray:none"
         id="path110" />
      <path
         d="m 217.13409,75.840696 h -0.349 l -0.754,0.8235 c -0.529,-0.3625 -1.064,-0.6266 -1.606,-0.7926 -0.542,-0.1657 -1.136,-0.2485 -1.783,-0.2485 -1.613,0 -2.955,0.6243 -4.027,1.8743 -1.07,1.25 -1.606,2.8199 -1.606,4.7101 0,1.9266 0.538,3.5094 1.616,4.7465 1.076,1.2375 2.459,1.8566 4.146,1.8566 0.634,0 1.2,-0.0789 1.695,-0.2355 0.495,-0.157 0.94,-0.3953 1.335,-0.7149 l 0.695,0.7188 h 0.356 v -3.6121 h -0.468 c -0.253,1.1207 -0.689,1.9578 -1.306,2.5121 -0.617,0.5543 -1.414,0.8316 -2.389,0.8316 -1.08,0 -1.859,-0.3515 -2.338,-1.0543 -0.478,-0.7031 -0.717,-1.8586 -0.717,-3.4668 v -3.1332 c 0,-1.6203 0.237,-2.7863 0.713,-3.4976 0.475,-0.7113 1.25,-1.0668 2.324,-1.0668 1.061,0 1.928,0.3105 2.601,0.9324 0.673,0.6219 1.126,1.5293 1.362,2.7238 h 0.5 v -3.9074"
         style="fill:#434343;fill-opacity:1;fill-rule:nonzero;stroke:none;stroke-width:0.45000002;stroke-miterlimit:8;stroke-dasharray:none"
         id="path112" />
      <path
         d="m 223.39609,82.521196 5.082,5.5082 h -1.96 v 0.5 h 4.658 v -0.5 h -1.887 l -4.013,-4.357 5.788,-7.268 h 1.115 v -0.4688 h -5.863 v 0.4688 h 1.942 z m 1.751,-6.5856 h -6.156 v 0.4688 h 1.844 v 11.625 h -1.844 v 0.5 h 6.156 v -0.5 h -1.843 v -11.625 h 1.843 v -0.4688"
         style="fill:#434343;fill-opacity:1;fill-rule:nonzero;stroke:none;stroke-width:0.45000002;stroke-miterlimit:8;stroke-dasharray:none"
         id="path114" />
      <path
         d="m 102.91659,60.244996 c -0.3902,0.5074 -1.1113,0.9945 -2.1449,0.9945 -2.690997,0 -2.690997,-3.2562 -2.690997,-3.9191 0,-1.7355 0.4484,-3.74414 2.690997,-3.74414 2.8859,0 2.8859,3.17854 2.8859,3.93864 0,1.4239 -0.3316,2.2039 -0.741,2.7301 z m 0.6824,6.2988 h 1.8332 v -12.49957 c 0,-0.21406 0.0391,-1.05313 0.0782,-1.55977 h -1.83321 l -0.0391,1.55977 c -0.1562,-0.27266 -0.3707,-0.68242 -0.8773,-1.0336 -0.8,-0.5457 -1.7555,-0.72109 -2.418,-0.72109 -1.306697,0 -4.212097,0.68203 -4.212097,4.97226 0,3.7246 2.1258,5.343 4.426497,5.343 2.1059,0 2.8079,-1.2481 3.04181,-1.6574 v 5.5964"
         style="fill:#b01419;fill-opacity:1;fill-rule:nonzero;stroke:none;stroke-width:0.09999999"
         id="path116" />
      <path
         d="m 109.62439,62.273496 h 1.8332 v -9.78904 h -1.8332 z m -0.1945,4.2508 h 2.2035 v -2.0086 h -2.2035 v 2.0086"
         style="fill:#d35015;fill-opacity:1;fill-rule:nonzero;stroke:none;stroke-width:0.09999999"
         id="path118" />
      <path
         d="m 121.92909,55.000096 c 0.3906,0.5066 0.6633,1.0332 0.6633,2.8074 0,1.2285 -0.2727,1.9309 -0.7609,2.4375 -0.4871,0.527 -1.2676,0.8586 -2.1055,0.8586 -2.3203,0 -2.6328,-2.3406 -2.6328,-3.5887 0,-1.5011 0.4484,-3.48981 2.6914,-3.48981 1.0723,0 1.6965,0.38984 2.1445,0.97501 z m -4.2703,-3.27618 c 0.0781,-1.09219 0.5457,-1.91094 2.2813,-1.91094 2.5546,0 2.5937,1.85234 2.5937,4.5043 -0.7805,-1.61875 -2.632,-1.65782 -3.2168,-1.65782 -0.8976,0 -2.1848,0.19532 -3.0039,1.20899 -0.8379,0.99492 -1.1113,2.30155 -1.1113,3.60825 0,3.3148 1.95,4.9328 4.3484,4.9328 1.9699,0 2.6914,-0.975 3.0813,-1.4817 l 0.0195,1.3457 h 1.7742 l -0.0391,-1.7746 -0.0195,-6.12303 c 0,-2.35938 -0.0781,-3.31484 -0.46761,-4.05625 -0.81949,-1.55977 -2.73039,-1.75469 -4.07539,-1.75469 -3.91991,0 -4.0371,1.83281 -4.11521,3.15899 h 1.95041"
         style="fill:#efaa0a;fill-opacity:1;fill-rule:nonzero;stroke:none;stroke-width:0.09999999"
         id="path120" />
      <path
         d="m 128.71509,62.273496 h 1.833 v -9.78904 h -1.833 z m -0.196,4.2508 h 2.204 v -2.0086 h -2.204 v 2.0086"
         style="fill:#4d8522;fill-opacity:1;fill-rule:nonzero;stroke:none;stroke-width:0.09999999"
         id="path122" />
      <path
         d="m 133.49309,62.312596 h 1.735 v 2.0473 l 1.814,0.5847 v -2.632 h 2.183 v -1.3457 h -2.183 v -5.8699 c 0,-0.48715 0,-1.3059 1.306,-1.3059 0.371,0 0.721,0.0586 0.877,0.0969 v -1.42305 c -0.331,-0.0586 -0.857,-0.11719 -1.52,-0.11719 -1.678,0 -2.477,0.4875 -2.477,2.08672 v 6.53244 h -1.735 v 1.3457"
         style="fill:#0483b8;fill-opacity:1;fill-rule:nonzero;stroke:none;stroke-width:0.09999999"
         id="path124" />
      <path
         d="m 147.06409,57.300896 c -0.74,0 -3.529,0 -3.529,-1.9891 0,-0.62382 0.391,-1.69648 2.028,-1.69648 0.936,0 1.638,0.37031 2.086,1.05313 0.41,0.66285 0.43,1.20895 0.469,2.57385 -0.332,0.039 -0.605,0.0586 -1.054,0.0586 z m 1.268,-4.81644 c -0.136,0.48711 -0.175,0.95547 -0.175,1.46211 -0.878,-1.61797 -2.204,-1.77422 -3.022,-1.77422 -2.244,0 -3.453,1.26758 -3.453,2.88635 0,0.7797 0.274,2.0277 1.716,2.866 1.054,0.5852 2.614,0.6437 3.394,0.6437 0.468,0 0.761,-0.0195 1.326,-0.0585 0,1.2089 0,1.7351 -0.352,2.1644 -0.37,0.4871 -1.169,0.6434 -1.696,0.6434 -1.852,0 -1.95,-1.2672 -1.97,-1.6575 h -1.833 c 0.059,0.5071 0.118,1.1895 0.683,1.8524 0.741,0.8187 2.126,1.0531 3.159,1.0531 1.424,0 2.945,-0.4484 3.471,-1.4433 0.312,-0.5848 0.332,-1.0528 0.332,-1.5012 l -0.078,-4.67971 c 0,-0.15625 0.019,-1.4625 0.156,-2.45703 h -1.658"
         style="fill:#173e7d;fill-opacity:1;fill-rule:nonzero;stroke:none;stroke-width:0.09999999"
         id="path126" />
      <path
         d="m 154.12409,52.484456 h 1.8332 v 14.0594 h -1.8332 z"
         style="fill:#4c2382;fill-opacity:1;fill-rule:nonzero;stroke:none;stroke-width:0.09999999"
         id="path128" />
      <path
         d="m 166.87709,52.484456 h 2.88594 v 14.098 h -2.88594 z"
         style="fill:#434343;fill-opacity:1;fill-rule:nonzero;stroke:none;stroke-width:0.45000002;stroke-miterlimit:8;stroke-dasharray:none"
         id="path130" />
      <path
         d="m 173.17509,62.350896 h 2.885 v -9.86644 h -2.885 z m -0.098,4.2121 h 3.081 v -2.5153 h -3.081 v 2.5153"
         style="fill:#434343;fill-opacity:1;fill-rule:nonzero;stroke:none;stroke-width:0.45000002;stroke-miterlimit:8;stroke-dasharray:none"
         id="path132" />
      <path
         d="m 184.27009,60.537596 c -2.126,0 -2.126,-2.418 -2.126,-3.0418 0,-2.2426 0.956,-3.31524 2.263,-3.31524 1.988,0 1.988,2.47654 1.988,2.98394 0,0.7797 -0.038,3.3731 -2.125,3.3731 z m -4.894,6.0062 h 2.886 v -5.4019 c 0.975,1.2875 2.282,1.3262 2.789,1.3262 2.398,0 4.29,-1.8914 4.29,-5.2063 0,-3.68554 -2.146,-4.97226 -4.116,-4.97226 -0.506,0 -2.066,0.0391 -2.963,1.57891 -0.02,-0.31172 -0.04,-0.77969 -0.098,-1.38399 h -2.788 v 14.05934"
         style="fill:#434343;fill-opacity:1;fill-rule:nonzero;stroke:none;stroke-width:0.45000002;stroke-miterlimit:8;stroke-dasharray:none"
         id="path134" />
      <path
         d="m 192.26509,59.913396 c 0,0.4683 -0.078,1.8918 -0.136,2.4574 h 2.711 l 0.058,-1.8914 c 0.37,0.8383 1.014,2.0277 3.354,1.9105 v -2.5929 c -2.925,0.2726 -3.101,-1.2286 -3.101,-2.4571 v -4.85544 h -2.886 v 7.42894"
         style="fill:#434343;fill-opacity:1;fill-rule:nonzero;stroke:none;stroke-width:0.45000002;stroke-miterlimit:8;stroke-dasharray:none"
         id="path136" />
      <path
         d="m 203.08809,55.526296 c 0,-0.66293 0.448,-1.40395 1.404,-1.40395 0.526,0 0.955,0.25352 1.229,0.56563 0.506,0.62382 0.545,1.38442 0.545,2.43752 -1.852,0.1558 -3.178,-0.4293 -3.178,-1.5992 z m 3.549,-3.04184 c -0.098,0.6043 -0.098,1.05313 -0.098,1.34571 -1.092,-1.57969 -2.399,-1.57969 -2.944,-1.57969 -1.423,0 -2.067,0.40898 -2.457,0.77969 -0.585,0.58515 -0.858,1.38476 -0.858,2.16443 0,0.7801 0.273,2.2235 2.086,3.0617 1.209,0.5457 2.944,0.5457 3.9,0.5457 0,0.6438 -0.019,0.9559 -0.136,1.3067 -0.254,0.7215 -1.014,0.8191 -1.287,0.8191 -0.41,0 -0.839,-0.1754 -1.092,-0.5461 -0.215,-0.3312 -0.215,-0.6433 -0.215,-0.8773 h -2.827 c 0.019,0.5262 0.078,1.5797 1.111,2.3203 0.898,0.6434 2.048,0.7992 2.984,0.7992 0.819,0 2.535,-0.1363 3.509,-1.2672 0.663,-0.7996 0.683,-1.9695 0.683,-2.4179 l 0.019,-3.95824 c 0,-0.83868 0.059,-1.67735 0.23501,-2.4961 h -2.613"
         style="fill:#434343;fill-opacity:1;fill-rule:nonzero;stroke:none;stroke-width:0.45000002;stroke-miterlimit:8;stroke-dasharray:none"
         id="path138" />
      <path
         d="m 212.44809,59.913396 c 0,0.4683 -0.078,1.8918 -0.137,2.4574 h 2.711 l 0.059,-1.8914 c 0.37,0.8383 1.014,2.0277 3.353,1.9105 v -2.5929 c -2.924,0.2726 -3.1,-1.2286 -3.1,-2.4571 v -4.85544 h -2.886 v 7.42894"
         style="fill:#434343;fill-opacity:1;fill-rule:nonzero;stroke:none;stroke-width:0.45000002;stroke-miterlimit:8;stroke-dasharray:none"
         id="path140" />
      <path
         d="m 223.03609,62.331296 2.165,-6.8246 2.203,6.8246 h 2.866 l -3.723,-9.67184 -1.19,-3.91914 h -2.906 l 1.248,3.70508 -3.782,9.8859 h 3.119"
         style="fill:#434343;fill-opacity:1;fill-rule:nonzero;stroke:none;stroke-width:0.45000002;stroke-miterlimit:8;stroke-dasharray:none"
         id="path142" />
      <path
         d="M 95.577593,71.010196 H 233.10109"
         style="fill:#434343;fill-opacity:1;stroke:#9c9a9b;stroke-width:0.45000002;stroke-linecap:butt;stroke-linejoin:round;stroke-miterlimit:8;stroke-dasharray:none;stroke-opacity:1"
         id="path144" />
    </g>
  </g>
</svg>
